<svg id="accneck" xmlns="http://www.w3.org/2000/svg" viewBox="0 0 164.7 103.2">
  <title>accneck_pn0008</title>
  <g id="accneck_pn0008">
    <g id="sprite">
      <path id="_10" data-name="10" d="M234.8,325.7h-1.1c.4,3.2.6,14.3.7,24.2h42.9a201.5,201.5,0,0,0-3.2-24.2Z" transform="translate(-133.9 -282.2)" style="fill: #ea5514"/>
      <path id="_9" data-name="9" d="M234.4,349.9c.1,7.5.1,14.3.2,16.5a7.5,7.5,0,0,0,4.5,6.9h27.6l3.2-.3c5-.7,7.3-5.4,7.5-8.2a106.4,106.4,0,0,0-.1-14.8H234.4Z" transform="translate(-133.9 -282.2)" style="fill: #fff"/>
      <path id="_8" data-name="8" d="M242.8,374.1c4.5.2,17.2-.3,24-.8H239.1A10.5,10.5,0,0,0,242.8,374.1Z" transform="translate(-133.9 -282.2)" style="fill: #ea5514"/>
      <path id="_7" data-name="7" d="M146.6,288.6c-3.1,1-4.9,3.3-6.2,9.3a117.5,117.5,0,0,0-2.2,17c-.2,5.5.9,9.6,6.8,11.7a66.1,66.1,0,0,0,11.9,2.5V287.3C152.1,287.6,148.4,288,146.6,288.6Z" transform="translate(-133.9 -282.2)" style="fill: #ea5514"/>
      <path id="_6" data-name="6" d="M216.3,286.5h-9.5v45.7h9.5l15-.2V286.5Z" transform="translate(-133.9 -282.2)" style="fill: #fff"/>
      <path id="_5" data-name="5" d="M156.9,287.3v41.8c7.1,1,15.8,1.7,24.5,2.2V286.5C172.4,286.6,163.5,286.9,156.9,287.3Z" transform="translate(-133.9 -282.2)" style="fill: #fff"/>
      <path id="_4" data-name="4" d="M231.4,286.5V332c7.8-.2,16.8-.5,25.4-1.1V286.6Z" transform="translate(-133.9 -282.2)" style="fill: #ea5514"/>
      <path id="_3" data-name="3" d="M181.4,286.5v44.7c9,.5,18.1.8,25.4.9V286.5Z" transform="translate(-133.9 -282.2)" style="fill: #ea5514"/>
      <path id="_2" data-name="2" d="M256.8,286.6v44.3a216.4,216.4,0,0,0,24.5-2.7V287.8C275.7,287.1,266.6,286.8,256.8,286.6Z" transform="translate(-133.9 -282.2)" style="fill: #fff"/>
      <path id="_1" data-name="1" d="M292.2,297.9c-1.3-5.9-3.1-8.2-6.2-9.3a26.4,26.4,0,0,0-4.7-.9v40.4a45.6,45.6,0,0,0,6.3-1.6c5.8-2.1,7-6.1,6.8-11.7A117.3,117.3,0,0,0,292.2,297.9Z" transform="translate(-133.9 -282.2)" style="fill: #ea5514"/>
    </g>
    <path id="line" d="M298.7,314.8a120.5,120.5,0,0,0-2.3-17.8c-1.1-5-3.1-10.4-9-12.4s-35.7-2.5-64.4-2.4H209.6c-28.7-.1-57.3,0-64.4,2.4s-7.9,7.4-9,12.4a121,121,0,0,0-2.3,17.8c-.2,5.3.6,12.7,9.6,15.8,16.5,5.8,70.5,5.9,72.7,5.9l13.6-.2c.1,5.6.2,12.3.2,17.9s.1,10.5.2,12.3a11.7,11.7,0,0,0,7.1,10.7v5a3.1,3.1,0,0,0,6.3,0v-3.9h1.8v3.8a3.1,3.1,0,0,0,6.3,0v-3.9h1.8v4a3.1,3.1,0,1,0,6.3,0V378h1.8v4.3a3.1,3.1,0,0,0,6.3,0v-4.8l1.8-.2v4.9a3.1,3.1,0,0,0,6.3,0V375a13.9,13.9,0,0,0,5.7-9.9c.8-11.1-.8-24.7-2-32.3a58.4,58.4,0,0,0,9.3-2.2C298.1,327.4,298.9,320,298.7,314.8Zm-25.5,49.7c-.1,1-1.1,3.9-3.8,4.3-4.4.6-21.4,1.3-26.4,1.1-2.8-.1-4-1.2-4.1-3.6s-.1-6.4-.2-12-.1-12.5-.2-18.1c10.3-.3,22.4-1,32.8-2.1C272.7,343.6,273.9,355.6,273.2,364.4Zm13-41.9c-8.6,3-31.9,4.6-52.2,5.1h-.2l-17.6.3c-21.9,0-58.6-1.4-69.9-5.4-2.9-1-4.1-2.3-3.9-7.5a112.8,112.8,0,0,1,2.1-16.3c1.2-5.4,2.5-5.8,3.4-6.1,5.2-1.7,32.3-2,51-2H223c16.5,0,55.3-.2,61.7,1.9.9.3,2.2.7,3.4,6.1a112.5,112.5,0,0,1,2.1,16.3C290.3,320.3,289.1,321.5,286.2,322.5Z" transform="translate(-133.9 -282.2)" style="fill: #231815"/>
  </g>
</svg>
