<svg id="accneck" xmlns="http://www.w3.org/2000/svg" viewBox="0 0 57.9 56.8">
  <title>accneck_sr0003</title>
  <g id="accneck_sr0003">
    <g id="_" data-name="+">
      <path d="M215.7,346.8c0-.8,2.8-1.8,4.6-1.8-4.1-4.7-3.4-12.4-3.4-13.4h.1c2.4,0,4.8,1.6,5,2.5-.6-2,1.5-3.4,1.7-3.6s-2.3-1.6-1.7-3.6c-.2.9-2.5,2.5-5,2.5,0-3.2,1-7.3,3.3-7.3-1.6,0-4.6-1.2-4.6-2.3,0,1.1-2.9,2.3-4.6,2.3,2.3,0,3.3,4.2,3.3,7.3-2.4,0-4.8-1.6-5-2.5.6,2-1.4,3.4-1.7,3.6s2.3,1.6,1.7,3.6c.2-.9,2.5-2.5,5-2.5h.1c0,1.1.7,8.7-3.4,13.4,1.8,0,4.6,1,4.6,1.8Z" transform="translate(-186.8 -294.1)" style="fill: #bcccda"/>
      <path d="M215.7,319.8c0,1.1,2.9,2.3,4.6,2.3-2.3,0-3.3,4.2-3.3,7.3,2.4,0,4.6-1.5,4.9-2.4-.5,1.9,1.5,3.3,1.7,3.5s-2.2,1.5-1.7,3.5c-.3-.9-2.6-2.4-4.9-2.4h-.1c0,1.1-.7,8.7,3.4,13.4-1.8,0-4.6,1-4.6,1.8,0-.8-2.8-1.8-4.6-1.8,4.1-4.7,3.4-12.4,3.4-13.4h-.1c-2.4,0-4.6,1.5-4.9,2.4.5-1.9-1.5-3.3-1.7-3.5s2.2-1.5,1.7-3.5c.3.9,2.6,2.4,4.9,2.4,0-3.2-1-7.3-3.3-7.3,1.6,0,4.6-1.2,4.6-2.3m6.2,7.1h0m0,0h0m-12.4,0h0m12.4,7h0m-12.4,0h0m6.2,12.8h0m0-31.2a4.2,4.2,0,0,0-3.6,2l-1,.3a4.2,4.2,0,0,0-3.9,5.5,4.2,4.2,0,0,0-1.9,3.7h0a4.2,4.2,0,0,0,0,6.7h0a4.2,4.2,0,0,0,3.1,4.2h1.4a9.3,9.3,0,0,1-1.9,4,4.2,4.2,0,0,0,3.1,6.9l1.4.3a4.2,4.2,0,0,0,2.9,1.6h.3a4.2,4.2,0,0,0,3.3-1.6l1.4-.3a4.2,4.2,0,0,0,3.1-6.9,9.3,9.3,0,0,1-1.9-4H223a4.2,4.2,0,0,0,3.1-4.2h0a4.2,4.2,0,0,0,0-6.7h0v-.2a4.2,4.2,0,0,0-1.9-3.5,4.2,4.2,0,0,0-4-5.5l-1-.3a4.2,4.2,0,0,0-3.6-2Z" transform="translate(-186.8 -294.1)" style="fill: #231815"/>
    </g>
    <path id="U" d="M241.6,297.2a29.2,29.2,0,0,1-51.7,0" transform="translate(-186.8 -294.1)" style="fill: none;stroke: #231815;stroke-linecap: round;stroke-linejoin: round;stroke-width: 6.2700000000000005px"/>
    <circle id="o" cx="29" cy="18.8" r="4.6" style="fill: #fff;stroke: #231815;stroke-linecap: round;stroke-linejoin: round;stroke-width: 4.18px"/>
  </g>
</svg>
