<svg id="accneck" xmlns="http://www.w3.org/2000/svg" viewBox="0 0 66.24 52.31">
  <title>accneck_0005</title>
  <g id="accneck_0005">
    <path id="_5" data-name="5" d="M204.71,309.61s-16.14,8.2-19.05,13c.53.27,16.41,16.14,16.41,16.14s12.15-12.41,13.94-25.67C217.41,298,204.71,309.61,204.71,309.61Z" transform="translate(-182.52 -289.55)" fill="#e60012" stroke="#231815" stroke-linecap="round" stroke-linejoin="round" stroke-width="6.27"/>
    <path id="_4" data-name="4" d="M226.57,309.61s16.14,8.2,19.05,13c-.53.27-16.41,16.14-16.41,16.14s-12.15-12.41-13.94-25.67C213.87,298,226.57,309.61,226.57,309.61Z" transform="translate(-182.52 -289.55)" fill="#e60012" stroke="#231815" stroke-linecap="round" stroke-linejoin="round" stroke-width="6.27"/>
    <path id="_3" data-name="3" d="M215.95,303.49s11.78-9.93,22.93-10.8c6-.47,7.54,25.27,1.41,25.27-10,0-25.51-8.94-25.51-8.94Z" transform="translate(-182.52 -289.55)" fill="#e60012" stroke="#231815" stroke-miterlimit="10" stroke-width="6.27"/>
    <path id="_2" data-name="2" d="M215.33,303.49s-11.79-9.93-22.94-10.8c-6-.47-7.53,25.27-1.41,25.27,10,0,25.51-8.94,25.51-8.94Z" transform="translate(-182.52 -289.55)" fill="#e60012" stroke="#231815" stroke-miterlimit="10" stroke-width="6.27"/>
    <path id="_1" data-name="1" d="M222.71,310.22c0,4.17-3.16,6.28-7.07,6.28h0c-3.9,0-7.07-2.11-7.07-6.28v-5.45c0-4.17,3.16-6.28,7.07-6.28h0c3.91,0,7.07,2.11,7.07,6.28Z" transform="translate(-182.52 -289.55)" fill="#e60012" stroke="#231815" stroke-miterlimit="10" stroke-width="6.27"/>
  </g>
</svg>
