<svg id="accneck" xmlns="http://www.w3.org/2000/svg" viewBox="0 0 28.14 100.15">
  <title>accneck_0007</title>
  <g id="accneck_0007">
    <g id="sprite">
      <polygon id="_-" data-name="-" points="6.3 10.69 21.84 10.69 14.33 3.4 13.8 3.4 6.3 10.69" fill="#fff"/>
      <polygon id="_--2" data-name="-" points="3.13 13.77 4.95 16.71 23.19 16.71 25 13.77 21.84 10.69 6.3 10.69 3.13 13.77" fill="#002063"/>
      <polygon id="_--3" data-name="-" points="13.8 3.4 14.33 3.4 14.07 3.13 13.8 3.4" fill="#002063"/>
      <polygon id="_--4" data-name="-" points="4.34 80.44 23.8 80.44 23.23 73.14 4.91 73.14 4.34 80.44" fill="#fff"/>
      <polygon id="_--5" data-name="-" points="6.51 52.54 21.62 52.54 21.06 45.24 7.08 45.24 6.51 52.54" fill="#fff"/>
      <polygon id="_--6" data-name="-" points="7.6 38.59 20.54 38.59 19.97 31.29 8.17 31.29 7.6 38.59" fill="#fff"/>
      <polygon id="_--7" data-name="-" points="5.42 66.49 22.71 66.49 22.14 59.19 5.99 59.19 5.42 66.49" fill="#fff"/>
      <polygon id="_--8" data-name="-" points="8.81 23.01 8.69 24.64 19.45 24.64 19.32 23.01 23.19 16.71 4.95 16.71 8.81 23.01" fill="#fff"/>
      <polygon id="_--9" data-name="-" points="3.87 86.46 24.27 86.46 23.8 80.44 4.34 80.44 3.87 86.46" fill="#002063"/>
      <polygon id="_--10" data-name="-" points="4.91 73.14 23.23 73.14 22.71 66.49 5.42 66.49 4.91 73.14" fill="#002063"/>
      <polygon id="_--11" data-name="-" points="5.99 59.19 22.14 59.19 21.62 52.54 6.51 52.54 5.99 59.19" fill="#002063"/>
      <polygon id="_--12" data-name="-" points="7.08 45.24 21.06 45.24 20.54 38.59 7.6 38.59 7.08 45.24" fill="#002063"/>
      <polygon id="_--13" data-name="-" points="8.17 31.29 19.97 31.29 19.45 24.64 8.69 24.64 8.17 31.29" fill="#002063"/>
      <polygon id="_--14" data-name="-" points="3.72 88.36 10.93 94.39 17.21 94.39 24.42 88.36 24.27 86.46 3.87 86.46 3.72 88.36" fill="#fff"/>
      <polygon id="_--15" data-name="-" points="14.07 97.01 17.21 94.39 10.93 94.39 14.07 97.01" fill="#002063"/>
    </g>
    <polygon id="line" points="14.07 23.01 8.81 23.01 3.13 13.77 14.07 3.13 25 13.77 19.32 23.01 14.07 23.01 8.81 23.01 3.72 88.36 14.07 97.01 24.42 88.36 19.32 23.01 14.07 23.01" fill="none" stroke="#231815" stroke-linecap="round" stroke-linejoin="round" stroke-width="6.27"/>
  </g>
</svg>
