<svg id="accneck_ts" xmlns="http://www.w3.org/2000/svg" viewBox="0 0 49.35 55.76">
  <title>accneck_ts0002</title>
  <g id="accneck_ts0002">
    <path id="l" d="M212.3,329.4c-11.65,0-24.68-11.24-24.68-26.28a3.13,3.13,0,1,1,6.27,0c0,11.08,10.07,20,18.41,20s18.41-8.93,18.41-20a3.13,3.13,0,1,1,6.27,0C237,318.16,223.95,329.4,212.3,329.4Z" transform="translate(-187.62 -299.99)" fill="#231815"/>
    <polygon id="star" points="24.68 29.53 29.07 36.83 37.37 38.75 31.78 45.19 32.52 53.67 24.68 50.35 16.83 53.67 17.57 45.19 11.98 38.75 20.28 36.83 24.68 29.53" fill="#ffe200" stroke="#231815" stroke-linecap="round" stroke-linejoin="round" stroke-width="4.18"/>
    <ellipse id="o" cx="24.68" cy="27.9" rx="3.23" ry="4.04" fill="#fff" stroke="#231815" stroke-linecap="round" stroke-linejoin="round" stroke-width="4.18"/>
  </g>
</svg>
