<svg id="accneck" xmlns="http://www.w3.org/2000/svg" viewBox="0 0 397.2 120.4">
  <title>accneck_pn0015</title>
  <g id="accneck_pn0015">
    <g id="side">
      <path id="red" d="M-82.4,313s35.9,1.5,88.3-22.8c75.2-35,133-5,133-5l-1.6,31.1S86,292.8,19.9,332.7c-54.5,32.8-87.1,34.8-102.3,34.8Z" transform="translate(86.6 -268.9)" style="fill: #c30d23"/>
      <polygon id="w4" points="4.2 100 20.5 98 20.5 44.3 5.2 45.3 4.2 100" style="fill: #fff"/>
      <polygon id="w3" points="52.8 90.2 85.1 77.2 85.1 23.3 52.8 35.3 52.8 90.2" style="fill: #fff"/>
      <polygon id="w2" points="117.4 58.2 149.7 46.2 149.7 3.3 117.4 11.3 117.4 58.2" style="fill: #fff"/>
      <polygon id="w1" points="182 42.2 214.4 45.2 214.4 11.3 182 3.3 182 42.2" style="fill: #fff"/>
      <path id="line" d="M-85.4,370.5a4.3,4.3,0,0,1-1.3-3V313a4.3,4.3,0,0,1,1.3-3.1,4.3,4.3,0,0,1,3.1-1.2c.3,0,35.5,1.2,86.3-22.4,39.8-18.5,74.7-18.9,97.1-16,24.3,3.2,39.1,10.8,39.7,11.1a4.3,4.3,0,0,1,2.3,4l-1.6,31.1a4.3,4.3,0,0,1-6,3.7c-.1-.1-12.6-5.6-32.8-6.4-18.6-.7-47.6,2.6-80.7,22.6C-36.6,371.7-71,371.7-82.4,371.7A4.3,4.3,0,0,1-85.4,370.5Zm189-65.2a114.8,114.8,0,0,1,29.8,5l1.2-22.4a132.2,132.2,0,0,0-34.8-9.1C78.6,276,45.5,276.4,7.8,294c-42.8,19.9-74.5,22.8-85.9,23.2v45.9c13.8-.4,45.3-3.7,95.8-34.1,32.1-19.3,60.8-23.9,80.6-23.9Z" transform="translate(86.6 -268.9)" style="fill: #231815"/>
    </g>
    <g id="bt">
      <g id="red-2" data-name="red">
        <path d="M246.1,371.3a5.3,5.3,0,0,0,5.3,5.4h40.4a4.9,4.9,0,0,0,5-5.4l-4.7-62a5.9,5.9,0,0,0-5.8-5.4H252.5a5.5,5.5,0,0,0-5.5,5.4Z" transform="translate(86.6 -268.9)" style="fill: #c30d23"/>
      </g>
      <rect id="w" x="258.3" y="340.5" width="25.3" height="46.83" transform="translate(-6.3 366) rotate(-90)" style="fill: #fff"/>
      <path d="M244.6,378.1a9.5,9.5,0,0,0,4.7,2.6v5.4a3.1,3.1,0,0,0,6.3,0v-5.2h3.3v5.2a3.1,3.1,0,0,0,6.3,0v-5.2h3.3v5.2a3.1,3.1,0,0,0,6.3,0v-5.2h3.3v5.2a3.1,3.1,0,0,0,6.3,0v-5.2h3.3v5.2a3.1,3.1,0,0,0,6.3,0v-5.4a9.2,9.2,0,0,0,7.2-9.7l-4.7-62a10.3,10.3,0,0,0-10.1-9.3H252.5a9.8,9.8,0,0,0-9.7,9.6l-.9,62A9.5,9.5,0,0,0,244.6,378.1Zm48-6.5a.7.7,0,0,1-.2.6l-.5.2H251.4a1,1,0,0,1-1-1l.9-62a1.2,1.2,0,0,1,1.2-1.2h33.8a1.6,1.6,0,0,1,1.5,1.4Z" transform="translate(86.6 -268.9)" style="fill: #231815"/>
    </g>
    <g id="front">
      <path id="red-3" data-name="red" d="M217.7,277.4c-15.7,0-71.3-1.7-78.7,2.4-9.3,5.1-6.4,14.3-8.9,23.6-3.1,11.1,1.2,15.5,7.3,18.6,16,8,64.2,10.6,80.3,10.6s64.3-2.5,80.3-10.6c6.1-3.1,10.4-7.5,7.3-18.6-2.6-9.2.3-18.4-8.9-23.6C289,275.7,233.4,277.4,217.7,277.4Z" transform="translate(86.6 -268.9)" style="fill: #c30d23"/>
      <polygon id="w3-2" data-name="w3" points="235.8 57.9 268.2 60.9 268.2 9.1 235.8 9.1 235.8 57.9" style="fill: #fff"/>
      <rect id="w2-2" data-name="w2" x="213.8" y="278" width="32.3" height="52.83" transform="translate(546.6 340) rotate(-180)" style="fill: #fff"/>
      <polygon id="w1-2" data-name="w1" points="365.1 56.9 390.6 51.7 390.3 13.7 365.1 8.1 365.1 56.9" style="fill: #fff"/>
      <path id="line-2" data-name="line" d="M135.4,325.8c-6.1-3-13.6-8.8-9.5-23.6a44.8,44.8,0,0,0,1.2-7.5c.6-6.5,1.4-14,9.8-18.6,5.9-3.3,28.6-3.6,68.5-3h24.5c39.9-.6,62.6-.2,68.5,3,8.4,4.7,9.2,12.1,9.8,18.6a44.8,44.8,0,0,0,1.2,7.5c4.1,14.8-3.5,20.5-9.5,23.6-18,9.1-70.3,11-82.2,11S153.5,334.8,135.4,325.8ZM230,281.5H205.3c-17.6-.2-58.9-.8-64.3,2s-4.8,5.6-5.4,12a52.1,52.1,0,0,1-1.4,9c-2.5,9,.7,11.4,5.1,13.7,14.1,7.1,58.7,10.1,78.4,10.1s64.3-3.1,78.4-10.1c4.4-2.2,7.6-4.6,5.1-13.7a52.2,52.2,0,0,1-1.4-9c-.6-6.4-1.1-9.6-5.4-12s-21.6-2.2-38.8-2.2Z" transform="translate(86.6 -268.9)" style="fill: #231815"/>
    </g>
  </g>
</svg>
