<svg id="accneck" xmlns="http://www.w3.org/2000/svg" viewBox="0 0 397.2 120.4">
  <title>accneck_pn0014</title>
  <g id="accneck_pn0014">
    <g id="side">
      <path id="red" d="M516.3,313s-35.9,1.5-88.3-22.8c-75.2-35-133-5-133-5l1.6,31.1s51.3-23.4,117.4,16.4c54.5,32.8,87.1,34.8,102.3,34.8Z" transform="translate(-123.4 -268.9)" style="fill: #c30d23"/>
      <polygon id="w4" points="393.1 100 376.8 98 376.8 44.3 392.1 45.3 393.1 100" style="fill: #fff"/>
      <polygon id="w3" points="344.5 90.2 312.1 77.2 312.1 23.3 344.5 35.3 344.5 90.2" style="fill: #fff"/>
      <polygon id="w2" points="279.8 58.2 247.5 46.2 247.5 3.3 279.8 11.3 279.8 58.2" style="fill: #fff"/>
      <polygon id="w1" points="215.2 42.2 182.9 45.2 182.9 11.3 215.2 3.3 215.2 42.2" style="fill: #fff"/>
      <path id="line" d="M516.3,371.7c-11.3,0-45.8,0-104.5-35.4-33.1-19.9-62.1-23.3-80.7-22.6-20.1.8-32.6,6.3-32.8,6.4a4.3,4.3,0,0,1-6-3.7l-1.6-31.1a4.3,4.3,0,0,1,2.3-4c.6-.3,15.4-7.9,39.7-11.1,22.3-2.9,57.3-2.5,97.1,16,50.9,23.7,86,22.5,86.3,22.4a4.3,4.3,0,0,1,3.1,1.2,4.3,4.3,0,0,1,1.3,3.1v54.5a4.3,4.3,0,0,1-4.3,4.3ZM335.6,305.1c19.8,0,48.5,4.5,80.6,23.9,50.5,30.4,81.9,33.7,95.8,34.1V317.2c-11.3-.4-43.1-3.3-85.9-23.2-37.8-17.6-70.8-18-91.9-15.3a132.2,132.2,0,0,0-34.8,9.1l1.2,22.4a114.8,114.8,0,0,1,29.8-5Z" transform="translate(-123.4 -268.9)" style="fill: #231815"/>
    </g>
    <g id="bt">
      <g id="red-2" data-name="red">
        <path d="M187.8,371.3a5.3,5.3,0,0,1-5.3,5.4H142.1a4.9,4.9,0,0,1-5-5.4l4.7-62a5.9,5.9,0,0,1,5.8-5.4h33.8a5.5,5.5,0,0,1,5.5,5.4Z" transform="translate(-123.4 -268.9)" style="fill: #c30d23"/>
      </g>
      <rect id="w" x="150.3" y="340.5" width="25.3" height="46.83" transform="translate(-324.3 258) rotate(-90)" style="fill: #fff"/>
      <path d="M192.1,371.2l-.9-62a9.8,9.8,0,0,0-9.7-9.6H147.6a10.3,10.3,0,0,0-10.1,9.3l-4.7,62a9.2,9.2,0,0,0,7.2,9.7v5.4a3.1,3.1,0,1,0,6.3,0v-5.2h3.3v5.2a3.1,3.1,0,1,0,6.3,0v-5.2h3.3v5.2a3.1,3.1,0,0,0,6.3,0v-5.2h3.3v5.2a3.1,3.1,0,0,0,6.3,0v-5.2h3.3v5.2a3.1,3.1,0,0,0,6.3,0v-5.4a9.6,9.6,0,0,0,7.5-9.5Zm-46-61.6a1.6,1.6,0,0,1,1.5-1.4h33.8a1.2,1.2,0,0,1,1.2,1.2l.9,62a1,1,0,0,1-1,1H142.1l-.5-.2a.7.7,0,0,1-.2-.6Z" transform="translate(-123.4 -268.9)" style="fill: #231815"/>
    </g>
    <g id="front">
      <path id="red-3" data-name="red" d="M216.3,277.4c15.7,0,71.3-1.7,78.7,2.4,9.3,5.1,6.4,14.3,8.9,23.6,3.1,11.1-1.2,15.5-7.3,18.6-16,8-64.2,10.6-80.3,10.6S152,330,136,321.9c-6.1-3.1-10.4-7.5-7.3-18.6,2.6-9.2-.3-18.4,8.9-23.6C145,275.7,200.5,277.4,216.3,277.4Z" transform="translate(-123.4 -268.9)" style="fill: #c30d23"/>
      <polygon id="w3-2" data-name="w3" points="161.4 57.9 129.1 60.9 129.1 9.1 161.4 9.1 161.4 57.9" style="fill: #fff"/>
      <rect id="w2-2" data-name="w2" x="64.5" y="9.1" width="32.3" height="52.83" style="fill: #fff"/>
      <polygon id="w1-2" data-name="w1" points="32.1 56.9 6.6 51.7 7 13.7 32.1 8.1 32.1 56.9" style="fill: #fff"/>
      <path id="line-2" data-name="line" d="M216.3,336.8c-12,0-64.2-2-82.2-11-6-3-13.6-8.8-9.5-23.6a44.8,44.8,0,0,0,1.2-7.5c.6-6.5,1.4-14,9.8-18.6,5.9-3.3,28.7-3.6,68.5-3h24.5c39.9-.6,62.6-.2,68.5,3,8.4,4.7,9.2,12.1,9.8,18.6a44.8,44.8,0,0,0,1.2,7.5c4.1,14.8-3.5,20.5-9.5,23.6C280.5,334.8,228.2,336.8,216.3,336.8Zm-37.8-55.4c-17.2,0-35.4.4-38.8,2.2s-4.8,5.6-5.4,12a52.2,52.2,0,0,1-1.4,9c-2.5,9,.7,11.4,5.1,13.7,14.1,7.1,58.7,10.1,78.4,10.1s64.3-3.1,78.4-10.1c4.4-2.2,7.6-4.6,5.1-13.7a52.1,52.1,0,0,1-1.4-9c-.6-6.4-1.1-9.6-5.4-12s-46.7-2.2-64.3-2H203.9Z" transform="translate(-123.4 -268.9)" style="fill: #231815"/>
    </g>
  </g>
</svg>
