<svg id="accneck" xmlns="http://www.w3.org/2000/svg" viewBox="0 0 110.8 107.82">
  <title>accneck_0011</title>
  <g id="accneck_0011">
    <g id="_" data-name="&apos;&apos;&apos;&apos;&apos;">
      <path id="_5" data-name="5" d="M268.07,362.73c-2,1.67-3.67,1.55-5.55-.12l-5-4.47c-1.88-1.67-2.51-4.28-1.4-5.79l.13-.17c1.11-1.51,3.55-1.38,5.42.3l5,4.47C268.54,358.61,270,360.66,268.07,362.73Z" transform="translate(-161.81 -279.35)" fill="#231815"/>
      <path id="_4" data-name="4" d="M262.15,368.75c-1.93,1.62-3.58,1.47-5.47-.19l-5-4.45c-1.88-1.66-2.56-4.23-1.51-5.69l.12-.17c1.06-1.47,3.46-1.3,5.35.36l5,4.45C262.53,364.73,264,366.76,262.15,368.75Z" transform="translate(-161.81 -279.35)" fill="#231815"/>
      <path id="_3" data-name="3" d="M256.53,375c-2,1.73-3.76,1.61-5.69-.09l-5.16-4.55c-1.93-1.7-2.59-4.37-1.46-5.92l.13-.18c1.13-1.56,3.63-1.44,5.56.27l5.16,4.55C257,370.79,258.45,372.88,256.53,375Z" transform="translate(-161.81 -279.35)" fill="#231815"/>
      <path id="_2" data-name="2" d="M250.68,380.93c-1.94,1.59-3.59,1.42-5.45-.26l-5-4.51c-1.87-1.69-2.52-4.25-1.45-5.7l.12-.17c1.07-1.45,3.47-1.25,5.33.43l5,4.51C251.09,376.92,252.5,379,250.68,380.93Z" transform="translate(-161.81 -279.35)" fill="#231815"/>
      <path id="_1" data-name="1" d="M244.77,386.08c-2,1.59-3.66,1.4-5.52-.32l-5-4.62c-1.85-1.73-2.46-4.33-1.35-5.79l.13-.17c1.11-1.46,3.54-1.24,5.39.49l5,4.62C245.27,382,246.66,384.1,244.77,386.08Z" transform="translate(-161.81 -279.35)" fill="#231815"/>
    </g>
    <rect id="b" x="4.86" y="4" width="101.33" height="32.62" rx="16.31" ry="16.31" fill="#393534" stroke="#231815" stroke-miterlimit="10" stroke-width="8"/>
    <path id="r" d="M229.83,378.33c9.5-.17,28.67-21,29.67-27.67s-7.33-10.83-18-21.35c-16.33-16.13-42.85-41.78-46.19-43.48A20,20,0,0,0,171,290.17c-6.62,7.06-7,15.86-2.16,24.25C175.17,325.33,220.33,378.5,229.83,378.33Z" transform="translate(-161.81 -279.35)" fill="#393534" stroke="#231815" stroke-miterlimit="10" stroke-width="7.5"/>
    <path id="l" d="M261.57,317l-38.91,41.72c-4.83,6.1-8.16,9.6-14.5,8.6-5.67-.5-15.5-8-20.83-16s-4.39-16.07,3.53-23.22l45-40.6c5.78-5.84,21.66-5.66,28,1.42C272,298.06,269.51,306.36,261.57,317Z" transform="translate(-161.81 -279.35)" fill="#393534" stroke="#231815" stroke-miterlimit="10" stroke-width="7.5"/>
  </g>
</svg>
