<svg id="accneck" xmlns="http://www.w3.org/2000/svg" viewBox="0 0 49.36 56.85">
  <title>accneck_mm0001</title>
  <g id="accneck_mm0001">
    <path id="heart" d="M227.66,336.18a6.61,6.61,0,0,0-11.26-4.7,6.61,6.61,0,0,0-11.25,4.7,6.52,6.52,0,0,0,.36,2.06c1.72,6.57,10.9,11.34,10.9,11.34s9.17-4.77,10.89-11.34A6.53,6.53,0,0,0,227.66,336.18Z" transform="translate(-191.73 -294.82)" fill="#ef8baa" stroke="#231815" stroke-linecap="round" stroke-linejoin="round" stroke-width="4.18"/>
    <path id="U" d="M237.95,298c0,12.78-11.27,23.15-21.54,23.15S194.86,310.74,194.86,298" transform="translate(-191.73 -294.82)" fill="none" stroke="#231815" stroke-linecap="round" stroke-linejoin="round" stroke-width="6.27"/>
    <ellipse id="o" cx="24.68" cy="27.9" rx="3.23" ry="4.04" fill="#fff" stroke="#231815" stroke-linecap="round" stroke-linejoin="round" stroke-width="4.18"/>
  </g>
</svg>
