<svg xmlns="http://www.w3.org/2000/svg" viewBox="0 0 37.2 38.05"><defs><style>.cls-1{isolation:isolate;}.cls-2{opacity:0.4;}.cls-2,.cls-3{mix-blend-mode:multiply;}.cls-3{opacity:0.55;}.cls-4{fill:#ef8baa;}.cls-5{fill:#231815;}</style></defs><title>eye_0029_left</title><g class="cls-1"><g id="eye_0029"><g id="eye_0029_left"><g id="c" class="cls-2"><g id="p" class="cls-3"><path id="b" class="cls-4" d="M152.54,225.48s-19.3-13.16-28-2.94c-5.84,6.89-4,25.58,22.18,30.79C158.17,255.6,152.54,225.48,152.54,225.48Z" transform="translate(-121.86 -218.65)"/></g></g><path id="o" class="cls-5" d="M146.89,223.56a9.67,9.67,0,0,0-5.58,1.82,9.26,9.26,0,0,1-4.07-3.78,2.09,2.09,0,0,0-3.74,1.86,13,13,0,0,0,4.71,5,16.56,16.56,0,0,0-1.35,2.19,9.21,9.21,0,0,1-4.55-4,2.09,2.09,0,0,0-3.74,1.86,13.2,13.2,0,0,0,6.81,6,21.87,21.87,0,0,0-.73,5.54c0,9.15,5.43,16.59,12.18,16.61s12.21-7.38,12.23-16.53S153.63,223.59,146.89,223.56Z" transform="translate(-121.86 -218.65)"/></g></g></g></svg>