<svg id="eye_0007" xmlns="http://www.w3.org/2000/svg" viewBox="0 0 30.22 36.62"><defs><style>.cls-1{fill:#231815;}.cls-2{fill:#2ea7e0;}.cls-3{fill:#fff;}</style></defs><title>eye_0007_left</title><g id="eye_0007_left"><path id="_" data-name="&apos;" class="cls-1" d="M141.7,232.09h-.13a11.29,11.29,0,0,1-10.21-7.93,2.18,2.18,0,0,1,.92-2.52,2.09,2.09,0,0,1,3.07,1.28,7.11,7.11,0,0,0,6.4,5,2.15,2.15,0,0,1,2,1.62A2.09,2.09,0,0,1,141.7,232.09Z" transform="translate(-131.26 -220.78)"/><path id="_0" data-name="0" class="cls-2" d="M158.35,239.06c0,8.38-5,15.19-11.15,15.22S136,247.52,136,239.13s5-15.19,11.15-15.21,11.19,6.76,11.21,15.14" transform="translate(-131.26 -220.78)"/><path id="o" class="cls-1" d="M147.18,257.41c-4,0-7.7-2-10.42-5.69a21.28,21.28,0,0,1-3.91-12.58c0-10.09,6.38-18.32,14.27-18.35h0c7.88,0,14.3,8.19,14.33,18.26h0c0,10.09-6.38,18.33-14.27,18.36Zm0-30.35h0c-4.36,0-8,5.54-8,12.07a15,15,0,0,0,2.68,8.86,6.86,6.86,0,0,0,5.37,3.15h0c4.36,0,8-5.55,8-12.08h0C155.2,232.55,151.51,227.05,147.16,227.05Z" transform="translate(-131.26 -220.78)"/><g id="_2" data-name="+"><path id="_3" data-name="3" class="cls-3" d="M149.71,237.11c.63,2.77,1.81,4.83,3.71,6-1.9,1.16-3.08,3.22-3.71,6-.63-2.76-1.81-4.83-3.7-6C147.91,241.94,149.08,239.88,149.71,237.11Z" transform="translate(-131.26 -220.78)"/><path id="_2-2" data-name="2" class="cls-3" d="M150.12,231.75a2.67,2.67,0,1,1-2.09-2.1A2.67,2.67,0,0,1,150.12,231.75Z" transform="translate(-131.26 -220.78)"/><circle id="_1" data-name="1" class="cls-3" cx="11.6" cy="18.66" r="1.55"/></g></g></svg>