<svg id="eye_0007" xmlns="http://www.w3.org/2000/svg" viewBox="0 0 30.25 36.62"><defs><style>.cls-1{fill:none;stroke-linecap:round;stroke-linejoin:round;stroke-width:4.18px;}.cls-1,.cls-2{stroke:#231815;}.cls-2{fill:#2ea7e0;stroke-miterlimit:10;stroke-width:6.27px;}.cls-3{fill:#fff;}</style></defs><title>eye_0007_right</title><g id="eye_0007_right"><path id="_" data-name="&apos;" class="cls-1" d="M263.08,223.44a9.2,9.2,0,0,0,8.36,6.56" transform="translate(-260.99 -220.78)"/><path id="o" class="cls-2" d="M288.1,239.06c0,8.38-5,15.19-11.15,15.22s-11.19-6.76-11.21-15.14,5-15.19,11.15-15.21,11.19,6.76,11.21,15.14" transform="translate(-260.99 -220.78)"/><g id="_2" data-name="+"><path id="_3" data-name="3" class="cls-3" d="M279.46,237.11c.63,2.77,1.81,4.83,3.71,6-1.9,1.16-3.08,3.22-3.71,6-.63-2.76-1.81-4.83-3.7-6C277.66,241.94,278.84,239.88,279.46,237.11Z" transform="translate(-260.99 -220.78)"/><path id="_2-2" data-name="2" class="cls-3" d="M279.87,231.75a2.67,2.67,0,1,1-2.09-2.1A2.67,2.67,0,0,1,279.87,231.75Z" transform="translate(-260.99 -220.78)"/><circle id="_1" data-name="1" class="cls-3" cx="11.62" cy="18.66" r="1.55"/></g></g></svg>