<svg id="eye_0006" xmlns="http://www.w3.org/2000/svg" viewBox="0 0 28.53 34.54"><defs><style>.cls-1{fill:#231815;}.cls-2{fill:#fff;}</style></defs><title>eye_0006</title><g id="eye_0006_left"><path id="b" class="cls-1" d="M157.41,228.13a12.42,12.42,0,0,0-9.87-5.38h0a12.16,12.16,0,0,0-9.29,4.78,6.62,6.62,0,0,1-1.54-2.63,2.09,2.09,0,0,0-4,1.05,10.74,10.74,0,0,0,3.33,5.16,20.78,20.78,0,0,0-2,8.94,20,20,0,0,0,3.68,11.85,12.42,12.42,0,0,0,9.88,5.39h0c7.47,0,13.53-7.8,13.51-17.32A20,20,0,0,0,157.41,228.13Z" transform="translate(-132.56 -222.75)"/><path id="b-2" data-name="b" class="cls-1" d="M157.41,228.13a12.42,12.42,0,0,0-9.87-5.38h0a12.16,12.16,0,0,0-9.29,4.78,6.62,6.62,0,0,1-1.54-2.63,2.09,2.09,0,0,0-4,1.05,10.74,10.74,0,0,0,3.33,5.16,20.78,20.78,0,0,0-2,8.94,20,20,0,0,0,3.68,11.85,12.42,12.42,0,0,0,9.88,5.39h0c7.47,0,13.53-7.8,13.51-17.32A20,20,0,0,0,157.41,228.13Z" transform="translate(-132.56 -222.75)"/><path class="cls-2" d="M150.1,238.09c.62,2.71,1.77,4.73,3.63,5.86-1.86,1.13-3,3.15-3.63,5.86-.61-2.71-1.77-4.73-3.63-5.86C148.33,242.82,149.49,240.8,150.1,238.09Z" transform="translate(-132.56 -222.75)"/><circle class="cls-2" cx="15.37" cy="10.59" r="2.62"/><circle class="cls-2" cx="10.82" cy="17.62" r="1.52"/></g></svg>