<svg id="eye_0003" xmlns="http://www.w3.org/2000/svg" viewBox="0 0 26.5 37.08"><defs><style>.cls-1{fill:#231815;}</style></defs><title>eye_0003_left</title><path id="eye_0003_left" class="cls-1" d="M147.17,222.47a9.18,9.18,0,0,0-2.86.47,9.18,9.18,0,0,1-1.49-2.85,2.09,2.09,0,0,0-4,1,12.33,12.33,0,0,0,1.88,3.89,13.68,13.68,0,0,0-2,2.12A9.16,9.16,0,0,1,137,224a2.09,2.09,0,0,0-4,1,13.07,13.07,0,0,0,3.6,5.87,21.23,21.23,0,0,0-1.57,8.07c0,9.15,5.43,16.59,12.17,16.61s12.22-7.38,12.23-16.53S153.92,222.49,147.17,222.47Z" transform="translate(-132.84 -218.52)"/></svg>