<svg id="eye_0019" xmlns="http://www.w3.org/2000/svg" viewBox="0 0 39.25 23.03"><defs><style>.cls-1{fill:#231815;}</style></defs><title>eye_0019_right</title><path id="eye_0019_right" class="cls-1" d="M294,229.68a2.09,2.09,0,0,0-3-.19l-4.15,3.65a19.56,19.56,0,0,0-2-2l3-4.48a2.09,2.09,0,0,0-3.46-2.34l-3.06,4.53a17.36,17.36,0,0,0-3.2-1.2l1.42-4.21a2.09,2.09,0,1,0-4-1.33L274,227.07l-.81,0c-13.17,0-17.52,12-17.7,12.54a3.14,3.14,0,0,0,5.91,2.08c.12-.34,3.12-8.35,11.79-8.35s11.67,8,11.79,8.34a3.13,3.13,0,1,0,5.92-2.07,18.4,18.4,0,0,0-1.48-3l4.43-3.91A2.09,2.09,0,0,0,294,229.68Z" transform="translate(-255.31 -220.72)"/></svg>