<svg xmlns="http://www.w3.org/2000/svg" viewBox="0 0 37.2 38.05"><defs><style>.cls-1{isolation:isolate;}.cls-2{opacity:0.4;}.cls-2,.cls-3{mix-blend-mode:multiply;}.cls-3{opacity:0.55;}.cls-4{fill:#ef8baa;}.cls-5{fill:#231815;}</style></defs><title>eye_0029_right</title><g class="cls-1"><g id="eye_0029"><g id="eye_0029_right"><g id="c" class="cls-2"><g id="p" class="cls-3"><path id="b" class="cls-4" d="M271,225.48s19.3-13.16,28-2.94c5.84,6.89,4,25.58-22.18,30.79C265.35,255.6,271,225.48,271,225.48Z" transform="translate(-264.46 -218.65)"/></g></g><path id="o" class="cls-5" d="M294,225.71a2.09,2.09,0,0,0-2.8.95,9.19,9.19,0,0,1-4.54,4,16.54,16.54,0,0,0-1.35-2.19,13.05,13.05,0,0,0,4.71-5,2.09,2.09,0,0,0-3.74-1.87,9.27,9.27,0,0,1-4.07,3.78,9.67,9.67,0,0,0-5.58-1.83c-6.74,0-12.19,7.46-12.17,16.61s5.49,16.55,12.23,16.53,12.2-7.47,12.18-16.61a21.87,21.87,0,0,0-.73-5.54,13.2,13.2,0,0,0,6.81-6A2.09,2.09,0,0,0,294,225.71Z" transform="translate(-264.46 -218.65)"/></g></g></g></svg>