<svg id="eye_0019" xmlns="http://www.w3.org/2000/svg" viewBox="0 0 39.25 23.03"><defs><style>.cls-1{fill:#231815;}</style></defs><title>eye_0019_left</title><path id="eye_0019_left" class="cls-1" d="M168.76,239.58c-.18-.51-4.53-12.54-17.7-12.54l-.81,0-1.65-4.92a2.09,2.09,0,1,0-4,1.33l1.42,4.21a17.36,17.36,0,0,0-3.2,1.2l-3.06-4.53a2.09,2.09,0,0,0-3.46,2.34l3,4.48a19.54,19.54,0,0,0-2,2l-4.15-3.65a2.09,2.09,0,0,0-2.76,3.14l4.43,3.91a18.43,18.43,0,0,0-1.48,3,3.14,3.14,0,0,0,5.91,2.08c.12-.34,3.12-8.35,11.79-8.35s11.66,8,11.79,8.35a3.14,3.14,0,0,0,5.91-2.08Z" transform="translate(-129.69 -220.72)"/></svg>