<svg xmlns="http://www.w3.org/2000/svg" viewBox="0 0 37.2 38.05"><defs><style>.cls-1{isolation:isolate;}.cls-2{opacity:0.55;mix-blend-mode:multiply;}.cls-3{fill:#00a0e9;}.cls-4{fill:#231815;}</style></defs><title>eye_0030_left</title><g class="cls-1"><g id="eye_0030"><g id="eye_0030_left"><g id="c" class="cls-2"><g id="bl" class="cls-2"><path id="b" class="cls-3" d="M153.07,224.47s-19.3-13.16-28-2.94c-5.84,6.89-4,25.58,22.18,30.79C158.7,254.59,153.07,224.47,153.07,224.47Z" transform="translate(-122.39 -217.64)"/></g></g><path id="o" class="cls-4" d="M147.42,222.55a9.67,9.67,0,0,0-5.58,1.82,9.25,9.25,0,0,1-4.06-3.78,2.09,2.09,0,0,0-3.74,1.86,13,13,0,0,0,4.71,5,16.54,16.54,0,0,0-1.35,2.19,9.21,9.21,0,0,1-4.55-4,2.09,2.09,0,0,0-3.74,1.86,13.2,13.2,0,0,0,6.81,6,21.87,21.87,0,0,0-.73,5.54c0,9.15,5.43,16.59,12.18,16.61s12.22-7.38,12.23-16.53S154.16,222.58,147.42,222.55Z" transform="translate(-122.39 -217.64)"/></g></g></g></svg>