<svg xmlns="http://www.w3.org/2000/svg" viewBox="0 0 37.2 38.05"><defs><style>.cls-1{isolation:isolate;}.cls-2{opacity:0.55;mix-blend-mode:multiply;}.cls-3{fill:#00a0e9;}.cls-4{fill:#231815;}</style></defs><title>eye_0030_right</title><g class="cls-1"><g id="eye_0030"><g id="eye_0030_right"><g id="c" class="cls-2"><g id="bl" class="cls-2"><path id="b" class="cls-3" d="M271.5,224.47s19.31-13.16,28-2.94c5.84,6.89,4,25.58-22.18,30.79C265.88,254.59,271.5,224.47,271.5,224.47Z" transform="translate(-264.99 -217.64)"/></g></g><path id="o" class="cls-4" d="M294.53,224.71a2.09,2.09,0,0,0-2.8.95,9.21,9.21,0,0,1-4.54,4,16.55,16.55,0,0,0-1.35-2.19,13,13,0,0,0,4.71-5,2.09,2.09,0,0,0-3.75-1.85,9.24,9.24,0,0,1-4.06,3.77,9.67,9.67,0,0,0-5.58-1.83c-6.74,0-12.19,7.46-12.17,16.61s5.49,16.55,12.23,16.53,12.2-7.47,12.18-16.61a21.86,21.86,0,0,0-.73-5.54,13.21,13.21,0,0,0,6.81-6A2.09,2.09,0,0,0,294.53,224.71Z" transform="translate(-264.99 -217.64)"/></g></g></g></svg>