<svg id="eye_0003" xmlns="http://www.w3.org/2000/svg" viewBox="0 0 26.5 37.08"><defs><style>.cls-1{fill:#231815;}</style></defs><title>eye_0003_right</title><path id="eye_0003_right" class="cls-1" d="M291.19,225a2.09,2.09,0,0,0-4-1,9.19,9.19,0,0,1-1.71,3.12,13.67,13.67,0,0,0-2-2.11,12.32,12.32,0,0,0,1.88-3.89,2.09,2.09,0,1,0-4-1,9.12,9.12,0,0,1-1.49,2.84,9.18,9.18,0,0,0-2.86-.47c-6.74,0-12.19,7.46-12.17,16.61s5.49,16.55,12.23,16.53,12.2-7.47,12.17-16.61a21.22,21.22,0,0,0-1.57-8.07A13.06,13.06,0,0,0,291.19,225Z" transform="translate(-264.75 -218.52)"/></svg>