<svg id="eyebrow_0018" xmlns="http://www.w3.org/2000/svg" viewBox="0 0 36.73 17.03"><defs><style>.cls-1{fill:#231815;}</style></defs><title>eyebrow_0018_right</title><g id="eyebrow_0018_right"><path class="cls-1" d="M257.94,224.53a22.25,22.25,0,0,1,2.55-5.44,23.23,23.23,0,0,1,4-4.66,18.56,18.56,0,0,1,5.42-3.42,16.8,16.8,0,0,1,12.92,0,18.46,18.46,0,0,1,5.37,3.45,23.08,23.08,0,0,1,3.89,4.68,22,22,0,0,1,2.49,5.43,1.53,1.53,0,0,1-2.7,1.35l-.09-.11a32.88,32.88,0,0,0-7.05-7.07,17.2,17.2,0,0,0-4.08-2.06c-.36-.1-.7-.21-1.05-.32s-.72-.12-1.07-.19l-.53-.11-.55,0-1.09-.06-1.09.08-.54,0-.53.11c-.35.07-.71.12-1.07.2s-.69.23-1,.33a17.19,17.19,0,0,0-4,2.1,33,33,0,0,0-6.93,7.08l-.1.13a1.74,1.74,0,0,1-3.06-1.54Z" transform="translate(-257.87 -209.74)"/></g></svg>