<svg id="eye" xmlns="http://www.w3.org/2000/svg" viewBox="0 0 30.2 36.6">
  <title>eyebrow_0007_right</title>
  <g id="eye_0007">
    <g id="eyebrow_0007_right">
      <path id="_" data-name="&apos;" d="M263.1,223.4a9.2,9.2,0,0,0,8.4,6.6" transform="translate(-261 -220.8)" style="fill: none;stroke: #231815;stroke-linecap: round;stroke-linejoin: round;stroke-width: 4.18px"/>
      <path id="o" d="M288.1,239.1c0,8.4-5,15.2-11.2,15.2s-11.2-6.8-11.2-15.1,5-15.2,11.1-15.2,11.2,6.8,11.2,15.1" transform="translate(-261 -220.8)" style="fill: #2ea7e0;stroke: #231815;stroke-miterlimit: 10;stroke-width: 6.2700000000000005px"/>
      <g id="_2" data-name="+">
        <path id="_3" data-name="3" d="M279.5,237.1c.6,2.8,1.8,4.8,3.7,6-1.9,1.2-3.1,3.2-3.7,6-.6-2.8-1.8-4.8-3.7-6C277.7,241.9,278.8,239.9,279.5,237.1Z" transform="translate(-261 -220.8)" style="fill: #fff"/>
        <circle id="_2-2" data-name="2" cx="16.3" cy="11.5" r="2.7" style="fill: #fff"/>
        <circle id="_1" data-name="1" cx="11.6" cy="18.7" r="1.5" style="fill: #fff"/>
      </g>
    </g>
  </g>
</svg>
