<svg id="eyebrow_0025" xmlns="http://www.w3.org/2000/svg" viewBox="0 0 52.62 20.51"><defs><style>.cls-1{fill:#231815;stroke:#231815;stroke-linecap:round;stroke-linejoin:round;stroke-width:6.27px;}</style></defs><title>eyebrow_0025_left</title><path id="eyebrow_0025_left" class="cls-1" d="M124,212.89a6.1,6.1,0,0,0,3.86-1.26,5.92,5.92,0,0,1,3.86-1.26,5.81,5.81,0,0,1,3.86,1.26,6.5,6.5,0,0,0,3.86,1.26,5.35,5.35,0,0,0,3.86-1.26,5.81,5.81,0,0,1,3.86-1.26,5.91,5.91,0,0,1,3.86,1.26,6.1,6.1,0,0,0,3.86,1.26,5.92,5.92,0,0,0,3.86-1.26,5.81,5.81,0,0,1,3.86-1.26,5.91,5.91,0,0,1,3.86,1.26,6.1,6.1,0,0,0,3.86,1.26V198.64a6.1,6.1,0,0,0-3.86,1.26,5.91,5.91,0,0,1-3.86,1.26,5.81,5.81,0,0,1-3.86-1.26,5.92,5.92,0,0,0-3.86-1.26A6.1,6.1,0,0,0,151,199.9a5.92,5.92,0,0,1-3.86,1.26,5.81,5.81,0,0,1-3.86-1.26,5.35,5.35,0,0,0-3.86-1.26,6.5,6.5,0,0,0-3.86,1.26,5.81,5.81,0,0,1-3.86,1.26,5.92,5.92,0,0,1-3.86-1.26,6.1,6.1,0,0,0-3.86-1.26Z" transform="translate(-120.84 -195.51)"/></svg>