<svg id="eye" xmlns="http://www.w3.org/2000/svg" viewBox="0 0 36.4 11.3">
  <title>eyebrow_0024_left</title>
  <g id="eyebrow_0024">
    <g id="eyebrow_0024_left">
      <path d="M163.3,223.4a2.1,2.1,0,0,1-2.1-2.1,1.9,1.9,0,0,1,0-.4v-.4l.2-.4.3-.3.3-.3.4-.2h.4a2.1,2.1,0,0,1,1.9.6l.3.3.2.4v.4a1.9,1.9,0,0,1,0,.4,2.1,2.1,0,0,1-2.1,2.1Z" transform="translate(-129 -212.1)" style="fill: #231815"/>
      <path d="M156.7,218.4h0a2.1,2.1,0,0,1-.8-2.8h0a2.1,2.1,0,0,1,2.9-.8h0a2.1,2.1,0,0,1,.8,2.8h0a2.1,2.1,0,0,1-1.8,1.1h0A2,2,0,0,1,156.7,218.4Zm-21.9-.8a2.1,2.1,0,0,1,.8-2.8h0a2.1,2.1,0,0,1,2.8.8h0a2.1,2.1,0,0,1-.8,2.8h0a2,2,0,0,1-1,.3h0A2.1,2.1,0,0,1,134.8,217.6Zm6.6-3.1a2.1,2.1,0,0,1,1.7-2.4h0a2.1,2.1,0,0,1,2.4,1.7h0a2.1,2.1,0,0,1-1.7,2.4h-.3A2.1,2.1,0,0,1,141.5,214.5Zm9,1.7a2.1,2.1,0,0,1-1.7-2.4h0a2.1,2.1,0,0,1,2.4-1.7h0a2.1,2.1,0,0,1,1.7,2.4h0a2.1,2.1,0,0,1-2.1,1.8h-.3Z" transform="translate(-129 -212.1)" style="fill: #231815"/>
      <path d="M131.1,223.4a2.1,2.1,0,0,1-2.1-2.1,1.9,1.9,0,0,1,0-.4v-.4l.2-.4.3-.3a2.1,2.1,0,0,1,1.9-.6h.4l.4.2.3.3.3.3.2.4v.4a2.8,2.8,0,0,1,0,.4,2.1,2.1,0,0,1-.6,1.5A2.1,2.1,0,0,1,131.1,223.4Z" transform="translate(-129 -212.1)" style="fill: #231815"/>
    </g>
  </g>
</svg>
