<svg id="eyebrow_0018" xmlns="http://www.w3.org/2000/svg" viewBox="0 0 36.73 17.03"><defs><style>.cls-1{fill:#231815;}</style></defs><title>eyebrow_0018_left</title><g id="eyebrow_0018_right"><path class="cls-1" d="M163,225.94a32.94,32.94,0,0,0-6.93-7.08,17.18,17.18,0,0,0-4-2.1c-.35-.1-.7-.22-1-.33s-.71-.13-1.07-.2l-.53-.11-.54,0-1.09-.08-1.09.06-.55,0-.53.11c-.36.07-.72.11-1.07.19s-.7.22-1.05.32a17.2,17.2,0,0,0-4.08,2.06,32.9,32.9,0,0,0-7.05,7.07l-.08.11a1.53,1.53,0,0,1-2.7-1.35,22.05,22.05,0,0,1,2.49-5.43,23.08,23.08,0,0,1,3.89-4.68,18.46,18.46,0,0,1,5.37-3.45,16.8,16.8,0,0,1,12.92,0,18.56,18.56,0,0,1,5.42,3.42,23.23,23.23,0,0,1,4,4.66,22.24,22.24,0,0,1,2.55,5.44,1.74,1.74,0,0,1-3.06,1.54Z" transform="translate(-129.51 -209.74)"/></g></svg>