<svg id="hair_0045" xmlns="http://www.w3.org/2000/svg" viewBox="0 0 346.7 393.1">
  <title>hair_0045_back</title>
  <path id="hair_0045_back" d="M215.72,399.45c24.58,21.6,55.66.45,55.66.45,31.56,20.84,53.33-1.78,53.33-1.78,17.18,11,33.63,7.05,43.63-2.69,12.19-11.89,10.29-28.41-.16-42.3-13.49-17.93-9.92-29.73.16-43.39,19.8-26.82,22.29-42.81,4.38-70.25-11.53-17.66-6.7-24.28-6.7-58.63,0-48.93-18.24-119.17-87.37-144.94-35.09-13.08-62.94-11.21-62.94-11.21s-27.85-1.87-62.94,11.21c-69.13,25.77-87.37,96-87.37,144.94,0,34.36,4.83,41-6.7,58.63-17.91,27.43-15.42,43.43,4.38,70.25,10.08,13.66,13.65,25.46.16,43.39C52.8,367,50.9,383.54,63.09,395.43c10,9.75,26.44,13.74,43.63,2.69,0,0,21.77,22.62,53.33,1.78,0,0,31.08,21.15,55.66-.45Z" transform="translate(-42.37 -20.35)" fill="#fff" stroke="#231815" stroke-linecap="round" stroke-linejoin="round" stroke-width="8.55"/>
</svg>
