<svg id="hair_0023" xmlns="http://www.w3.org/2000/svg" viewBox="0 0 382.37 339.13">
  <title>hair_0023_back</title>
  <g id="hair_0023_back">
    <g>
      <path d="M402.14,148.28a51.56,51.56,0,0,0-21.74-42.09A51.63,51.63,0,0,0,340.72,26a51.61,51.61,0,0,0-79.38-41.5,51.63,51.63,0,0,0-92.22,0A51.61,51.61,0,0,0,89.74,26a51.63,51.63,0,0,0-39.67,80.2,51.6,51.6,0,0,0-2,82.72,51.63,51.63,0,0,0,39,64.29,39.12,39.12,0,1,0,60.86-37.88,51.65,51.65,0,0,0-18.23-53.25,51.62,51.62,0,0,0-6.82-42.48,51.56,51.56,0,0,0,21.69-40.09,51.63,51.63,0,0,0,42.85-28.29,51.58,51.58,0,0,0,55.6,0,51.63,51.63,0,0,0,42.84,28.29,51.56,51.56,0,0,0,21.69,40.09,51.62,51.62,0,0,0-6.82,42.47,51.65,51.65,0,0,0-18.23,53.25,39.11,39.11,0,1,0,60.86,37.88,51.63,51.63,0,0,0,39-64.29A51.53,51.53,0,0,0,402.14,148.28Z" transform="translate(-24.05 48.19)" fill="#fff"/>
      <path d="M402.14,148.28a51.56,51.56,0,0,0-21.74-42.09A51.63,51.63,0,0,0,340.72,26a51.61,51.61,0,0,0-79.38-41.5,51.63,51.63,0,0,0-92.22,0A51.61,51.61,0,0,0,89.74,26a51.63,51.63,0,0,0-39.67,80.2,51.6,51.6,0,0,0-2,82.72,51.63,51.63,0,0,0,39,64.29,39.12,39.12,0,1,0,60.86-37.88,51.65,51.65,0,0,0-18.23-53.25,51.62,51.62,0,0,0-6.82-42.48,51.56,51.56,0,0,0,21.69-40.09,51.63,51.63,0,0,0,42.85-28.29,51.58,51.58,0,0,0,55.6,0,51.63,51.63,0,0,0,42.84,28.29,51.56,51.56,0,0,0,21.69,40.09,51.62,51.62,0,0,0-6.82,42.47,51.65,51.65,0,0,0-18.23,53.25,39.11,39.11,0,1,0,60.86,37.88,51.63,51.63,0,0,0,39-64.29A51.53,51.53,0,0,0,402.14,148.28Z" transform="translate(-24.05 48.19)" fill="none" stroke="#231815" stroke-linecap="round" stroke-linejoin="round" stroke-width="8.55"/>
    </g>
  </g>
</svg>
