<svg id="hair_0044" xmlns="http://www.w3.org/2000/svg" viewBox="0 0 328.28 371.45">
  <title>hair_0044_back</title>
  <path id="hair_0044_back" d="M366.29,130C333.66,13.44,216.53,21.79,216.39,21.8S99.12,13.44,66.49,130c-11.85,42.31-16.31,87.8,4.81,130.69,21,42.7-13.23,41.05,8.39,72.88,14.1,20.75-.82,36-.82,36-8.58,15.26,32.23,20.51,46.52-.12,29.55,30.43,58,2.53,58.86,1.66.26.23,9.38,13.5,32.13,13.5s31.88-13.27,32.13-13.5c.87.87,29.31,28.77,58.86-1.66,14.3,20.63,55.11,15.39,46.52.12,0,0-14.92-15.2-.82-36,21.62-31.83-12.64-30.18,8.39-72.88C382.61,217.81,378.14,172.32,366.29,130Z" transform="translate(-52.25 -17.39)" fill="#fff" stroke="#231815" stroke-linecap="round" stroke-linejoin="round" stroke-width="8.55"/>
</svg>
