<svg id="hair_0011" xmlns="http://www.w3.org/2000/svg" viewBox="0 0 362.92 319.13">
  <title>hair_0011_back</title>
  <path id="hair_0011_back" d="M250.65,274.46c2.24,31.94,36.54,43.59,37,44.06.29-15.44,5.13-24.72,5.13-24.72,8.95,17.54,34.76,20.21,34.75,20.21-8.65-19.9,4.36-42.31,17.92-60.56,19.55-26.31,29.24-65.86,29.24-65.86,12.09,1.9,15.75-6.46,15.75-6.46s-7.71-5.14-16.06-21.84-4.49-36.66-18.85-66.62c-17.38-36.26-39.67-43.81-39.67-43.81a34.31,34.31,0,0,0,13.73-.62c10.11-2.87,10.12-15.89-1.49-18.7-9-2.18-18.11,2.57-18.11,2.57.2-6.77-.52-15.83-5.55-21-4.59-4.72-14.38-4.88-16.52,4.43C286.23,23,293,33.36,293,33.36s-84.22-57-170,4C68.77,75.88,67,127.1,57,155.12c-6.26,17.59-20.9,29-20.9,29s15.3,5.41,25.55-.4c-.64,1.93,5.13,48.2,20.65,62,19.7,17.52,33.45,44.23,23,68.3,0,0,25.8-2.67,34.75-20.21,0,0,4.85,9.28,5.14,24.72.47-.47,34.77-12.13,37-44.06Z" transform="translate(-31.82 -3.66)" fill="#fff" stroke="#231815" stroke-linecap="round" stroke-linejoin="round" stroke-width="8.55"/>
</svg>
