<svg id="hair_0030" xmlns="http://www.w3.org/2000/svg" viewBox="0 0 288.77 268.25">
  <title>hair_0030_front</title>
  <g id="hair_0030_front">
    <path id="c" d="M356.72,137.53C326.6,18.84,216.32,27.7,216.21,27.71S105.82,18.84,75.69,137.53c-8.47,33.38-1.35,62.52,5.22,74.34,2.54,4.57,9.35,4.75,9.35,4.75,7.19,29.05,14.78,46.71,25.43,61.71,9.62,13.54,24.47,14.61,23.13,11.76-16.59-35.23-19.77-84-19.77-84,35.26-14.79,81.35-17.84,97.15-17.84a307.39,307.39,0,0,1,39.89,3.17L272,169l10.34,27.27a197.43,197.43,0,0,1,31,9.79s-3.19,48.8-19.77,84c-1.34,2.85,13.52,1.78,23.13-11.76,10.65-15,18.23-32.66,25.43-61.71,0,0,6.81-.18,9.35-4.75C358.07,200.05,365.19,170.91,356.72,137.53Z" transform="translate(-71.82 -27.56)" fill="#fff"/>
    <path id="l" d="M90.92,217.49s11.2,45.45,26.65,63.2c11.34,13,22.28,11.59,21.27,9.39-17.7-38.41-19.77-84-19.77-84,35.26-14.79,81.35-17.84,97.15-17.84h0a307.43,307.43,0,0,1,39.9,3.17l16-22.82,10.32,27.71h0a197.34,197.34,0,0,1,30.94,9.77s-2.07,45.63-19.77,84c-1,2.2,9.93,3.64,21.27-9.39,15.45-17.75,26.65-63.2,26.65-63.2" transform="translate(-71.82 -27.56)" fill="none" stroke="#231815" stroke-linecap="round" stroke-linejoin="round" stroke-width="8.55"/>
  </g>
</svg>
