<svg id="hair_0025" xmlns="http://www.w3.org/2000/svg" viewBox="0 0 375.25 260.56">
  <title>hair_0025_back</title>
  <path id="hair_0025_back" d="M127.28,204c-32.19,24.12-82,5-82.48,4.13,24-22.75,24.52-40.44,24.52-40.44-22.07,3.93-38.4-9.44-37.49-9.51C66.72,141,58,110.74,84,78.83,54.11,76.15,46.71,43.18,47.16,43.14c41.92,2.21,74.54-14.55,75-14.59C100.8,17.2,104.69-7.7,105.63-7.31c25.91,16.51,71.13,9.67,71.13,9.67-.68-10.49-14.87-25.77-14.87-25.77C196.28-29.25,215.42.05,215.42.05S240.23-8.69,250-35.87c0,0,13.57,19.74,6.41,41.06,0,0,42.83,3.72,68.8-12.89.94-.39,4.74,24.49-16.65,35.92.46,0,33,16.69,74.94,14.32.46,0-7.07,33-37,35.82,25.91,31.82,17.1,62.09,51.92,79.16.91.07-15.47,13.5-37.52,9.64,0,0,.46,17.69,24.38,40.36-.52.89-50.37,20.17-82.47-3.84Z" transform="translate(-27.52 40.15)" fill="#fff" stroke="#231815" stroke-linecap="round" stroke-linejoin="round" stroke-width="8.55"/>
</svg>
