<svg id="hair_0018" xmlns="http://www.w3.org/2000/svg" viewBox="0 0 276.2 174.32">
  <title>hair_0018_front</title>
  <g id="hair_0018_front">
    <g id="c">
      <path id="b" d="M216.7,39.36S285.64,37,320.62,90.63c15,23.06,28.69,57.13,24.32,99.3,0,0-44.47-74.87-127.8-75.64l-.45-74.93S285.64,37,320.62,90.63c15,23.06,25.94,51.37,25.08,88.31" transform="translate(-72.71 -18.74)" fill="#9fa0a0" stroke="#231815" stroke-linecap="round" stroke-linejoin="round" stroke-width="6.27"/>
      <line id="_24" data-name="24" x1="80.52" y1="80.51" x2="83.51" y2="84.38" fill="none" stroke="#231815" stroke-linecap="round" stroke-linejoin="round" stroke-width="6.27"/>
      <line id="_23" data-name="23" x1="100.55" y1="70.84" x2="102.83" y2="74.94" fill="none" stroke="#231815" stroke-linecap="round" stroke-linejoin="round" stroke-width="6.27"/>
      <line id="_22" data-name="22" x1="105.01" y1="99.33" x2="106.54" y2="103.76" fill="none" stroke="#231815" stroke-linecap="round" stroke-linejoin="round" stroke-width="6.27"/>
      <line id="_21" data-name="21" x1="53.95" y1="77.55" x2="57.21" y2="80.91" fill="none" stroke="#231815" stroke-linecap="round" stroke-linejoin="round" stroke-width="6.27"/>
      <line id="_20" data-name="20" x1="104.62" y1="41.9" x2="106.15" y2="46.33" fill="none" stroke="#231815" stroke-linecap="round" stroke-linejoin="round" stroke-width="6.27"/>
      <line id="_19" data-name="19" x1="72.62" y1="102.83" x2="74.89" y2="106.92" fill="none" stroke="#231815" stroke-linecap="round" stroke-linejoin="round" stroke-width="6.27"/>
      <line id="_18" data-name="18" x1="77.77" y1="52.72" x2="80.05" y2="56.81" fill="none" stroke="#231815" stroke-linecap="round" stroke-linejoin="round" stroke-width="6.27"/>
      <line id="_17" data-name="17" x1="122.51" y1="70.17" x2="123.75" y2="74.47" fill="none" stroke="#231815" stroke-linecap="round" stroke-linejoin="round" stroke-width="6.27"/>
      <line id="_16" data-name="16" x1="45.25" y1="99.43" x2="48.82" y2="103.04" fill="none" stroke="#231815" stroke-linecap="round" stroke-linejoin="round" stroke-width="6.27"/>
      <line id="_15" data-name="15" x1="230.1" y1="77.8" x2="227.11" y2="81.67" fill="none" stroke="#231815" stroke-linecap="round" stroke-linejoin="round" stroke-width="6.27"/>
      <line id="_14" data-name="14" x1="210.2" y1="105.15" x2="207.21" y2="109.02" fill="none" stroke="#231815" stroke-linecap="round" stroke-linejoin="round" stroke-width="6.27"/>
      <line id="_13" data-name="13" x1="42.66" y1="121.27" x2="45.66" y2="125.14" fill="none" stroke="#231815" stroke-linecap="round" stroke-linejoin="round" stroke-width="6.27"/>
      <line id="_12" data-name="12" x1="204.36" y1="51.55" x2="201.37" y2="55.41" fill="none" stroke="#231815" stroke-linecap="round" stroke-linejoin="round" stroke-width="6.27"/>
      <line id="_11" data-name="11" x1="202.15" y1="77.8" x2="199.87" y2="81.89" fill="none" stroke="#231815" stroke-linecap="round" stroke-linejoin="round" stroke-width="6.27"/>
      <line id="_10" data-name="10" x1="180.92" y1="103.76" x2="178.64" y2="107.85" fill="none" stroke="#231815" stroke-linecap="round" stroke-linejoin="round" stroke-width="6.27"/>
      <line id="_9" data-name="9" x1="180.71" y1="66.23" x2="179.47" y2="70.54" fill="none" stroke="#231815" stroke-linecap="round" stroke-linejoin="round" stroke-width="6.27"/>
      <line id="_8" data-name="8" x1="166.35" y1="85.5" x2="165.12" y2="89.81" fill="none" stroke="#231815" stroke-linecap="round" stroke-linejoin="round" stroke-width="6.27"/>
      <line id="_7" data-name="7" x1="150.99" y1="65.32" x2="150.82" y2="69.71" fill="none" stroke="#231815" stroke-linecap="round" stroke-linejoin="round" stroke-width="6.27"/>
      <line id="_6" data-name="6" x1="135.99" y1="43.59" x2="135.83" y2="47.98" fill="none" stroke="#231815" stroke-linecap="round" stroke-linejoin="round" stroke-width="6.27"/>
      <line id="_5" data-name="5" x1="168.07" y1="38.01" x2="167.9" y2="42.4" fill="none" stroke="#231815" stroke-linecap="round" stroke-linejoin="round" stroke-width="6.27"/>
      <line id="_4" data-name="4" x1="137.86" y1="91.93" x2="137.69" y2="96.32" fill="none" stroke="#231815" stroke-linecap="round" stroke-linejoin="round" stroke-width="6.27"/>
      <line id="_3" data-name="3" x1="242.1" y1="95.55" x2="238.52" y2="99.16" fill="none" stroke="#231815" stroke-linecap="round" stroke-linejoin="round" stroke-width="6.27"/>
      <line id="_2" data-name="2" x1="249.71" y1="123.48" x2="246.14" y2="127.1" fill="none" stroke="#231815" stroke-linecap="round" stroke-linejoin="round" stroke-width="6.27"/>
      <line id="_1" data-name="1" x1="261.6" y1="130.46" x2="258.02" y2="134.07" fill="none" stroke="#231815" stroke-linecap="round" stroke-linejoin="round" stroke-width="6.27"/>
    </g>
    <path id="u" d="M335.07,118.17c-69,65.39-186.3,67.08-257.67,59.14,0,0-13.48-122.76,112.29-150.82C223.5,19,289.13,20.93,307.57,60.65,326,65.07,341.86,98.47,335.07,118.17Z" transform="translate(-72.71 -18.74)" fill="#fff" stroke="#231815" stroke-linecap="round" stroke-linejoin="round" stroke-width="8.55"/>
  </g>
</svg>
