<svg id="hair_0021" xmlns="http://www.w3.org/2000/svg" viewBox="0 0 293.75 247.4">
  <title>hair_0021_front</title>
  <g id="hair_0021_front">
    <path id="c" d="M301.5,199.23S297,208,304.57,221.58s6.22,37.48-7.14,45.53c-10.63,6.33,3,8.36,13.93,6.33,12.67-2.36,28.44-15.13,29.09-38.12.55-19.48,11.14-19.05,18.6-39.18,11.08-29.9,12-165.07-142.59-165.07h-.16C61.08,31.08,62.92,166.25,74,196.15c7.46,20.13,17.78,19.7,18.32,39.18.64,23,16.42,35.76,29.09,38.12,10.92,2,24.56,0,13.93-6.33-13.36-8.06-14.62-31.88-7.14-45.53,9.32-17,.63-33.12.63-33.12,16-2.85,31.86-33.89,31.86-33.89,6.25,15.22,52.06,55.9,106.81,31.05,0,0,9.32,18.49,34,13.6" transform="translate(-69.6 -31.08)" fill="#fff"/>
    <path id="r" d="M301.5,199.23S297,208,304.57,221.58s6.22,37.48-7.14,45.53c-10.63,6.33,3,8.36,13.93,6.33,12.67-2.36,28.44-15.13,29.09-38.12.21-7.58,1.22-12.14,2.81-16.08,2.5-6.18,10.09-15.94,10.09-29.52" transform="translate(-69.6 -31.08)" fill="none" stroke="#231815" stroke-linecap="round" stroke-linejoin="round" stroke-width="8.55"/>
    <path id="l" d="M79.42,189.73c0,13.58,7.59,23.34,10.09,29.52,1.59,3.94,2.6,8.5,2.81,16.08.64,23,16.42,35.76,29.09,38.12,10.92,2,24.56,0,13.93-6.33-13.36-8.06-14.58-31.85-7.14-45.53a35.87,35.87,0,0,0,.63-33.12c16-2.85,31.86-33.89,31.86-33.89,6.25,15.22,52.06,55.9,106.81,31.05,0,0,9.32,18.49,34,13.6" transform="translate(-69.6 -31.08)" fill="none" stroke="#231815" stroke-linecap="round" stroke-linejoin="round" stroke-width="8.55"/>
  </g>
</svg>
