<svg id="hair_0010" xmlns="http://www.w3.org/2000/svg" viewBox="0 0 351.28 243.41">
  <title>hair_0010_back</title>
  <path id="hair_0010_back" d="M141.54,204.47c-9.17,5.74-52.4,14.85-76.6,13.38,12.32-17.42,12.37-48.63,12.37-48.63s-19.3,6.94-40.1,1.42c25.21-14.33,30.86-66.46,53.17-84.13C86.43,87,64,89.91,52.61,80.23c9.79-2.45,18.83-8.29,42.08-27.86s45.37-33,62.91-31.61c-11.27-7.25-13.37-21.33-8.22-36.1,24.93,24.68,76-4.11,109.92,33.76,0,0,26.8-4.55,50.69-16.17.15,11.28-5.29,21.63-12.21,26.43,28.78,4.29,42.89,33.51,53.3,47.45,8.19,11,18.14,22.36,28.87,26.28-6.32,6.38-16.84,11.56-23.57,12.15,11.09,17.77,5.9,40.08,23.25,59.72-8.53,4.9-13.87,6.33-21.79,4.14,0,0-2.2,20.25,2.92,41.09-17.5-1.8-27.75-5.64-39.69-17.71Z" transform="translate(-32.93 19.61)" fill="#fff" stroke="#231815" stroke-linecap="round" stroke-linejoin="round" stroke-width="8.55"/>
</svg>
