<svg id="hair_0040" xmlns="http://www.w3.org/2000/svg" viewBox="0 0 363.28 421">
  <title>hair_0040_back</title>
  <path id="hair_0040_back" d="M185.28,269.64s-16.23,50-78,72.3C119,310.54,96.62,274,71.84,222c-5.48,8-19.32,16.87-35.74,22.11,30.76-62.58-12.18-126,33.9-188.87-9.83-1-21,.59-36.05,9.15,21.14-45,80.16-89.72,121.7-87.76,0,0-31.67-9.34-33.14-39.39C149.92-45.81,207-64,241.59-34.34,238.4-50.09,230-64,223.9-70.5c17.22,2.49,62,25.56,68.65,53.75,0,0,28.1-10.75,58.1,1.13a76.61,76.61,0,0,1-22.91,14.3c94.79,66.51,41.93,166.89,60.92,228.83-9.72-1.62-21.81-7.71-26.5-12.86-17.67,50-59.64,84.52-39.31,118.95-42.19-6.17-73.84-53.66-75.42-64Z" transform="translate(-29.67 74.77)" fill="#fff" stroke="#231815" stroke-linecap="round" stroke-linejoin="round" stroke-width="8.55"/>
</svg>
