<svg id="hair_0055" xmlns="http://www.w3.org/2000/svg" viewBox="0 0 266.66 148.15">
  <title>hair_0055_front</title>
  <g id="hair_0055_front">
    <g id="g">
      <path id="c" d="M87.42,179.48c-.85-36.93,10-65.23,25.08-88.28,35-53.63,103.92-51.27,103.92-51.27s68.94-2.36,103.93,51.27c15,23.06,25.94,51.37,25.08,88.31,0,0-28.78-46.64-129-46.64S87.42,179.48,87.42,179.48Z" transform="translate(-83.1 -35.63)" fill="#9fa0a0"/>
      <path id="l" d="M87.42,179.48c-.85-36.93,10-65.23,25.08-88.28,35-53.63,103.92-51.27,103.92-51.27s68.94-2.36,103.93,51.27c15,23.06,25.94,51.37,25.08,88.31" transform="translate(-83.1 -35.63)" fill="none" stroke="#231815" stroke-linecap="round" stroke-linejoin="round" stroke-width="8.55"/>
    </g>
    <g id="_" data-name="&apos;&apos;&apos;&apos;&apos;&apos;&apos;&apos;&apos;&apos;">
      <line id="_2" data-name="&apos;" x1="69.85" y1="64.19" x2="72.84" y2="68.05" fill="none" stroke="#231815" stroke-linecap="round" stroke-linejoin="round" stroke-width="6.27"/>
      <line id="_3" data-name="&apos;" x1="89.89" y1="54.52" x2="92.17" y2="58.61" fill="none" stroke="#231815" stroke-linecap="round" stroke-linejoin="round" stroke-width="6.27"/>
      <line id="_4" data-name="&apos;" x1="94.35" y1="83" x2="95.88" y2="87.43" fill="none" stroke="#231815" stroke-linecap="round" stroke-linejoin="round" stroke-width="6.27"/>
      <line id="_5" data-name="&apos;" x1="43.29" y1="61.22" x2="46.55" y2="64.58" fill="none" stroke="#231815" stroke-linecap="round" stroke-linejoin="round" stroke-width="6.27"/>
      <line id="_6" data-name="&apos;" x1="93.95" y1="25.58" x2="95.49" y2="30" fill="none" stroke="#231815" stroke-linecap="round" stroke-linejoin="round" stroke-width="6.27"/>
      <line id="_7" data-name="&apos;" x1="61.95" y1="86.5" x2="64.23" y2="90.59" fill="none" stroke="#231815" stroke-linecap="round" stroke-linejoin="round" stroke-width="6.27"/>
      <line id="_8" data-name="&apos;" x1="67.11" y1="36.39" x2="69.39" y2="40.48" fill="none" stroke="#231815" stroke-linecap="round" stroke-linejoin="round" stroke-width="6.27"/>
      <line id="_9" data-name="&apos;" x1="111.85" y1="53.84" x2="113.08" y2="58.14" fill="none" stroke="#231815" stroke-linecap="round" stroke-linejoin="round" stroke-width="6.27"/>
      <line id="_10" data-name="&apos;" x1="34.59" y1="83.1" x2="38.16" y2="86.71" fill="none" stroke="#231815" stroke-linecap="round" stroke-linejoin="round" stroke-width="6.27"/>
      <line id="_11" data-name="&apos;" x1="219.44" y1="61.47" x2="216.45" y2="65.34" fill="none" stroke="#231815" stroke-linecap="round" stroke-linejoin="round" stroke-width="6.27"/>
      <line id="_12" data-name="&apos;" x1="199.54" y1="88.82" x2="196.55" y2="92.69" fill="none" stroke="#231815" stroke-linecap="round" stroke-linejoin="round" stroke-width="6.27"/>
      <line id="_13" data-name="&apos;" x1="32" y1="104.94" x2="34.99" y2="108.81" fill="none" stroke="#231815" stroke-linecap="round" stroke-linejoin="round" stroke-width="6.27"/>
      <line id="_14" data-name="&apos;" x1="193.7" y1="35.22" x2="190.71" y2="39.09" fill="none" stroke="#231815" stroke-linecap="round" stroke-linejoin="round" stroke-width="6.27"/>
      <line id="_15" data-name="&apos;" x1="191.49" y1="61.47" x2="189.21" y2="65.57" fill="none" stroke="#231815" stroke-linecap="round" stroke-linejoin="round" stroke-width="6.27"/>
      <line id="_16" data-name="&apos;" x1="170.26" y1="87.43" x2="167.98" y2="91.52" fill="none" stroke="#231815" stroke-linecap="round" stroke-linejoin="round" stroke-width="6.27"/>
      <line id="_17" data-name="&apos;" x1="170.04" y1="49.91" x2="168.81" y2="54.21" fill="none" stroke="#231815" stroke-linecap="round" stroke-linejoin="round" stroke-width="6.27"/>
      <line id="_18" data-name="&apos;" x1="155.69" y1="69.18" x2="154.45" y2="73.48" fill="none" stroke="#231815" stroke-linecap="round" stroke-linejoin="round" stroke-width="6.27"/>
      <line id="_19" data-name="&apos;" x1="140.33" y1="49" x2="140.16" y2="53.39" fill="none" stroke="#231815" stroke-linecap="round" stroke-linejoin="round" stroke-width="6.27"/>
      <line id="_20" data-name="&apos;" x1="125.33" y1="27.26" x2="125.17" y2="31.65" fill="none" stroke="#231815" stroke-linecap="round" stroke-linejoin="round" stroke-width="6.27"/>
      <line id="_21" data-name="&apos;" x1="157.41" y1="21.68" x2="157.24" y2="26.07" fill="none" stroke="#231815" stroke-linecap="round" stroke-linejoin="round" stroke-width="6.27"/>
      <line id="_22" data-name="&apos;" x1="127.19" y1="75.6" x2="127.03" y2="79.99" fill="none" stroke="#231815" stroke-linecap="round" stroke-linejoin="round" stroke-width="6.27"/>
      <line id="_23" data-name="&apos;" x1="233.94" y1="84.17" x2="230.36" y2="87.79" fill="none" stroke="#231815" stroke-linecap="round" stroke-linejoin="round" stroke-width="6.27"/>
      <line id="_24" data-name="&apos;" x1="237.19" y1="106.48" x2="233.62" y2="110.1" fill="none" stroke="#231815" stroke-linecap="round" stroke-linejoin="round" stroke-width="6.27"/>
    </g>
  </g>
</svg>
