<svg id="hair_0046" xmlns="http://www.w3.org/2000/svg" viewBox="0 0 288.8 277.5">
  <title>hair_0046_front</title>
  <g id="hair_0046_front">
    <path id="c" d="M216,192.35h51l13.5-26.65,13.65,26.65h23c.06,13.78-.8,31-4.25,46.95-8,37-17.38,55.54-16.26,58.56,1.94,5.22,10.24,2.24,23.07-14.39,37.39-48.5,40.68-104.79,40.68-104.83,0-46-34.41-151.57-144.4-151.57S71.63,132.6,71.63,178.65c0,0,3.29,56.33,40.67,104.83,12.83,16.64,21.13,19.62,23.07,14.39,1.13-3-8.28-21.61-16.26-58.56-3.45-16-4.31-33.17-4.25-46.95Z" transform="translate(-71.63 -27.08)" fill="#fff"/>
    <path id="m" d="M352.35,178.65s4.79,56.33-32.6,104.83c-12.83,16.64-22,20.2-23.17,13.94-.56-3.06,8.39-21.16,16.36-58.11,3.45-16,4.31-33.17,4.25-46.95h-23l-13.58-27-13.58,27H114.86c-.06,13.78.8,31,4.25,46.95,8,37,16.92,55.05,16.36,58.11-1.15,6.25-10.35,2.69-23.17-13.94C74.91,235,79.7,178.69,79.7,178.65" transform="translate(-71.63 -27.08)" fill="none" stroke="#231815" stroke-linecap="round" stroke-linejoin="round" stroke-width="8.55"/>
  </g>
</svg>
