<svg id="hair_0008" xmlns="http://www.w3.org/2000/svg" viewBox="0 0 268.42 188.84">
  <title>hair_0008_front</title>
  <g id="hair_0008_front">
    <path id="c" d="M216,130.89c28.11,0,48.37-9.47,73.7-7.79,17.35,1.15,31.82,9.54,34.13,36.07,1.59,18.33,6.77,55.41,20.32,59.46,0,0,4.55-10.71,5.36-42C350.93,122.49,335.22,34.07,216,34.07,76.89,34.07,77.63,151,82.78,198.63c1.34,12.37,5.09,20,5.09,20,13.55-4.05,18.74-41.13,20.33-59.46,2.3-26.53,16.77-34.93,34.13-36.07C167.66,121.42,187.91,130.89,216,130.89Z" transform="translate(-81.2 -34.07)" fill="#fff"/>
    <path id="l" d="M87.87,218.63c13.55-4.05,18.74-41.13,20.33-59.46,2.3-26.53,16.77-34.93,34.13-36.07,25.34-1.68,45.59,7.79,73.7,7.79s48.37-9.47,73.7-7.79c17.35,1.15,31.82,9.54,34.13,36.07,1.59,18.33,6.77,55.41,20.32,59.46" transform="translate(-81.2 -34.07)" fill="none" stroke="#231815" stroke-linecap="round" stroke-linejoin="round" stroke-width="8.55"/>
  </g>
</svg>
