<svg id="hair_0034" xmlns="http://www.w3.org/2000/svg" viewBox="0 0 295.58 215.85">
  <title>hair_0034_front</title>
  <g id="hair_0034_front">
    <path id="c" d="M87.38,215.45c23.12-7.63,23.58-24,35-40.74,20.8-30.66,52.25-21.37,52.25-21.37s33.41-31.51,75.09,7.51c27.18,25.44,48.47,65.41,70.47,76.22,25.33,12.45,48.51,0,48.51,0s-2.87-10.84-7.27-42.69c0,0,22.7-163.09-150.76-163.09C131.55,31.26,88.25,79.71,77.3,128c-6.31,27.87-4.87,53.23,0,69.39A47.36,47.36,0,0,0,87.38,215.45Z" transform="translate(-73.09 -31.26)" fill="#fff"/>
    <path id="_" data-name="^" d="M85,217c23.12-7.63,25.92-25.49,37.3-42.26,20.8-30.66,52.25-21.37,52.25-21.37s36-31.38,75.09,7.51c31.49,31.35,50.28,66.9,73.58,77.83,12.57,5.89,25.67,4.38,33.89,2.35" transform="translate(-73.09 -31.26)" fill="none" stroke="#231815" stroke-linecap="round" stroke-linejoin="round" stroke-width="8.55"/>
  </g>
</svg>
