<svg id="hair_0007" xmlns="http://www.w3.org/2000/svg" viewBox="0 0 332.87 268.11">
  <title>hair_0007_front</title>
  <path id="hair_0007_front" d="M364.44,114.07C324.93,8.7,216.2,13.36,216.2,13.36S107.48,8.7,68,114.07c-48.27,128.72,42,171.77,73.39,154.44,0,0-27.62-17-26-83.67,0,0,28.24-21.41,100.76-21.41a318.31,318.31,0,0,1,34.32,1.77l11.54-23,9,26.07c32.46,6.31,46.1,16.58,46.1,16.58h0c1.62,66.66-26,83.67-26,83.67C322.49,288.13,412.71,242.79,364.44,114.07Z" transform="translate(-49.77 -9.05)" fill="#fff" stroke="#231815" stroke-linecap="round" stroke-linejoin="round" stroke-width="8.55"/>
</svg>
