<svg id="hair_0034" xmlns="http://www.w3.org/2000/svg" viewBox="0 0 335.28 332.2">
  <title>hair_0034_back</title>
  <path id="hair_0034_back" d="M355.73,277.57c44-47.12,14.49-72.79,13-106.15C361.75,12.6,216.43,20.49,216.43,20.49S185.49,18.62,151.84,32h0s7.7-9.74,6.69-17.28c-1.28-9.47-11-10.21-16-5.93-5.48,4.69-7,13.64-7.46,20.4,0,0-8.63-5.56-17.8-4.22-11.82,1.73-13,14.7-3.2,18.48,3.72,1.44,10.93,1.79,13,1.87-31.5,20.56-59.93,58-62.94,126.09-1.47,33.37-31,59,13,106.15,20.74,22.22-7.85,33.25-7.85,39.16,0,8.13,30.23,24.16,53.7,1.89,0,0,26.33,25.26,48.4,0,0,0,21.31,22.27,45,0h.17c23.66,22.27,45,0,45,0,22.07,25.26,48.4,0,48.4,0,23.47,22.27,53.7,6.24,53.7-1.89C363.59,310.82,335,299.79,355.73,277.57Z" transform="translate(-48.79 -2.02)" fill="#fff" stroke="#231815" stroke-linecap="round" stroke-linejoin="round" stroke-width="8.55"/>
</svg>
