<svg id="hair_0053" xmlns="http://www.w3.org/2000/svg" viewBox="0 0 300.22 210.01">
  <title>hair_0053_front</title>
  <g id="hair_0053_front">
    <g>
      <path id="c" d="M216.44,34C126.62,34,84.37,92.64,80.3,142.91c-1.3,16-3.2,34.37,1.37,49.9,2.86,9.73,9.58,21.31,9.58,21.31,12.14,3.66,5.65-32.92,27.2-51.6,22.37-19.4,53.9-5.57,98-5.57s75.61-13.83,98,5.57c21.55,18.68,15.06,55.26,27.2,51.6,0,0,6.72-11.58,9.59-21.31,4.57-15.54,2.67-33.86,1.37-49.9C348.5,92.64,306.25,34,216.44,34Z" transform="translate(-66.33 -11.2)" fill="#fff"/>
      <path id="l" d="M363.44,132.6a4.27,4.27,0,0,0-5.28,2.94c-5.95,20.95-25.92,29.77-33.26,32.35A46.61,46.61,0,0,0,312,155.47a40.76,40.76,0,0,0-7.38-3.81c37.06-34.4,38.76-85.69,38.81-88a4.27,4.27,0,0,0-8.55-.21c0,.54-1.85,53.68-40.13,85.46-12.57-2.18-27.12-.59-43.13,1.17l-.17,0c5-18,19.56-76,19.07-134.69a4.27,4.27,0,0,0-4.27-4.24h0A4.27,4.27,0,0,0,262,15.51c.52,62-16.14,123.3-19.68,135.6a255.78,255.78,0,0,1-25.89,1.55,255.77,255.77,0,0,1-25.9-1.55c-3.54-12.3-20.22-73.56-19.7-135.6a4.28,4.28,0,0,0-8.55-.07c-.49,58.68,14.11,116.65,19.09,134.69l-.17,0c-16-1.76-30.56-3.35-43.13-1.17C99.81,117.16,98,64,98,63.48a4.28,4.28,0,0,0-8.55.21c.06,2.28,1.75,53.57,38.81,88a40.77,40.77,0,0,0-7.38,3.81A46.6,46.6,0,0,0,108,167.9c-7.33-2.56-27.27-11.31-33.25-32.36a4.27,4.27,0,0,0-8.22,2.33c6.71,23.65,27.48,34,37.14,37.56-3.22,6.88-4.88,14-6.35,20.3-1.88,8.08-3.5,15.06-7.72,17.48a4.28,4.28,0,0,0,4.25,7.42c7.46-4.27,9.57-13.35,11.8-23,2.83-12.17,6-26,19.92-35.06,13.1-8.58,32.4-6.46,54.75-4,11.62,1.28,23.64,2.6,36.15,2.6s24.53-1.32,36.15-2.6c22.35-2.46,41.65-4.58,54.76,4,13.88,9.1,17.09,22.89,19.92,35.06,2.23,9.61,4.34,18.69,11.8,23a4.28,4.28,0,1,0,4.25-7.42c-4.22-2.42-5.84-9.4-7.72-17.48-1.47-6.34-3.13-13.43-6.35-20.31,9.66-3.61,30.43-13.91,37.14-37.56A4.27,4.27,0,0,0,363.44,132.6Z" transform="translate(-66.33 -11.2)" fill="#231815"/>
    </g>
  </g>
</svg>
