<svg id="hair_0048" xmlns="http://www.w3.org/2000/svg" viewBox="0 0 279.28 342.15">
  <title>hair_0048_front</title>
  <g id="hair_0048_front">
    <path id="c" d="M216.17,28.95h0s0,0,0,0h0s0,0,0,0h0C57.9,29,77.27,211.31,77.27,211.31l12.6,5.41c16.07,87.25,22.57,123.7,53,146.29,13.05,9.68,13.37-1,13.37-1-37.52-66.16-29.72-180.27-29.72-180.27H256.41l11.22-24.68L280,181.75h25.76S313.58,295.85,276.06,362c0,0,.31,10.68,13.37,1,30.46-22.6,37-59,53-146.29l12.6-5.41S374.43,29,216.17,28.95Z" transform="translate(-76.52 -28.95)" fill="#fff"/>
    <path id="m" d="M89.23,194.62c6.85,81.94,23.45,148.61,53.83,167.86,15.82,10,13.37-.46,13.37-.46-36.5-58.41-29.72-180.27-29.72-180.27h129.7l11.07-24.87,12.36,24.87h25.78S312.39,303.61,275.9,362c0,0-2.46,10.5,13.37.46,30.38-19.25,47-85.93,53.83-167.86" transform="translate(-76.52 -28.95)" fill="none" stroke="#231815" stroke-linecap="round" stroke-linejoin="round" stroke-width="8.55"/>
  </g>
</svg>
