<svg id="hair_0022" xmlns="http://www.w3.org/2000/svg" viewBox="0 0 321.15 278.94">
  <title>hair_0022_back</title>
  <path id="hair_0022_back" d="M358.53,211c8-2.08,5.63-3.31,4-6.14C358,197.17,358,193.9,358,193.9c15.44-12,12.69-45.91,1.63-58.55,17.61-36.34-9.47-67.92-27.77-71.76-.92-18-21.74-51.26-61.53-38.1-12.19-25.26-51-31.79-77.19-9-27.47-14-59.72-1.79-72.37,23.33-26.31,3.5-45.9,33.15-43.67,59.9-26.82,21.63-27.82,63.56-3.23,83.07a29.2,29.2,0,0,1-5.64,20c-1.65,2.22-2.65,9.07,6.13,9.92A44.38,44.38,0,0,0,90,211.52s35.08,61.37,130.8,61.37c84.46,0,119.46-60.07,119.46-60.07S351.37,212.86,358.53,211Z" transform="translate(-51.89 1.78)" fill="#fff" stroke="#231815" stroke-linecap="round" stroke-linejoin="round" stroke-width="8.55"/>
</svg>
