<svg id="hair_0036" xmlns="http://www.w3.org/2000/svg" viewBox="0 0 378 309.18">
  <title>hair_0036_back</title>
  <g id="hair_0036_back">
    <path id="O" d="M215.36,21.32h.3s18.11-8,49.41-1.18c17.6,3.81,55.75,20.83,79.86,61.74,28.48,46.23,37.49,140.88-35.32,185.13,0,0-25.72,19.06-94.1,19.06h.3c-68.38,0-94.1-19.06-94.1-19.06-72.8-44.25-63.8-138.9-35.32-185.13C110.5,41,148.66,23.94,166.25,20.14c31.3-6.77,49.41,1.18,49.41,1.18h.3" transform="translate(-26.66 -13.14)" fill="#fff" stroke="#231815" stroke-linecap="round" stroke-linejoin="round" stroke-width="8.55"/>
    <path id="l" d="M344.72,183.59s21.32-17.05,42.2,4.4c27,27.73,5.64,72.65,2.31,83.75-3.76,12.54-5.58,27.4-1.17,36,3.17,6.22,12.06,12.43-3.86,9.49-37.9-7-51.72-41-48.21-70.85C339.93,212.7,344.72,183.59,344.72,183.59Z" transform="translate(-26.66 -13.14)" fill="#fff" stroke="#231815" stroke-linecap="round" stroke-linejoin="round" stroke-width="8.55"/>
    <path id="r" d="M86.61,183.59s-21.32-17.05-42.2,4.4c-27,27.73-5.64,72.65-2.31,83.75,3.76,12.54,5.58,27.4,1.17,36-3.17,6.22-12.06,12.43,3.86,9.49,37.91-7,51.72-41,48.21-70.85C91.39,212.7,86.61,183.59,86.61,183.59Z" transform="translate(-26.66 -13.14)" fill="#fff" stroke="#231815" stroke-linecap="round" stroke-linejoin="round" stroke-width="8.55"/>
  </g>
</svg>
