<svg id="hair_0039" xmlns="http://www.w3.org/2000/svg" viewBox="0 0 305.21 357.09">
  <title>hair_0039_back</title>
  <g id="hair_0039_back">
    <path id="b" d="M166.47,33c3.28-24.86,23-60.28,72.69-65C290-37,358.51,8.82,344.64,141c-15,142.75,14.44,167.23,10.08,173.18C344.37,328.25,135.21,269.79,166.47,33Z" transform="translate(-62.98 36.71)" fill="#fff" stroke="#231815" stroke-linecap="round" stroke-linejoin="round" stroke-width="8.55"/>
    <path id="band" d="M265,20.7C260.47,7.08,240.07-3.2,215.59-3.2S170.67,7.09,166.16,20.72a155.93,155.93,0,0,1,49.43-8.15A153.49,153.49,0,0,1,265,20.7Z" transform="translate(-62.98 36.71)" fill="#e83828" stroke="#231815" stroke-linecap="round" stroke-linejoin="round" stroke-width="6.27"/>
    <path id="O" d="M215.59,12.57c75.79,0,150.89,56.3,148.26,155.56-.57,21.43-4.4,39.22-12.64,54,0,0-28.74,61.6-135.62,61.6S80,222.11,80,222.11c-8.23-14.76-12.07-32.54-12.64-54C64.69,68.87,139.8,12.57,215.59,12.57Z" transform="translate(-62.98 36.71)" fill="#fff" stroke="#231815" stroke-linecap="round" stroke-linejoin="round" stroke-width="8.55"/>
  </g>
</svg>
