<svg id="hair_0005" xmlns="http://www.w3.org/2000/svg" viewBox="0 0 274.93 199.92">
  <title>hair_0005_front</title>
  <g id="hair_0005_front">
    <path id="d" d="M325.21,100.1c-34.95-53.57-95.66-58.86-109.51-58.86s-74.56,5.28-109.51,58.86c-15,23.06-26.28,67-15.09,115.64,0,0,18.39-123.33,124.6-123.33,105.75,0,124.6,123.33,124.6,123.33C351.49,167.07,340.25,123.16,325.21,100.1Z" transform="translate(-77.15 -18.95)" fill="#9fa0a0" stroke="#231815" stroke-linecap="round" stroke-linejoin="round" stroke-width="6.27"/>
    <path id="u" d="M148.78,48.61A69,69,0,0,1,168,35.92c25-10.58,65.34-15.17,118.69,12.84,82,43.08,57.82,119.39,57.82,119.39C322.37,153.26,296,144.54,296,144.54c2.94,13.34,4.43,21.9,4.43,21.9-18.4-10-31.75-17-31.75-17,3.24,12.59,8.75,20.07,8.75,20.07-24.93-6.25-48.91-17.33-48.91-17.33,7.91,12.77,14.79,19.1,14.79,19.1s-72.89,1.9-118.26-32.87L86.64,175.38S64.07,122.51,112.82,74.67a68.84,68.84,0,0,1,13.29-10.26v0a34.31,34.31,0,0,1-13.74-.45c-10.14-2.74-10.32-15.76,1.26-18.71,9-2.29,18.14,2.34,18.14,2.34-.28-6.77.32-15.83,5.29-21.07,4.53-4.78,14.32-5.06,16.58,4.23,1.8,7.39-4.85,17.88-4.85,17.88Z" transform="translate(-77.15 -18.95)" fill="#fff" stroke="#231815" stroke-linecap="round" stroke-linejoin="round" stroke-width="8.55"/>
  </g>
</svg>
