<svg id="hair_0031" xmlns="http://www.w3.org/2000/svg" viewBox="0 0 289.39 232.36">
  <title>hair_0031_front</title>
  <g id="hair_0031_front">
    <path id="l" d="M216.44,132.82c17.88-5.15,66.77-9.57,86.43,25.82,0,0,5.28-39.92-27.87-51.37C240.19,95.23,221.49,119.62,216.44,132.82Z" transform="translate(-71.75 -32.55)" fill="#fff" stroke="#231815" stroke-linecap="round" stroke-linejoin="round" stroke-width="8.55"/>
    <path id="r" d="M216.44,132.82c-17.88-5.15-66.77-9.57-86.43,25.82,0,0-5.28-39.92,27.87-51.37C192.7,95.23,211.4,119.62,216.44,132.82Z" transform="translate(-71.75 -32.55)" fill="#fff" stroke="#231815" stroke-linecap="round" stroke-linejoin="round" stroke-width="8.55"/>
    <path id="c" d="M335.5,94.29C295.29,16,216.44,34.44,216.44,34.44S137.59,16,97.38,94.29c-28.64,55.76-26.26,117.9-25,149.23.47,11.41,13.8,17.12,13.8,17.12,22.2-5.89,37.5-37.65,41.86-87.94,5.73-66.07,55.07-72.54,88.36-39.89,33.29-32.65,82.63-26.18,88.36,39.89,4.36,50.29,19.66,82,41.86,87.94,0,0,13.32-5.71,13.8-17.12C361.76,212.19,364.14,150.05,335.5,94.29Z" transform="translate(-71.75 -32.55)" fill="#fff"/>
    <path id="f" d="M346.66,260.64c-22.2-5.88-37.5-37.65-41.86-87.94-5.73-66.07-55.08-72.57-88.36-39.89-33.27-32.68-82.63-26.18-88.36,39.89-4.36,50.29-19.66,82.05-41.86,87.94" transform="translate(-71.75 -32.55)" fill="none" stroke="#231815" stroke-linecap="round" stroke-linejoin="round" stroke-width="8.55"/>
  </g>
</svg>
