<svg id="hair_0058" xmlns="http://www.w3.org/2000/svg" viewBox="0 0 324.6 332.68">
  <title>hair_0058_back</title>
  <g id="hair_0058_back">
    <path id="_" data-name="&lt;&gt;" d="M324.44,237.3c8.78-2.76,39.14-8.76,50.11,22.52a33.9,33.9,0,0,0-9.53-1.24c3.67,10.05,5.2,34.24-10.69,50.38-2.51-9.92-7.58-19.8-13-24.79A68,68,0,0,1,335.18,295S310.82,273.57,324.44,237.3Z" transform="translate(-54.22 19.46)" fill="#fff" stroke="#231815" stroke-linecap="round" stroke-linejoin="round" stroke-width="8.53"/>
    <path id="O" d="M215.66,22.19c51.42-19.58,122.85,28,143.31,94,17,54.79,4.43,102.23-26.25,134.32-39.85,41.68-96.74,41.12-117.06,41.12-95,0-128.79-76.49-128.79-76.49-6.74,9.52-18.63,12.68-28.38,13.35,14.36-17.07,8.05-39.21,7.43-46.37-2.71-20.2-.86-42.39,6.44-65.93C87.72,66.65,131.84,27.45,174.65,19.3,166.5,5.85,178-15.19,178-15.19,177.91-5.05,193.29,14.93,215.66,22.19Z" transform="translate(-54.22 19.46)" fill="#fff" stroke="#231815" stroke-linecap="round" stroke-linejoin="round" stroke-width="8.53"/>
  </g>
</svg>
