<svg id="hair_0060" xmlns="http://www.w3.org/2000/svg" viewBox="0 0 346.39 359.22">
  <title>hair_0060_back</title>
  <path id="hair_0060_back" d="M346.23,93.7c30.44,28,13.69,74.41,21.24,85.93,6.43,9.8,8.38,20.63,4.6,31-4.81,13.2-4.62,20.16.55,27.1,8.75,11.75,11.3,20.29,4.55,34.48-5,10.59-4,17.34,2.45,29,5.3,9.66,6.61,17.75,1.44,29.25-3.78,8.41-3.55,13.91-1.08,24.09,1.6,6.58-2.94,10.36-9.8,11.21-5.18.64-15.14-.7-20.62-7-10.61,15-34.19,16.15-44.73,0-10.61,15-34.18,16.15-44.72,0-10.61,15-34.18,16.15-44.72,0-10.54,16.15-34.11,15-44.72,0-10.54,16.15-34.12,15-44.72,0-10.54,16.15-34.11,15-44.72,0-5.48,6.32-15.44,7.67-20.62,7-6.86-.85-11.4-4.63-9.81-11.21,2.47-10.18,2.71-15.67-1.08-24.09-5.17-11.5-3.87-19.59,1.44-29.25,6.41-11.68,7.49-18.43,2.45-29-6.75-14.18-4.2-22.72,4.55-34.48,5.17-6.93,5.36-13.89.55-27.1-3.77-10.36-1.83-21.18,4.6-31,7.56-11.52,5.39-29.46,9.41-52.3,4.41-25,20.47-67.43,71.1-92.13C162.61,26,186.1,19.72,215.4,19.72c0,0,33.35-.14,67.32,18.27C329.32,63.25,345.72,93.22,346.23,93.7Z" transform="translate(-42.21 -15.47)" fill="#fff" stroke="#231815" stroke-linecap="round" stroke-linejoin="round" stroke-width="8.5"/>
</svg>
