<svg id="hair_0037" xmlns="http://www.w3.org/2000/svg" viewBox="0 0 310.1 351.62">
  <title>hair_0037_back</title>
  <g id="hair_0037_back">
    <path id="r" d="M305.38,260.87C282.3,324.81,352.13,363,352.13,363c24.62-78.58-9.25-94.69-28.16-107.43" transform="translate(-60.96 -15.68)" fill="#fff" stroke="#231815" stroke-linecap="round" stroke-linejoin="round" stroke-width="8.55"/>
    <path id="s" d="M126.34,260.87C149.41,324.81,79.58,363,79.58,363,55,284.45,88.83,268.34,107.75,255.6" transform="translate(-60.96 -15.68)" fill="#fff" stroke="#231815" stroke-linecap="round" stroke-linejoin="round" stroke-width="8.55"/>
    <path id="O" d="M79.66,224.47c-8.24-14.76-14.4-36.76-14.42-58.2C65.11,61.39,139.64,29.21,166.46,23.41c31.3-6.77,49.41-1.51,49.41-1.51h.29s18.11-5.26,49.41,1.51c26.81,5.8,101.35,38,101.22,142.85,0,21.44-6.18,43.45-14.42,58.2,0,0-24.07,62.18-136.35,62.18C103.35,286.65,79.66,224.47,79.66,224.47Z" transform="translate(-60.96 -15.68)" fill="#fff" stroke="#231815" stroke-linecap="round" stroke-linejoin="round" stroke-width="8.55"/>
  </g>
</svg>
