<svg id="hair_0009" xmlns="http://www.w3.org/2000/svg" viewBox="0 0 268.83 189.32">
  <title>hair_0009_front</title>
  <g id="hair_0009_front">
    <path id="c" d="M215.72,151.67h99.12s22.87,21.8,25.28,65c0,0,1-2.56,5-1.4C360,151.85,348.7,31.58,215.72,31.58S71.47,151.85,86.33,215.22c4-1.16,5,1.4,5,1.4,2.41-43.15,25.28-65,25.28-65h99.11Z" transform="translate(-81.31 -31.58)" fill="#fff"/>
    <path id="l" d="M340.12,216.62c-1.91-34.15-16.63-54.93-22.69-62.11-1.6-1.89-3.9-2.84-8.06-2.84H122.07c-4.16,0-6.46.95-8.06,2.84-6.06,7.18-20.78,28-22.69,62.11" transform="translate(-81.31 -31.58)" fill="none" stroke="#231815" stroke-linecap="round" stroke-linejoin="round" stroke-width="8.55"/>
  </g>
</svg>
