<svg id="hair_0043" xmlns="http://www.w3.org/2000/svg" viewBox="0 0 444.19 372.89">
  <title>hair_0043_back</title>
  <g id="hair_0043_back">
    <path id="r" d="M302.33,35.3S358,3,387.59,54.08c25.38,43.77-7,69.73,38.22,187.49C463,338.42,358.32,387.8,347.57,379.19c-4.39-3.52,5.66-13.24-7.94-38.51-50.81-94.44,27.79-94.5-21-208.22C309.84,112,272,71.22,302.33,35.3Z" transform="translate(6.17 -11.53)" fill="#fff" stroke="#231815" stroke-linecap="round" stroke-linejoin="round" stroke-width="8.55"/>
    <path id="l" d="M129.53,35.3S73.87,3,44.27,54.08c-25.38,43.77,7,69.73-38.21,187.49C-31.12,338.42,73.53,387.8,84.29,379.19c4.39-3.52-5.66-13.24,7.94-38.51,50.81-94.44-27.79-94.5,21-208.22C122,112,159.89,71.22,129.53,35.3Z" transform="translate(6.17 -11.53)" fill="#fff" stroke="#231815" stroke-linecap="round" stroke-linejoin="round" stroke-width="8.55"/>
    <path id="O" d="M79.72,224.44c-8.24-14.76-14.4-36.76-14.42-58.2-.12-104.88,74.41-141.9,101.22-147.7,31.3-6.77,49.41,1.18,49.41,1.18h.3s18.11-8,49.4-1.18c26.81,5.8,101.34,42.82,101.23,147.7,0,21.44-6.19,43.45-14.43,58.2,0,0-24.06,62.18-136.35,62.18C103.42,286.62,79.72,224.44,79.72,224.44Z" transform="translate(6.17 -11.53)" fill="#fff" stroke="#231815" stroke-linecap="round" stroke-linejoin="round" stroke-width="8.55"/>
  </g>
</svg>
