<svg id="hair_0024" xmlns="http://www.w3.org/2000/svg" viewBox="0 0 343.77 308.53">
  <title>hair_0024_back</title>
  <path id="hair_0024_back" d="M227.79,283.35c12.95,13.21,37.37,20.69,52.45,23.88,12,2.54,10.52,1.33,10.34-5.36l.65-8.24s16.67,4.08,26.13,6.08c12,2.54,10.85-2.52,9.5-7.4-5.22-18.76-1-38.59-1-38.59l.27-.16,25.66-28.52C378.43,185.83,375.2,92.7,323.4,61.47a34.31,34.31,0,0,0,13.73.5c10.31-2,11.38-15,0-18.75-8.8-2.9-18.26,1.08-18.26,1.08.75-6.73.77-15.82-3.82-21.38-4.19-5.08-13.93-6-16.83,3.07-2.3,7.25,3.6,18.18,3.6,18.18C257.53-7.39,149.4-6.54,95.21,69.51,62.68,115.17,74.63,144.32,35,189.13c-3.42,3.87-2.66,6.94,4.23,7.67,7.35.78,20.82.47,28.48-2.75,2,11.72,7,22.56,11.7,31l25.66,28.52h0s4.25,19.83-1,38.59c-1.36,4.88-2.52,9.94,9.49,7.4,9.46-2,26.13-6.08,26.13-6.08l.65,8.24c-.18,6.69-1.68,7.9,10.34,5.36,15.07-3.19,39.5-10.67,52.45-23.87,4.27.32,8.57.51,12.89.51,4,0,8-.15,11.87-.42" transform="translate(-28.74 -4.2)" fill="#fff" stroke="#231815" stroke-linecap="round" stroke-linejoin="round" stroke-width="8.55"/>
</svg>
