<svg id="hair_0027" xmlns="http://www.w3.org/2000/svg" viewBox="0 0 326.16 288.7">
  <title>hair_0027_front</title>
  <path id="hair_0027_front" d="M361.92,128.46c-39.5-116-145.58-108.2-145.58-108.2S110.27,12.43,70.77,128.46c-51.87,152.36,61.78,184.72,92.72,166,0,0-71.62-24.89-42.23-124.8,9,13.33,41.66,44.67,101,12-.11.21,23.39,41.06,58,15.53,2.07,7.57,12.06,28.64,38.22,22.12l.1-10.2s.32,4.25.3,10.11l.19,0a90.53,90.53,0,0,1-.66,11l0,.33v-.11c-6,47.93-49.17,64.1-49.17,64.1C296.62,316.1,413.79,280.81,361.92,128.46Z" transform="translate(-53.13 -15.87)" fill="#fff" stroke="#231815" stroke-linecap="round" stroke-linejoin="round" stroke-width="8.55"/>
</svg>
