<svg id="hair_0052" xmlns="http://www.w3.org/2000/svg" viewBox="0 0 99.95 167.63">
  <title>hair_0052_front</title>
  <g id="hair_0052_front">
    <path id="c" d="M217.7-20.26a147.71,147.71,0,0,1,32,3.59c4.7,1.09,16.78,4.29,12.92,16.81-11,35.64-19.42,80.25-23,131.13-.34,4.84-2.69,6.48-6.57,6.82-5,.43-12.39.73-15.37.73s-10.39-.29-15.37-.73c-3.88-.34-6.23-2-6.57-6.82-3.58-50.88-12-95.49-23-131.13C168.9-12.38,181-15.58,185.67-16.67A147.71,147.71,0,0,1,217.7-20.26Z" transform="translate(-167.73 24.53)" fill="#fff"/>
    <path id="l" d="M265.81-11.6c-3.41-5.93-10.26-8.11-15.11-9.23a148.92,148.92,0,0,0-66,0c-4.85,1.12-11.7,3.3-15.11,9.23-2.13,3.7-2.44,8.08-.93,13C180.25,39,188.14,84,191.49,131.58c.32,4.53,2.4,10.07,10.47,10.78,5.21.46,12.81.75,15.74.75s10.53-.29,15.74-.75c8.07-.7,10.15-6.25,10.47-10.78C247.27,84,255.16,38.95,266.73,1.4,268.25-3.52,267.94-7.9,265.81-11.6ZM258.56-1.12C246.8,37,238.78,82.72,235.38,131c-.18,2.54-.7,2.69-2.68,2.86-4,.35-9.33.59-12.77.68L219.47,119a3.14,3.14,0,0,0-3.13-3h-.1a3.14,3.14,0,0,0-3,3.23l.46,15.31-2.65-.1-1.43-23.68a3.14,3.14,0,1,0-6.26.38L204.71,134l-2-.16c-2-.17-2.5-.32-2.68-2.86C196.62,82.72,188.61,37,176.84-1.12c-.8-2.6-.75-4.63.17-6.22,2-3.39,7.73-4.73,9.63-5.17a140.36,140.36,0,0,1,62.13,0c1.9.44,7.68,1.78,9.63,5.17C259.31-5.75,259.36-3.72,258.56-1.12Z" transform="translate(-167.73 24.53)" fill="#231815"/>
  </g>
</svg>
