<svg id="hair_0057" xmlns="http://www.w3.org/2000/svg" viewBox="0 0 268.96 220.02">
  <title>hair_0057_front</title>
  <g id="hair_0057_front">
    <path id="l" d="M87.47,161C89.91,132.8,99.53,110.08,112,91c35-53.63,103.92-51.27,103.92-51.27h0S284.88,37.33,319.86,91C332.33,110.08,342,132.8,344.39,161" transform="translate(-81.45 3.67)" fill="none" stroke="#231815" stroke-linecap="round" stroke-linejoin="round" stroke-width="8.55"/>
    <path id="l-2" data-name="l" d="M88.86,212.07H99.54S106,172,116.63,145.44L91.86,134S80.35,167.06,88.86,212.07Z" transform="translate(-81.45 3.67)" fill="#fff" stroke="#231815" stroke-linecap="round" stroke-linejoin="round" stroke-width="8.55"/>
    <path id="r" d="M343,212.07H332.32s-6.41-40.06-17.08-66.63L340,134S351.51,167.06,343,212.07Z" transform="translate(-81.45 3.67)" fill="#fff" stroke="#231815" stroke-linecap="round" stroke-linejoin="round" stroke-width="8.55"/>
    <path id="_" data-name="~" d="M214.64.6s15.3,9.58,5.18,23.75c-12.63,17.69,2.87,26.12,2.87,26.12" transform="translate(-81.45 3.67)" fill="none" stroke="#231815" stroke-linecap="round" stroke-linejoin="round" stroke-width="8.55"/>
  </g>
</svg>
