<svg id="hair_0028" xmlns="http://www.w3.org/2000/svg" viewBox="0 0 320.85 324.81">
  <title>hair_0028_back</title>
  <path id="hair_0028_back" d="M215.7,21.8h0S100.61,13.37,68,130c-13.58,50.15-8.46,79.74-.2,102.32C75,252.15,94.85,291,63.81,304.6c-6.14,2.69,3.18,16,16.9,19.6,14.75,3.82,23.06,2.83,33.83-3.13,0,0,18.93,27.1,48.94,5.25,0,0,25.56,24.7,52.23,2h0c26.67,22.67,52.23-2,52.23-2,30,21.85,48.94-5.25,48.94-5.25,10.77,6,21.75,7,33.83,3.13,13.51-4.28,21.15-16.91,16.9-19.6-28.41-18-11.2-52.45-3.94-72.27,8.27-22.58,13.38-52.17-.19-102.32C330.82,13.37,215.72,21.8,215.72,21.8h0" transform="translate(-55.29 -17.39)" fill="#fff" stroke="#231815" stroke-linecap="round" stroke-linejoin="round" stroke-width="8.55"/>
</svg>
