<svg id="hair_0043" xmlns="http://www.w3.org/2000/svg" viewBox="0 0 278.59 188.14">
  <title>hair_0043_front</title>
  <g id="hair_0043_front">
    <path id="c" d="M91.2,215.74c33-17.3,58-52.58,58-52.58s18.48,22.28,41.84,33.79c38.15,18.79,87.21,17.83,88.67,14.5s-12.14-28.14-14.31-47.6c0,0,39.28,49.85,77.55,51.89,0,0,12.26-10.64,12.13-38.22-.26-54.23-19.17-145.64-133.5-145.64-110.89,0-141.2,83.45-144.77,137.82-1.21,18.37,1,31.38,5.5,38.68A19.46,19.46,0,0,0,91.2,215.74Z" transform="translate(-76.47 -31.88)" fill="#fff"/>
    <path id="w" d="M86.88,215.74c34.71-15.75,62.31-52.58,62.31-52.58s18.48,22.28,41.84,33.79c38.15,18.79,87.21,17.83,88.67,14.5s-12.14-28.14-14.31-47.6c0,0,39.28,49.85,77.55,51.89" transform="translate(-76.47 -31.88)" fill="none" stroke="#231815" stroke-linecap="round" stroke-linejoin="round" stroke-width="8.55"/>
  </g>
</svg>
