<svg id="hair_0028" xmlns="http://www.w3.org/2000/svg" viewBox="0 0 299.32 265.95">
  <title>hair_0028_front</title>
  <g id="hair_0028_front">
    <path id="c" d="M84.15,213.83c5.5,36.23,16,65.62,41.14,76.78,13.24,5.88,14.05,1.52,7.93-6.07C110.24,256,109.8,202,109.8,202c38.33-13.72,81.66-18.82,105.92-18.82h0a305.9,305.9,0,0,1,42.22,3.43l15.56-23,11.13,27.91a306.94,306.94,0,0,1,37,10.52s-.44,54-23.42,82.51c-6.12,7.6-5.31,11.95,7.93,6.07,25.15-11.16,35.07-36.93,40.57-73.16,0,0,15.16,3.67,16.37-5.61,5.67-43.5,10.13-180.18-147.44-180.18C73.08,31.65,63.54,154.2,66.08,197.58,67.14,215.76,84.15,213.83,84.15,213.83Z" transform="translate(-65.76 -31.65)" fill="#fff"/>
    <path id="line" d="M84.15,213.83c5.5,36.23,16,65.62,41.14,76.78,13.24,5.88,14.05,1.52,7.93-6.07C110.24,256,109.8,202,109.8,202c38.33-13.72,81.66-18.82,105.92-18.82h0A306.16,306.16,0,0,1,258,186.64v0l15.65-23.36,10.8,28.19,0,0A307,307,0,0,1,321.63,202s-.44,54-23.42,82.51c-6.12,7.6-5.31,11.95,7.93,6.07,25.15-11.16,35.93-38.46,41.14-76.78" transform="translate(-65.76 -31.65)" fill="none" stroke="#231815" stroke-linecap="round" stroke-linejoin="round" stroke-width="8.55"/>
  </g>
</svg>
