<svg id="hair_0031" xmlns="http://www.w3.org/2000/svg" viewBox="0 0 319.01 321.35">
  <title>hair_0031_back</title>
  <path id="hair_0031_back" d="M240.84,271.54c15.94,47.5,64.81,61.91,73.07,62.36,0-8.84-.38-18.61,1.85-22.17,5.48,7.39,19.3,15.47,30.63,18.33-5.33-21,5.24-51,5.24-51,11.4,6.78,20,6.87,20,6.87-8.38-20.28-6.89-46.29-4.66-67.12C387.07,32,257.22,5.7,216.44,27.57,175.66,5.7,45.81,32,65.87,218.77c2.24,20.84,3.72,46.84-4.66,67.12,0,0,8.64-.09,20-6.87,0,0,10.58,30,5.24,51,11.33-2.86,25.15-10.94,30.63-18.33,2.23,3.56,1.84,13.33,1.84,22.17,8.25-.45,57.13-14.86,73.07-62.36Z" transform="translate(-56.94 -16.82)" fill="#fff" stroke="#231815" stroke-linecap="round" stroke-linejoin="round" stroke-width="8.55"/>
</svg>
