<svg id="hair_0047" xmlns="http://www.w3.org/2000/svg" viewBox="0 0 287.01 198.45">
  <title>hair_0047_front</title>
  <g id="hair_0047_front">
    <path id="c" d="M347.76,218.66c-73.11,10.56-215.61-65-215.61-65S97.92,178.42,88.61,215a6.46,6.46,0,0,1-7-2.84c-5.07-7.26-10.8-23.21-9.82-53.36,1.69-51.61,43.77-131.29,144-131.11,107.55,0,141.46,103.23,142.74,132.65C360.13,196.79,350.56,214.18,347.76,218.66Z" transform="translate(-71.71 -27.66)" fill="#fff"/>
    <path id="_" data-name="^" d="M353.07,220.23a4.28,4.28,0,0,0-4.84-3.62c-61.82,8.93-177.55-47.89-207.06-63.07-.1-.07-.18-.14-.28-.2a254,254,0,0,1-28.36-19.12,4.27,4.27,0,0,0-5.35,6.67c.4.32,7.69,6.14,18.45,13.12-8.45,8.55-29.24,31.82-39.19,63a4.27,4.27,0,1,0,8.14,2.6c9.8-30.64,31.42-53.87,38.29-60.69,19.42,10.28,130.28,67.23,201.17,67.23a108.11,108.11,0,0,0,15.41-1A4.28,4.28,0,0,0,353.07,220.23Z" transform="translate(-71.71 -27.66)" fill="#231815"/>
  </g>
</svg>
