<svg id="hair_0023" xmlns="http://www.w3.org/2000/svg" viewBox="0 0 309.77 229.21">
  <title>hair_0023_front</title>
  <g id="hair_0023_front">
    <path id="c" d="M354.32,214.78a52.73,52.73,0,0,1-68.73-29.29,52.64,52.64,0,0,1-70.4-8.05,52.64,52.64,0,0,1-70.4,8.05A52.73,52.73,0,0,1,76,214.78S-8.76-6.31,215.18-6.31,354.32,214.78,354.32,214.78Z" transform="translate(-60.29 6.31)" fill="#fff"/>
    <path id="www" d="M354.32,214.78a52.73,52.73,0,0,1-68.73-29.29,52.64,52.64,0,0,1-70.4-8.05,52.64,52.64,0,0,1-70.4,8.05A52.73,52.73,0,0,1,76,214.78" transform="translate(-60.29 6.31)" fill="none" stroke="#231815" stroke-linecap="round" stroke-linejoin="round" stroke-width="8.55"/>
  </g>
</svg>
