<svg id="hair_0016" xmlns="http://www.w3.org/2000/svg" viewBox="0 0 292.47 241.72">
  <title>hair_0016_front</title>
  <g id="hair_0016_front">
    <path id="c" d="M314.27,201.29s3,35.88-2.92,54.32c0,.68,40.25-6,50-76.91,0,0,14.18-160.49-146.37-160.49C57.78,18.2,69.42,164.58,69.42,164.58c3.64,60.21,46.43,90.86,46.91,91,.32-61.57,16.87-95.76,16.87-95.76S190.44,221.28,254.54,217l-15.1-52.39s22,27,74.82,36.7" transform="translate(-69.22 -18.2)" fill="#fff"/>
    <path id="l" d="M80.4,202.27c6.42,41.23,35.55,53.21,35.92,53.33.32-61.57,16.87-95.76,16.87-95.76S190.44,221.28,254.54,217l-15.1-52.39s27.6,28.74,78.46,37.37" transform="translate(-69.22 -18.2)" fill="none" stroke="#231815" stroke-linecap="round" stroke-linejoin="round" stroke-width="8.55"/>
    <path id="r" d="M314.27,201.29s3.64,33.57-2.92,54.32c0,.68,36.15-4.9,44.65-63.63" transform="translate(-69.22 -18.2)" fill="none" stroke="#231815" stroke-linecap="round" stroke-linejoin="round" stroke-width="8.55"/>
  </g>
</svg>
