<svg id="hair_0039" xmlns="http://www.w3.org/2000/svg" viewBox="0 0 275.97 193.28">
  <title>hair_0039_front</title>
  <g id="hair_0039_front">
    <path id="c" d="M347.65,215.37c-45.4-24.63-127.3-25.81-132.57-25.81s-79.09,0-128.81,26.27c0,0-49-179.58,128.81-185.23C390.59,25,347.65,215.37,347.65,215.37Z" transform="translate(-77.6 -30.47)" fill="#fff"/>
    <path id="l" d="M350,187.67a4.27,4.27,0,0,0-4.92,3.51A144.49,144.49,0,0,1,340.75,209c-43.8-22.24-106.12-23.8-124.64-23.74h-1.06c-18.49-.05-80.84,1.5-124.64,23.74a145.11,145.11,0,0,1-4.32-17.83,4.28,4.28,0,0,0-8.43,1.41c.13.76,3.17,18.78,8.67,28.92a4.28,4.28,0,1,0,7.52-4.08l-.23-.45c42.08-21.7,103.29-23.22,121.41-23.16h1.12c18.1,0,79.33,1.46,121.41,23.16l-.23.45a4.28,4.28,0,1,0,7.52,4.08c5.5-10.14,8.55-28.16,8.68-28.92A4.27,4.27,0,0,0,350,187.67Z" transform="translate(-77.6 -30.47)" fill="#231815"/>
  </g>
</svg>
