<svg id="hair_0021" xmlns="http://www.w3.org/2000/svg" viewBox="0 0 327.7 281.25">
  <title>hair_0021_back</title>
  <path id="hair_0021_back" d="M216.47,17.21c76.75,0,115.1,41.16,129,64.25,23.32,38.81,27.21,84.59,23.74,109.7-3.75,27.15,15,41.22,2.28,67.09-8.67,17.61-31,15.95-31,15.95-8.65,16.54-43.31,21.81-52,7,0,0-38.12-1-44.18-14.76H188.54c-6.06,13.8-44.18,14.76-44.18,14.76-10.29,12.87-43.38,9.5-52-7,0,0-22.34,1.66-31-15.95-12.74-25.87,6-39.94,2.28-67.09-3.47-25.11.43-70.89,23.74-109.7,13.87-23.09,52.22-64.25,129-64.25" transform="translate(-52.54 -12.94)" fill="#fff" stroke="#231815" stroke-linecap="round" stroke-linejoin="round" stroke-width="8.55"/>
</svg>
