<svg id="hair_0025" xmlns="http://www.w3.org/2000/svg" viewBox="0 0 288.44 221.43">
  <title>hair_0025_front</title>
  <g id="hair_0025_front">
    <path id="c" d="M75.53,210c18.73,33.1,43.27,28.7,43.27,28.78C108.42,222.53,111,207,111,207c74.53-12.29,91.39-41.31,91.39-41.31a115.19,115.19,0,0,1-3.18,54.44s49-9.66,102.93-67.87c0,0,17.47,43.7,14.06,82,0-.09,28.34-5.76,36.41-33.41,0,0,5.67-177.89-136.13-177.89C60.84,23,75.53,210,75.53,210Z" transform="translate(-71.19 -22.99)" fill="#fff"/>
    <path id="l" d="M75.46,215.57c18.73,33.09,43.33,23.14,43.33,23.23-10.38-16.27-11.57-31.48-11.57-31.48,74.53-12.29,95.17-41.6,95.17-41.6s6.12,26.65-3.18,54.44c0,0,48.17-9.66,102.93-67.87,0,0,17.47,43.7,14.06,82,0-.09,31.09-10.42,39.15-38.08" transform="translate(-71.19 -22.99)" fill="none" stroke="#231815" stroke-linecap="round" stroke-linejoin="round" stroke-width="8.55"/>
    <path id="_." data-name="." d="M100.36,207.71s5.1.2,16.25-2.08" transform="translate(-71.19 -22.99)" fill="none" stroke="#231815" stroke-linecap="round" stroke-linejoin="round" stroke-width="8.55"/>
  </g>
</svg>
