<svg id="hair_0046" xmlns="http://www.w3.org/2000/svg" viewBox="0 0 412.02 363.84">
  <title>hair_0046_back</title>
  <g id="hair_0046_back">
    <path id="l" d="M107,189.67,167.76,56.61S94.51-21.23,42.32,34.35c-48.86,52,7.35,98.45-14.22,146.79-14.54,32.57-25.48,45.51,9.61,75.23,0,0-25.65,27.1,9.32,45,0,0-20.12,21.12,14.61,44A17.39,17.39,0,0,0,65,360.46c9.07,11.23,20.63,10.45,23.8,6.55,1.84-2.27-7.74-6.32-3.9-17.71,0,0,25.46-7.24,9.71-32.6,0,0,38.42-14.66,19-53.78,0,.32,24.5-15.73,4.88-57.35C113.41,195.11,107,189.67,107,189.67Z" transform="translate(-10.02 -10.07)" fill="#fff" stroke="#231815" stroke-linecap="round" stroke-linejoin="round" stroke-width="8.55"/>
    <path id="r" d="M325,189.67,264.3,56.61s73.24-77.84,125.44-22.26c48.86,52-7.35,98.45,14.22,146.79,14.54,32.57,25.48,45.51-9.61,75.23,0,0,25.66,27.1-9.32,45,0,0,20.12,21.12-14.61,44A17.37,17.37,0,0,1,367,360.46C358,371.7,346.41,370.91,343.25,367c-1.84-2.27,7.73-6.32,3.9-17.71,0,0-25.46-7.24-9.71-32.6,0,0-38.42-14.66-19-53.78,0,.32-24.5-15.73-4.88-57.35C318.64,195.11,325,189.67,325,189.67Z" transform="translate(-10.02 -10.07)" fill="#fff" stroke="#231815" stroke-linecap="round" stroke-linejoin="round" stroke-width="8.55"/>
    <path id="O" d="M216,286.63c-112.29,0-136.5-62.18-136.5-62.18-8.24-14.76-14.4-36.76-14.43-58.2C65,61.37,139.52,24.35,166.33,18.55c31.3-6.77,49.7,1.18,49.7,1.18h0s18.4-8,49.7-1.18c26.81,5.8,101.34,42.82,101.23,147.7,0,21.44-6.19,43.45-14.43,58.2,0,0-24.21,62.18-136.5,62.18" transform="translate(-10.02 -10.07)" fill="#fff" stroke="#231815" stroke-linecap="round" stroke-linejoin="round" stroke-width="8.55"/>
  </g>
</svg>
