<svg id="hair_0035" xmlns="http://www.w3.org/2000/svg" viewBox="0 0 286.67 189.95">
  <title>hair_0035_front</title>
  <g id="hair_0035_front">
    <path id="b" d="M269.3,151.82s44.27,28.29,78.5,69c0,0,19.3-39.67,11.23-81.12C349.2,89.2,305.13,35.14,216.43,35.14c-90.24,0-130,57.77-139.13,108.66-8.42,46.73,3.25,58.66,8.13,71.89,0,0,79.14-7.9,122.87-30.58C241.7,167.78,269.3,151.82,269.3,151.82Z" transform="translate(-74.33 -35.14)" fill="#fff"/>
    <path id="v" d="M89,215.19s63.55-4.26,119.32-30.08c25.52-11.82,61-33.29,61-33.29s47.61,30.15,78.5,69" transform="translate(-74.33 -35.14)" fill="none" stroke="#231815" stroke-linecap="round" stroke-linejoin="round" stroke-width="8.55"/>
  </g>
</svg>
