<svg id="hair_0035" xmlns="http://www.w3.org/2000/svg" viewBox="0 0 341.91 329.78">
  <title>hair_0035_back</title>
  <path id="hair_0035_back" d="M216.8,324.14c27.08,28.7,52.63,1.27,52.63,1.27,30.24,29.16,53,0,53,0,30.18,23.61,67.34.31,51.72-29.62-10.47-20.06-5.32-28.16,3.11-42.89,12.35-21.59,2.33-30-4.27-50.89s5.68-28.42-6.62-76.86c-12.26-48.27-58-108-149.93-108S78.77,76.88,66.5,125.15c-12.3,48.45,0,56-6.62,76.86S43.26,231.3,55.61,252.9c8.43,14.74,13.59,22.83,3.11,42.89C43.09,325.72,80.26,349,110.44,325.41c0,0,22.76,29.16,53,0,0,0,25.55,27.43,52.63-1.27" transform="translate(-45.48 -12.87)" fill="#fff" stroke="#231815" stroke-linecap="round" stroke-linejoin="round" stroke-width="8.55"/>
</svg>
