<svg id="hair_0054" xmlns="http://www.w3.org/2000/svg" viewBox="0 0 278.43 333.76">
  <title>hair_0054_front</title>
  <g id="hair_0054_front">
    <g>
      <g>
        <path d="M79.65,169.41c.21,1.73-5.66,24.92,3.32,38.41,17.13,25.74,41.11,94.93,51.51,111.62-16.12-95,21.91-189.91,21.91-189.91,21.88,35.17,62.52,88.95,109.17,140.2-8.07-49.1-14.79-91.07-16.18-140.2,0,0,46.35,92.6,55.41,196.91,18.93-39.25,44-117.66,50.24-174.1,0,0,23.14-147-140.41-147S79.65,169.41,79.65,169.41Z" transform="translate(-77.74 7.32)" fill="#fff"/>
        <path d="M135.2,9.25C160-17.8,340-14.38,344.85,169.41c2.08,78.37-40,145.86-40,145.86S284.14,74.49,135.2,9.25Z" transform="translate(-77.74 7.32)" fill="#a50319" stroke="#231815" stroke-linecap="round" stroke-linejoin="round" stroke-width="8.55"/>
      </g>
      <path d="M156.41,129.53c-11.45,2.86-67,91.51-23.19,187.73C117.16,241,156.41,129.53,156.41,129.53Z" transform="translate(-77.74 7.32)" fill="#a50319"/>
      <path d="M156.41,129.53c-11.45,2.86-65.53,89-23.19,187.73" transform="translate(-77.74 7.32)" fill="none" stroke="#231815" stroke-linecap="round" stroke-linejoin="round" stroke-width="8.55"/>
      <path d="M88.25,203c5.9,46.93,30.45,90.31,46.24,116.39-14.76-97.39,21.91-189.91,21.91-189.91,26.21,39.88,70.74,100.11,109.17,140.2-10.34-45.25-14.79-103.64-16.18-140.2" transform="translate(-77.74 7.32)" fill="none" stroke="#231815" stroke-linecap="round" stroke-linejoin="round" stroke-width="8.55"/>
    </g>
  </g>
</svg>
