<svg id="hair_0041" xmlns="http://www.w3.org/2000/svg" viewBox="0 0 296.91 195.04">
  <title>hair_0041_front</title>
  <g id="hair_0041_front">
    <path id="c" d="M86.6,219.13c33.12,11.15,51.68-20.32,51.68-20.32s15.77,15.4,53.8,10.56c47.33-6,83-47.58,83-47.58s24.94,51.88,69.59,56.94l16.94-3.35C369.22,169.5,370.2,31.25,210,31.25c-150.67,0-146.72,153-140.48,186Z" transform="translate(-67.28 -31.25)" fill="#fff"/>
    <path id="www" d="M79.87,218.41c38.07,14.55,58.41-19.6,58.41-19.6s15.68,14.64,53.8,10.56c47.42-5.08,83-47.58,83-47.58s28.26,55.49,74.92,55.89" transform="translate(-67.28 -31.25)" fill="none" stroke="#231815" stroke-linecap="round" stroke-linejoin="round" stroke-width="8.55"/>
  </g>
</svg>
