<svg id="hair_0010" xmlns="http://www.w3.org/2000/svg" viewBox="0 0 278.78 195.42">
  <title>hair_0010_front</title>
  <g id="hair_0010_front">
    <path id="c" d="M87.38,218.69c45.83-1.85,114.71-43.76,114.71-43.76s-9.08,21-9.24,21.65c71.68-5.06,97.71-35.46,97.71-35.46s31.65,49.26,54.92,57.17c0,0,52.3-190.74-134.32-190.74C41.65,27.54,87.38,218.69,87.38,218.69Z" transform="translate(-79.68 -27.54)" fill="#fff"/>
    <path id="l" d="M354.18,218.69c-39.47-9.33-63.61-57.58-63.61-57.58s-26,30.4-97.71,35.46c.15-.63,9.24-21.65,9.24-21.65S142,212.2,84,217.36" transform="translate(-79.68 -27.54)" fill="none" stroke="#231815" stroke-linecap="round" stroke-linejoin="round" stroke-width="8.55"/>
  </g>
</svg>
