<svg id="hair_0040" xmlns="http://www.w3.org/2000/svg" viewBox="0 0 274.26 283.84">
  <title>hair_0040_front</title>
  <g id="hair_0040_front">
    <path id="c" d="M81.91,188.5c2.85,23.9,12.55,65.07,32,96.33C123,190.2,201.89,140.5,201.89,140.5c0,30.16-13.9,67.45-32.54,96.33,48.76-18.44,88.85-54.38,106.29-107.39,0,0,48.39,56.53,33.62,153.92,18.45-28.09,36.92-53.4,43.13-109.84,0,0,26.19-168.24-137.37-168.24S81.91,188.5,81.91,188.5Z" transform="translate(-79.67 -5.27)" fill="#fff"/>
    <path id="l" d="M348,169.17a4.28,4.28,0,0,0-4.65,3.86c-4.29,46.53-15,74-26.58,93.38,3.44-42.83-5.14-76.47-13.56-98.08s-17.91-35-21.56-39.77A158.48,158.48,0,0,0,286.28,111a4.27,4.27,0,1,0-8.38-1.67,154.87,154.87,0,0,1-5,18.58,4.25,4.25,0,0,0-.16.48c-9.84,29.25-33.64,72.61-90.75,99,18.36-30.93,25.41-68.41,25.41-86.89,0-.09,0-.18,0-.27a4.2,4.2,0,0,0,0-.48c0-.14-.06-.27-.1-.4s-.07-.27-.12-.4a4.2,4.2,0,0,0-.2-.42c0-.08-.07-.17-.12-.25l-.06-.08a4.24,4.24,0,0,0-.28-.37c-.08-.1-.16-.2-.24-.3s-.2-.18-.31-.27-.21-.19-.32-.26-.23-.14-.35-.21-.24-.14-.36-.2-.26-.09-.39-.13-.26-.09-.4-.12l-.37-.05a4.25,4.25,0,0,0-.48,0h-.09l-.26,0a4.2,4.2,0,0,0-.48,0l-.39.1a3.09,3.09,0,0,0-.83.33c-.08,0-.17.07-.25.12-.82.5-20.31,12.47-41.25,36.65C142,193.9,120.38,226.83,112.76,271.4c-14.75-30.59-22.47-74.52-22.4-98a4.27,4.27,0,0,0-4.26-4.29h0a4.27,4.27,0,0,0-4.27,4.26c-.08,27.51,10.24,82.32,29.81,113.68a4.28,4.28,0,0,0,7.88-1.83c5-48.85,28-84.57,46.47-105.93a204.88,204.88,0,0,1,32.52-30.4c-2,22-11.07,58.28-31.28,85.33a4.27,4.27,0,0,0,5,6.55c34.71-13.28,62.73-33.95,83.3-61.43a174.07,174.07,0,0,0,22.74-41c11.42,16.91,39.71,67.9,28.12,144.33a4.27,4.27,0,0,0,7.66,3.19c22.08-29.64,33.42-63.16,37.94-112.09A4.27,4.27,0,0,0,348,169.17Z" transform="translate(-79.67 -5.27)" fill="#231815"/>
  </g>
</svg>
