<svg id="hair_0002" xmlns="http://www.w3.org/2000/svg" viewBox="0 0 284.93 195.94">
  <title>hair_0002_front</title>
  <g id="hair_0002_front">
    <path id="b" d="M86.46,215.28,122,149.07s24.88,30.08,93.83,40.29l-11.36-19.78s41.6,30.79,80.32,30l-4.46-14.79s28,22.79,65.67,31.48a17.45,17.45,0,0,0,6.16-7.49c5.23-13.88,12.1-47.47-1.5-86.92-17.11-49.63-46.39-94.42-138-94.42S79.34,105.85,75.29,149.26c-3.52,37.76-1,53.72,4.05,61.09A13.68,13.68,0,0,0,86.46,215.28Z" transform="translate(-73.66 -27.42)" fill="#fff"/>
    <path id="l" d="M86.65,216.25,122,149.07s24.88,30.08,93.83,40.29l-11.36-19.78s41.6,30.79,80.32,30l-4.46-14.79s26.73,25.62,64.36,34.31" transform="translate(-73.66 -27.42)" fill="none" stroke="#231815" stroke-linecap="round" stroke-linejoin="round" stroke-width="8.55"/>
  </g>
</svg>
