<svg id="hair_0017" xmlns="http://www.w3.org/2000/svg" viewBox="0 0 328.33 264.75">
  <title>hair_0017_back</title>
  <path id="hair_0017_back" d="M309,41.91s9.23-.19,13.61-1.88c9.8-3.78,8.62-16.75-3.2-18.48-9.17-1.34-17.8,4.22-17.8,4.22-.42-6.76-2-15.71-7.45-20.4-5-4.28-14.77-3.54-16,5.93-1,7.54,6.69,17.28,6.69,17.28S245.19-25.76,167.5,2.07c-84.19,30.17-90.72,90-90.72,90s-7.38,4.59-13,14.92c-11.38,20.79-21.63,59.51,8.38,93.65,0,0-7.67,39.29,47.88,46.46,23.68,3.06,180.55,7.58,211.41-6.06,18.2-8,13.74-20.49,13.74-20.49,37-23.1,28.28-77.86,18.71-93.19C363.87,127.36,369.45,58.5,309,41.91Z" transform="translate(-48.13 10.14)" fill="#fff" stroke="#231815" stroke-linecap="round" stroke-linejoin="round" stroke-width="8.55"/>
</svg>
