<svg id="hair_0050" xmlns="http://www.w3.org/2000/svg" viewBox="0 0 377.32 462.05">
  <title>hair_0050_back</title>
  <g id="hair_0050_back">
    <path id="_3" data-name="3" d="M370.42,473.36s18.41,6.52,32.44,5.67c24.06-1.46,30.6-6.1,30.6-6.1S402.2,434.52,370.42,473.36Z" transform="translate(-60.42 -21.33)" fill="#fff" stroke="#231815" stroke-linecap="round" stroke-linejoin="round" stroke-width="8.55"/>
    <polygon id="_2" data-name="2" points="230.6 439.6 321.17 439.6 321.17 455.32 231.33 455.32 230.6 439.6" fill="#fff" stroke="#231815" stroke-linecap="round" stroke-linejoin="round" stroke-width="8.55"/>
    <path id="_1" data-name="1" d="M368.61,356.5c-7.16-39.08-5.93-129.77-10.52-186.13C345.13,10.83,216.07,26,216.07,26S90.45,18.07,70.17,170C58.72,255.94,58,383.52,141.33,443c70.76,50.58,211.17,29.2,211.17,29.2C385,461.85,383,434.72,368.61,356.5Z" transform="translate(-60.42 -21.33)" fill="#fff" stroke="#231815" stroke-linecap="round" stroke-linejoin="round" stroke-width="8.55"/>
  </g>
</svg>
