<svg id="hair_0058" xmlns="http://www.w3.org/2000/svg" viewBox="0 0 270.31 269.46">
  <title>hair_0058_front</title>
  <g id="hair_0058_front">
    <path id="c" d="M215.66,30.9c75.52,0,114.08,47,127.89,89.72,15.81,48.94.9,94.53.9,94.53-10.92,53.68-52.56,80.94-52.56,80.94A190,190,0,0,0,307.63,227c.17-4.63.2-9.19.1-13.66-27.74-3.42-59.23-13.71-84.88-36,1.19,11.71,9.2,31.07,12.85,36-33.8-3.8-81-47.24-98.42-79.19h0c-3.06,8.47-15.24,47.53-13.59,92.85a190.09,190.09,0,0,0,15.74,69.14s-41.64-27.25-52.56-80.94c0,0-14.91-45.59.9-94.53C101.58,77.85,140.14,30.9,215.66,30.9Z" transform="translate(-80.5 -30.9)" fill="#fff"/>
    <path d="M345.3,211a4.27,4.27,0,0,0-5,3.33c-6.73,33.08-25.77,56-38.51,68.08a196.46,196.46,0,0,0,10.13-55.28,253.45,253.45,0,0,0-.8-30.71,4.27,4.27,0,0,0-8.5.73q.48,5.66.72,11.25c-22.17-3.36-52.12-12.11-77.66-34.32a4.27,4.27,0,0,0-7,3.65c.86,8.47,5.11,20.89,9,29.58C197,198.35,157,161.25,141,132.06c0-.08-.1-.14-.14-.21a4.23,4.23,0,0,0-.26-.38c-.08-.11-.17-.2-.27-.3a3.47,3.47,0,0,0-.64-.55l-.34-.22a4.24,4.24,0,0,0-.41-.2l-.23-.11-.12,0a4.27,4.27,0,0,0-.44-.11l-.39-.07-.41,0a4.23,4.23,0,0,0-.42,0l-.38.06a4.26,4.26,0,0,0-.44.09l-.33.12a4.25,4.25,0,0,0-.45.19l-.11,0-.19.13a4.24,4.24,0,0,0-.4.28c-.1.08-.19.17-.28.25a4.19,4.19,0,0,0-.31.32c-.09.11-.17.22-.25.33s-.15.22-.22.34a4.25,4.25,0,0,0-.2.41c0,.08-.08.15-.11.23-.64,1.78-15.68,44.07-13.84,94.45a196.57,196.57,0,0,0,10.13,55.28c-12.74-12.12-31.78-35-38.51-68.08a4.27,4.27,0,0,0-8.36,1.7c11.14,54.8,52.64,82.5,54.4,83.66a4.27,4.27,0,0,0,6.24-5.28A186.94,186.94,0,0,1,128,226.8c-1.32-36,6.24-67.62,10.53-82.41,21.41,32.74,65.11,69.59,96.73,73.15a4.27,4.27,0,0,0,3.91-6.77c-2.3-3.12-6.76-13.19-9.6-22.71,25.32,18.46,53.14,26,74,29,0,3.29,0,6.55-.14,9.76A186.91,186.91,0,0,1,288,294.38a4.27,4.27,0,0,0,6.24,5.28c1.76-1.15,43.26-28.86,54.4-83.65A4.27,4.27,0,0,0,345.3,211Z" transform="translate(-80.5 -30.9)" fill="#231815"/>
  </g>
</svg>
