<svg id="hair_0044" xmlns="http://www.w3.org/2000/svg" viewBox="0 0 277.32 195.05">
  <title>hair_0044_front</title>
  <g id="hair_0044_front">
    <path id="c" d="M348.45,215.4c-45.4-24.63-127.3-25.81-132.57-25.81s-79.1,0-128.81,26.27c0,0-49-179.58,128.81-185.23C391.39,25,348.45,215.4,348.45,215.4Z" transform="translate(-77.73 -30.5)" fill="#fff"/>
    <path id="m" d="M350.9,188a4.3,4.3,0,0,0-4.4,4.14c-.16,5.33-.65,11.08-1.45,17.18-48.71-23.73-125.81-24-129.17-24-13.46,0-81.76,1.24-128,25.25a176,176,0,0,1-1.62-18.42,4.27,4.27,0,0,0-8.55.26A203.82,203.82,0,0,0,81.07,222a4.27,4.27,0,0,0,8.41-1.52c-.06-.34-.12-.67-.17-1,45.32-24.92,118.38-25.64,126.57-25.64.82,0,81.1.28,127.82,24.35-.13.77-.26,1.53-.4,2.31a4.27,4.27,0,1,0,8.41,1.52A204.14,204.14,0,0,0,355,192.4,4.28,4.28,0,0,0,350.9,188Z" transform="translate(-77.73 -30.5)" fill="#231815"/>
  </g>
</svg>
