<svg id="hair_0051" xmlns="http://www.w3.org/2000/svg" viewBox="0 0 280.06 207.58">
  <title>hair_0051_front</title>
  <g id="hair_0051_front">
    <path id="gray" d="M336.16,65.91c-6.31-23.8-68.27-40.39-119.93-40.39S102.59,42.11,96.29,65.91c-15.19,57.38-12.13,112.4-9.08,137.45h3.48c.63-36.29,6.13-54.51,16.54-72,4.34-7.28,7.9-8,21.58-5.57,26.69,4.76,71.26,8.39,87.42,8.39s60.72-3.63,87.41-8.39c13.69-2.44,17.24-1.71,21.58,5.57,10.41,17.44,15.91,35.66,16.54,72h3.47C348.27,178.29,351.33,123.23,336.16,65.91Z" transform="translate(-76.19 -16.97)" fill="#9fa0a0"/>
    <path id="white" d="M337.62,65.67c-6.3-23.8-69.73-41.22-121.4-41.22S101.13,41.87,94.83,65.67a344.51,344.51,0,0,0-9.37,51.53c16.1,3.9,42.17,8.43,43.3,8.62h.06c14.32,2.55,33.79,4.78,51.26,6.3l5,.42,3.85.3,4.84.35,3.44.23,4.53.27.55,0c5.66.31,10.46.48,13.94.48,9.8,0,30.06-1.34,50.44-3.45,3.35-.35,6.7-.71,10-1.1l2.35-.28c8.9-1.07,17.41-2.27,24.62-3.56h0c.56-.1,27-4.68,43.32-8.63A344.1,344.1,0,0,0,337.62,65.67Z" transform="translate(-76.19 -16.97)" fill="#fff"/>
    <path id="m" d="M344.42,63.72C335.88,31.47,264.31,17,216.22,17S96.56,31.47,88,63.72C66.23,146,81.18,220.4,81.33,221.14a4.28,4.28,0,0,0,8.37-1.73c0-.11-.37-1.84-.87-5a4.25,4.25,0,0,0,6.07-3.87c0-41.79,6.12-60.44,16-77,2.81-4.71,3.57-6,17.16-3.56,27,4.82,72.13,8.46,88.17,8.46s61.11-3.63,88.16-8.46c13.6-2.42,14.35-1.16,17.16,3.56,9.88,16.54,16,35.19,16,77a4.26,4.26,0,0,0,6.06,3.87c-.5,3.12-.85,4.85-.87,5a4.28,4.28,0,0,0,8.37,1.73C351.27,220.4,366.21,146,344.42,63.72Zm-9.7,76.52c3.82-.94,8.13-2,12.41-3.16q.29,5.26.42,10.28-4.19,1.12-9.07,2.35A100.1,100.1,0,0,0,334.72,140.24ZM94,149.72q-4.86-1.23-9.07-2.35.14-5,.42-10.28c4.29,1.13,8.59,2.22,12.41,3.16A100.09,100.09,0,0,0,94,149.72ZM86.6,196.87a391.18,391.18,0,0,1-1.84-43.06q3.47.92,7.36,1.9C89.16,166.42,87.24,179.48,86.6,196.87Zm216.29-75.25c-26.62,4.75-70.93,8.32-86.66,8.32s-60-3.57-86.66-8.32c-13.5-2.41-20-2.42-26,7.59-1,1.73-2,3.49-3,5.28-4.46-1.09-9.71-2.41-14.86-3.78a351,351,0,0,1,10.58-64.8c3-11.44,18.8-22,44.4-29.67,22.35-6.72,50.59-10.73,75.54-10.73s53.18,4,75.54,10.73c25.6,7.69,41.37,18.23,44.39,29.66a351,351,0,0,1,10.58,64.8c-5.15,1.37-10.4,2.69-14.86,3.78-1-1.79-1.95-3.54-3-5.27C322.92,119.2,316.38,119.21,302.89,121.62Zm43,75.24c-.64-17.39-2.56-30.44-5.51-41.14q3.89-1,7.36-1.9A391.13,391.13,0,0,1,345.85,196.86Z" transform="translate(-76.19 -16.97)" fill="#231815"/>
  </g>
</svg>
