<svg id="hair_0059" xmlns="http://www.w3.org/2000/svg" viewBox="0 0 272.72 328.01">
  <title>hair_0059_front</title>
  <g id="hair_0059_front">
    <path id="c" d="M343.23,201.88l7.36,6.87c10.05-51.81-12.35-180.29-134.23-180.29S72.08,156.93,82.13,208.75l7.36-6.87H89.4c.38,17.51,11.35,67.61,22.72,97.89,15.17,40.42,33.5,52.43,33.5,52.43-16.09-33-13.64-115.68-11.31-153.08h.12c98.8,5.1,128.87-29.39,140.33-51.15,0,0,8.77,19.79,22.59,36.77,2.07,23.17,8.49,129-10.25,167.46,0,0,18.32-12,33.49-52.43,11.37-30.29,22.34-80.38,22.73-97.89Z" transform="translate(-80 -28.45)" fill="#fff"/>
    <path id="l" d="M343.41,197.61a4.28,4.28,0,0,0-4.36,4.18c-.37,17-11.33,66.85-22.46,96.49-6.42,17.11-13.43,29-19.23,36.85,12.71-53.22,4.34-149.66,4.24-150.76a4.27,4.27,0,0,0-.94-2.32c-13.27-16.31-21.91-35.61-22-35.8A4.27,4.27,0,0,0,271,146c-18.65,35.41-63.11,51.9-132.14,49.06.26-3.7.52-7,.78-9.92a4.27,4.27,0,1,0-8.51-.76c-.1,1.1-8.45,97.57,4.25,150.77-5.81-7.89-12.82-19.74-19.24-36.86C105,268.61,94,218.77,93.67,201.78a4.27,4.27,0,0,0-8.54.18c.38,17.79,11.29,68.11,23,99.3,15.48,41.25,34.36,54,35.16,54.5a4.27,4.27,0,0,0,6.18-5.45c-14.55-29.82-13.64-104.4-11.17-146.76,68.16,2.82,113.9-12.82,136.11-46.59a184.92,184.92,0,0,0,18.81,29.43c3,35.18,6.88,129.42-9.95,163.92a4.27,4.27,0,0,0,6.18,5.45c.8-.52,19.66-13.24,35.15-54.5,11.7-31.16,22.61-81.49,23-99.3A4.27,4.27,0,0,0,343.41,197.61Z" transform="translate(-80 -28.45)" fill="#231815"/>
  </g>
</svg>
