<svg id="hair_0015" xmlns="http://www.w3.org/2000/svg" viewBox="0 0 319.68 287.33">
  <title>hair_0015_front</title>
  <g id="hair_0015_front">
    <path id="c" d="M215.7,179c60.61,0,96.38,20,96.38,20s7.67,50.22-6.57,83.81c0,0,93.35-32.72,66.77-151.48C343.91,4.66,225.71,15.48,211.59,15.48S95.07,15.25,68.5,135.81c-11,49.7-8.13,83.41,3.67,79.7,6.76-2.12,42.54-19,42.54-19S158.12,177.85,215.7,179Z" transform="translate(-61.63 0.19)" fill="#fff"/>
    <g id="edge">
      <path id="_3" data-name="3" d="M316,198a229.09,229.09,0,0,0-38.8-12.35S274.52,72.16,251.61,7.88c0,0,16.7,4.38,16.7,4.38C316,77.86,316,198,316,198Z" transform="translate(-61.63 0.19)" fill="#d3ac64"/>
      <path id="_2" data-name="2" d="M113.16,199A187.28,187.28,0,0,1,152,185.69s2.49-113,25.4-177.28c0,0-17.23,4.81-17.23,4.81C112.46,78.83,113.16,199,113.16,199Z" transform="translate(-61.63 0.19)" fill="#d3ac64"/>
      <path id="_1" data-name="1" d="M190.85,179.65s32.23-1.4,44.45,0c0,0-1-111.65-11.6-175.44l-18.21.13C193.78,65.42,190.85,179.65,190.85,179.65Z" transform="translate(-61.63 0.19)" fill="#d3ac64"/>
    </g>
    <path id="l" d="M87.95,213.39S130.37,179,215.7,179c60.61,0,96.38,20,96.38,20s7.67,50.22-6.57,83.81c0,0,93.35-32.72,66.77-151.48C343.91,4.66,229.82,4.08,215.7,4.08c-8.06,0-48.7.19-87.37,23.92" transform="translate(-61.63 0.19)" fill="none" stroke="#231815" stroke-linecap="round" stroke-linejoin="round" stroke-width="8.55"/>
  </g>
</svg>
