<svg id="hair_0038" xmlns="http://www.w3.org/2000/svg" viewBox="0 0 305.21 326.26">
  <title>hair_0038_back</title>
  <g id="hair_0038_back">
    <path id="O" d="M327.53,62.16c0,61.7-49.74,96.44-111.09,96.44S105.34,127.27,105.34,62.16c0-53.27,49.74-96.44,111.09-96.44S327.53,8.9,327.53,62.16Z" transform="translate(-63.83 38.56)" fill="#fff" stroke="#231815" stroke-miterlimit="10" stroke-width="8.55"/>
    <path id="o-2" data-name="o" d="M218.25,20.41c75.78,0,149.09,48.18,146.46,147.45-.57,21.43-4.4,39.22-12.64,54,0,0-28.74,61.6-135.62,61.6s-135.62-61.6-135.62-61.6c-8.24-14.76-12.07-32.54-12.64-54C65.54,68.59,142.46,20.41,218.25,20.41Z" transform="translate(-63.83 38.56)" fill="#fff" stroke="#231815" stroke-linecap="round" stroke-linejoin="round" stroke-width="8.55"/>
    <path id="band" d="M218.24,20.41c41,0,81.18,14.08,109.09,42.68h0c-9.9-28-47.65-62-110.64-62C155,1.1,115,36.71,105.37,64.85h0C134.33,35.06,176.46,20.41,218.24,20.41Z" transform="translate(-63.83 38.56)" fill="#fff" stroke="#231815" stroke-linecap="round" stroke-linejoin="round" stroke-width="8.55"/>
  </g>
</svg>
