<svg id="hair_0048" xmlns="http://www.w3.org/2000/svg" viewBox="0 0 306.25 376.59">
  <title>hair_0048_back</title>
  <path id="hair_0048_back" d="M216.16,21.23h0s77.41-4.45,117.54,60.55C364.08,131,366.57,193,364.44,222.95,353,383.28,286.63,399.57,274.36,378.44a44.24,44.24,0,0,1-28.66,10.77c-18.49,0-29.11-10.77-29.11-10.77s-9.23,10.77-28,10.77c-20.42,0-30.65-10.77-30.65-10.77-12.27,21.13-78.61,4.84-90.07-155.49C65.75,193,68.24,131,98.62,81.78c40.12-65,117.54-60.55,117.54-60.55h0" transform="translate(-63.04 -16.89)" fill="#fff" stroke="#231815" stroke-linecap="round" stroke-linejoin="round" stroke-width="8.55"/>
</svg>
