<svg id="hair_0008" xmlns="http://www.w3.org/2000/svg" viewBox="0 0 303.92 211.1">
  <title>hair_0008_back</title>
  <path id="hair_0008_back" d="M361.82,164.85a13.13,13.13,0,0,0-5.18-10.45,13.15,13.15,0,0,0-1.74-23.92,13.14,13.14,0,0,0-5.12-20.71,13.12,13.12,0,0,0-9.39-19.55,13.1,13.1,0,0,0-10.83-16.08,13.09,13.09,0,0,0-12.9-15.48h-.09a13.08,13.08,0,0,0-18.73-10.37A13.08,13.08,0,0,0,279.28,37a13.09,13.09,0,0,0-17.16-7.28,13.07,13.07,0,0,0-19.88-3.07,13.07,13.07,0,0,0-18.9-4.17,13.08,13.08,0,0,0-21.86,1.54,13.09,13.09,0,0,0-20.28,2.23,13.08,13.08,0,0,0-18.11,8.84,13.08,13.08,0,0,0-19.78,5.5,13.08,13.08,0,0,0-17.61,10.94,13.09,13.09,0,0,0-14.88,14.52h-.09A13.14,13.14,0,0,0,97.61,79.24c0,.24,0,.48,0,.73a13.16,13.16,0,0,0-9,17.87A13.13,13.13,0,0,0,77.9,118a13.12,13.12,0,0,0-3.3,17.12,13.14,13.14,0,0,0-.07,22.56,13.14,13.14,0,0,0-1.11,20.69,13.14,13.14,0,0,0,4.72,20.14,13.11,13.11,0,0,0-2.53,7.74c0,7.26,5.88,13.69,13.12,13.69H343.05c7.24,0,13.12-6.43,13.12-13.69,0-3-.44-5.68-2.09-7.88,4.33-2.15,6.77-6.61,6.77-11.78A13.12,13.12,0,0,0,355.59,176,13.13,13.13,0,0,0,361.82,164.85Z" transform="translate(-63.89 -13.06)" fill="#fff" stroke="#231815" stroke-linecap="round" stroke-linejoin="round" stroke-width="8.55"/>
</svg>
