<svg id="hair_0056" xmlns="http://www.w3.org/2000/svg" viewBox="0 0 267.86 219.08">
  <title>hair_0056_front</title>
  <g id="hair_0056_front">
    <g id="side">
      <g id="left-side">
        <path id="b" d="M150,115s-48.89,40-58.33,102.78c0,0-23-74.44,24.28-136.85C158.79,25.4,150,115,150,115Z" transform="translate(-81.78 -3.01)" fill="#fff" stroke="#231815" stroke-linecap="round" stroke-linejoin="round" stroke-width="8.55"/>
        <path id="_3" data-name="3" d="M103.54,103.82s8.59,21,29.31,28.52" transform="translate(-81.78 -3.01)" fill="none" stroke="#231815" stroke-linecap="round" stroke-linejoin="round" stroke-width="8.55"/>
        <path id="_2" data-name="2" d="M93.82,126.47c3,5,11.14,17.8,25.37,23.63" transform="translate(-81.78 -3.01)" fill="none" stroke="#231815" stroke-linecap="round" stroke-linejoin="round" stroke-width="8.55"/>
        <path id="_1" data-name="1" d="M88.71,147.88c2.13,6.72,6.49,13.12,20,19.43" transform="translate(-81.78 -3.01)" fill="none" stroke="#231815" stroke-linecap="round" stroke-linejoin="round" stroke-width="8.55"/>
      </g>
      <g id="right-side">
        <path id="b-2" data-name="b" d="M281.44,115s48.89,40,58.33,102.78c0,0,23-74.44-24.28-136.85C272.62,25.4,281.44,115,281.44,115Z" transform="translate(-81.78 -3.01)" fill="#fff" stroke="#231815" stroke-linecap="round" stroke-linejoin="round" stroke-width="8.55"/>
        <path id="_3-2" data-name="3" d="M327.86,103.82s-8.59,21-29.31,28.52" transform="translate(-81.78 -3.01)" fill="none" stroke="#231815" stroke-linecap="round" stroke-linejoin="round" stroke-width="8.55"/>
        <path id="_2-2" data-name="2" d="M337.59,126.47c-3,5-11.14,17.8-25.37,23.63" transform="translate(-81.78 -3.01)" fill="none" stroke="#231815" stroke-linecap="round" stroke-linejoin="round" stroke-width="8.55"/>
        <path id="_1-2" data-name="1" d="M342.7,147.88c-2.13,6.72-6.49,13.12-20,19.43" transform="translate(-81.78 -3.01)" fill="none" stroke="#231815" stroke-linecap="round" stroke-linejoin="round" stroke-width="8.55"/>
      </g>
    </g>
    <g id="hair-up-in">
      <path id="_33333" data-name="33333" d="M298.57,68.65a17.13,17.13,0,0,0,7.7-13.72c.34-7.5-4-13.84-10.23-15.71a18.45,18.45,0,0,0,.31-2.65c.34-9.17-6-16.68-14.27-16.68a13.9,13.9,0,0,0-8.25,2.77c-1.12-7.84-7.09-13.84-14.43-13.84A14.18,14.18,0,0,0,249,13.59a14.29,14.29,0,0,0-11.62-6.31c-5.43,0-10.15,3.29-12.74,8.17a14.82,14.82,0,0,0-10.49-6.54c-.19,0-.39,0-.59,0s-.56-.06-.85-.06h-.14c-.29,0-.57,0-.86.06s-.39,0-.58,0a14.19,14.19,0,0,0-10.27,6.54c-2.76-4.88-7.58-8.17-13-8.17a13.75,13.75,0,0,0-11.4,6.31,14.7,14.7,0,0,0-10.59-4.77c-7.35,0-13.11,6-14,13.84a14.33,14.33,0,0,0-8.34-2.77c-8.23,0-14.37,7.51-13.71,16.68a19.52,19.52,0,0,0,.4,2.65c-6.15,1.87-10.29,8.21-9.7,15.71a17.85,17.85,0,0,0,8.16,13.72,15.15,15.15,0,0,0-4,11.76c.59,7.69,6.22,14,13,15.18a14.76,14.76,0,0,0-3,10.15c.59,8.26,7.3,14.88,15,14.88a12.85,12.85,0,0,0,3.2-.41,14.32,14.32,0,0,0-2.65,9.37c.5,8,7,14.4,14.6,14.4a13,13,0,0,0,2.3-.22,14.75,14.75,0,0,0-.08,2.41c.39,7.8,6.78,14.07,14.26,14.07a12.94,12.94,0,0,0,4.06-.65,14,14,0,0,0-.47,4.19,14.18,14.18,0,0,0,13.91,13.72,13,13,0,0,0,3.21-.41,13.77,13.77,0,0,0,13.49,12h.13a13.2,13.2,0,0,0,13.09-12,13.18,13.18,0,0,0,3.23.41,13.61,13.61,0,0,0,13.44-13.72,14.25,14.25,0,0,0-.61-4.19,13.13,13.13,0,0,0,4.08.65,14.08,14.08,0,0,0,13.78-14.07,14.48,14.48,0,0,0-.17-2.41,13.18,13.18,0,0,0,2.31.22c7.57,0,13.88-6.41,14.11-14.4a14.69,14.69,0,0,0-3-9.37,13.07,13.07,0,0,0,3.22.41c7.69,0,14.18-6.62,14.5-14.88a15.2,15.2,0,0,0-3.3-10.15c6.78-1.19,12.19-7.49,12.53-15.18A15.61,15.61,0,0,0,298.57,68.65Z" transform="translate(-81.78 -3.01)" fill="#fff" stroke="#231815" stroke-linecap="round" stroke-linejoin="round" stroke-width="8.55"/>
      <path id="_5" data-name="5" d="M149.62,91.46s-3.5,5.25-11.92,4.13" transform="translate(-81.78 -3.01)" fill="none" stroke="#231815" stroke-linecap="round" stroke-linejoin="round" stroke-width="8.55"/>
      <path id="_4" data-name="4" d="M158.79,116.26a11.53,11.53,0,0,1-9,4.33" transform="translate(-81.78 -3.01)" fill="none" stroke="#231815" stroke-linecap="round" stroke-linejoin="round" stroke-width="8.55"/>
      <path id="_3-3" data-name="3" d="M174.94,138.29s-2.4,5.84-10.44,5.67" transform="translate(-81.78 -3.01)" fill="none" stroke="#231815" stroke-linecap="round" stroke-linejoin="round" stroke-width="8.55"/>
      <path id="_2-3" data-name="2" d="M288,65.31s7.85-2.15,13.06,6.6" transform="translate(-81.78 -3.01)" fill="none" stroke="#231815" stroke-linecap="round" stroke-linejoin="round" stroke-width="8.55"/>
      <path id="_1-3" data-name="1" d="M275.24,91.36S285.72,88.8,291.46,97" transform="translate(-81.78 -3.01)" fill="none" stroke="#231815" stroke-linecap="round" stroke-linejoin="round" stroke-width="8.55"/>
    </g>
  </g>
</svg>
