<svg id="hair_0006" xmlns="http://www.w3.org/2000/svg" viewBox="0 0 287.98 206.87">
  <title>hair_0006_front</title>
  <g id="hair_0006_front">
    <path id="c" d="M340.78,215.33s-.32-31.09-18.14-58.08c-20.85-31.58-46.07-21-46.07-21s-17.85-36-68.47-23.93c-77.69,18.53-107.35,110.13-107.35,110.13l-9.91-8.81A120.33,120.33,0,0,1,78.16,185.5c-3.24-10.51-5.31-22.3-4.29-33.6,6.68-73.8,65.47-132,140.7-132,30.83,0,58.94,12.5,82.13,25.6,38.65,21.83,63.63,58.53,64.82,99,.73,24.77-4.19,56.43-14.93,71.44Z" transform="translate(-73.61 -19.85)" fill="#fff"/>
    <path id="l" d="M340.69,215.87s-.47-30.06-18-58.61c-19-30.8-46.07-21-46.07-21s-21.66-41-83.34-19.66c-66.14,22.87-92.48,105.86-92.48,105.86S87,217.76,83.39,179.6" transform="translate(-73.61 -19.85)" fill="none" stroke="#231815" stroke-linecap="round" stroke-linejoin="round" stroke-width="8.55"/>
  </g>
</svg>
