<svg id="hair_0032" xmlns="http://www.w3.org/2000/svg" viewBox="0 0 285.06 279.8">
  <title>hair_0032_front</title>
  <g id="hair_0032_front">
    <path id="c" d="M131.72,182s-3.69,17.76,1.6,56c5.38,38.88,22.21,59.7,22.21,59.7s-2.49,1.2-12.49-3.12c-27.35-11.8-55.26-26-68-46,0,0-.3-13.63-1.69-26-.92-10.3-2-32.21-2-38.61-.27-32.78,4.11-55.57,19-90.89,34.26-81,133.47-70.3,133.47-70.3,121.64-.69,131.72,125.72,131.72,125.72,5.08,42.43-15.12,69.88-15.12,69.88-14.88-26.57-42.45-69-42.45-69S247.49,240,149.67,231.92c0,0,26.14-26,36.15-84,0,0-21.78,19.78-54.09,47" transform="translate(-71.36 -22.28)" fill="#fff"/>
    <path id="vvv" d="M347.43,188.22c-2.44,21.45-6.94,30.13-6.94,30.13-14.88-26.57-42.45-69-42.45-69s-50.55,87.06-148.37,82.58c0,0,26.14-26,36.15-84,0,0-25.11,31.9-54.09,47" transform="translate(-71.36 -22.28)" fill="none" stroke="#231815" stroke-linecap="round" stroke-linejoin="round" stroke-width="8.55"/>
    <path id="v" d="M131.72,182s-3.69,17.76,1.6,56c5.38,38.88,22.21,59.7,22.21,59.7s-2.35.85-12.49-3.12C97.73,276.91,78.67,227.83,78.42,182" transform="translate(-71.36 -22.28)" fill="none" stroke="#231815" stroke-linecap="round" stroke-linejoin="round" stroke-width="8.55"/>
  </g>
</svg>
