<svg id="hair_0001" xmlns="http://www.w3.org/2000/svg" viewBox="0 0 322.82 266.85">
  <title>hair_0001_front</title>
  <g id="hair_0001_front">
    <path id="c" d="M216.89,190.33c-59.84,0-90-6.58-90-6.58s-6.72,17.38-6.45,45.55c.47,48.8,33.74,60.81,33.74,64.38,0,2.64-35.08.42-57.83-23.48,0,0-48.24-14.81-39.92-54,5.47-25.82,23.31-78.79,42.78-115.9,30.4-58,85.31-67.93,117.67-67.93s87.26,10,117.67,67.93c19.47,37.11,37.31,90.08,42.78,115.9,8.32,39.24-39.92,54-39.92,54-22.76,23.9-57.83,26.12-57.83,23.48,0-3.57,33.27-15.58,33.74-64.38.27-28.17-6.45-45.55-6.45-45.55S276.73,190.33,216.89,190.33Z" transform="translate(-55.48 -32.32)" fill="#fff"/>
    <path id="l" d="M346.63,232.92a4.27,4.27,0,0,0-4.91,3.53c-3.43,21-13.15,36.47-28.89,45.87a59.63,59.63,0,0,1-22.53,7.89c10.64-8.47,27.55-25.55,27.31-61a170.62,170.62,0,0,0-4.93-41,116.3,116.3,0,0,0-4.23-14.35,4.28,4.28,0,0,0-8,3.1s.47,1.22,1.15,3.33c-10.29,1.73-38.79,5.69-84.74,5.69s-74.45-4-84.74-5.69c.68-2.11,1.14-3.3,1.15-3.33a4.27,4.27,0,0,0-8-3.1,116.58,116.58,0,0,0-4.24,14.37,170.62,170.62,0,0,0-4.92,41c-.24,35.41,16.67,52.49,27.31,61A59.65,59.65,0,0,1,121,282.33c-15.74-9.4-25.46-24.84-28.89-45.87a4.28,4.28,0,0,0-8.44,1.38c4.71,28.85,20,43.78,31.94,51.22,14.49,9,29.2,10.54,35.6,10,6-.49,7.3-3.2,7.3-5.4,0-2.91-2.14-4.5-5.69-7.13-8.47-6.28-28.3-21-28.06-57.23a160.25,160.25,0,0,1,5.14-40.66c9.94,1.75,38.81,5.94,87,5.94s77.09-4.19,87-5.94c1.73,6.26,5,20.66,5.14,40.66.24,36.26-19.59,51-28.06,57.23-3.55,2.63-5.69,4.21-5.69,7.13,0,2.19,1.27,4.91,7.3,5.4.71.06,1.52.09,2.42.09,7.24,0,20.29-2.09,33.19-10.11,12-7.44,27.23-22.37,31.94-51.22A4.27,4.27,0,0,0,346.63,232.92Z" transform="translate(-55.48 -32.32)" fill="#231815"/>
  </g>
</svg>
