<svg id="hair_0022" xmlns="http://www.w3.org/2000/svg" viewBox="0 0 273.94 185">
  <title>hair_0022_front</title>
  <g id="hair_0022_front">
    <path id="c" d="M258.14,158.2c-8.06,13.36-31.22,35.24-86,17.76-9.75,6.66-26,24.23-54,9.72-8.24,12.49-10.92,22.14-33.72,26.92-1-7.2-3.46-28.27-4-38.89-.58-11.62,1.95-23.89,4.72-35.82,12-51.66,44.71-105.81,131.07-105.81C348.71,32.09,362.06,157,347.28,206.6c-16.42-2.45-25.06-4.25-31.5-18.9C298.19,192.09,265.14,176.44,258.14,158.2Z" transform="translate(-78.11 -32.09)" fill="#fff"/>
    <path id="www" d="M118.15,185.68c24.44,11.92,37.69,3,54-9.71h0c35.66,13.18,71.12,6.63,86-17.76,0,0,17.11,34.07,57.64,29.5,0,0,.6,15.65,27.35,17.15" transform="translate(-78.11 -32.09)" fill="none" stroke="#231815" stroke-linecap="round" stroke-linejoin="round" stroke-width="8.55"/>
    <path id="I" d="M118.15,185.68c-6.75,9.45-11.52,24.47-35.77,27.13" transform="translate(-78.11 -32.09)" fill="none" stroke="#231815" stroke-linecap="round" stroke-linejoin="round" stroke-width="8.55"/>
  </g>
</svg>
