<svg id="hair_0050" xmlns="http://www.w3.org/2000/svg" viewBox="0 0 272.54 225.14">
  <title>hair_0050_front</title>
  <g id="hair_0050_front">
    <path id="c" d="M216.25,31.37h-.36c-52.06.08-81.31,23.23-101.36,47.19-35.28,42.16-35.47,97.56-34.25,110.92,1.19,13,1.37,15.6,5.68,25.83l4.47-1.91c6.66,31.78,9.83,38.84,9.83,38.84H124s-.89-49.64,19.56-79.12c28-40.37,68.28-21,72.32-18.92v.19l.18-.09.18.09v-.19c4-2.09,44.31-21.45,72.32,18.92,20.46,29.48,19.56,79.12,19.56,79.12h23.75s3.16-7.06,9.82-38.84l4.47,1.91c4.31-10.23,4.49-12.79,5.68-25.83C353.77,168.52,359.92,31.6,216.25,31.37Z" transform="translate(-79.95 -31.36)" fill="#fff"/>
    <path id="l" d="M88.22,195.67c4.88,42.87,12,56.55,12,56.55H124s-.08-55.4,22.48-83c30.22-37,69.58-14.82,69.58-14.82s39.36-22.2,69.58,14.82c22.56,27.64,22.48,83,22.48,83h23.75s7.16-13.68,12-56.55" transform="translate(-79.95 -31.36)" fill="none" stroke="#231815" stroke-linecap="round" stroke-linejoin="round" stroke-width="8.55"/>
  </g>
</svg>
