<svg id="hair_0047" xmlns="http://www.w3.org/2000/svg" viewBox="0 0 373.15 457.89">
  <title>hair_0047_back</title>
  <g id="hair_0047_back">
    <g id="d">
      <path id="b" d="M181.84,264.07c-11.4,10-10.78,27.84-3.46,36.93,9.66,12,5.23,33.37-18.19,43.33s-10.44,31.31-10.44,31.31c6.34,15.14-2.25,17.15-9.29,13.37-24.53-14.56-23-30-18.13-46.16s-1.44-22.26-26.71-33.19-16.3-37-16.3-37c6.28-26.48-45.59-28.91-26.24-72.46,9-20.3,3.22-27.56-5.17-41.3C-11.09,62.22,125-86.81,215.69-54h.39C306.74-86.81,442.87,62.22,383.85,158.89c-8.39,13.75-14.2,21-5.17,41.3,19.35,43.55-32.52,46-26.23,72.46,0,0,9,26.07-16.3,37s-31.61,17-26.71,33.19,6.4,31.6-18.13,46.16c-7,3.78-15.62,1.77-9.28-13.37,0,0,13-21.35-10.44-31.31S243.73,313,253.4,301c7.32-9.09,7.94-27-3.46-36.93Z" transform="translate(-29.31 62.94)" fill="#fff"/>
      <path id="l" d="M285.45,395a9.86,9.86,0,0,1-6.77-2.44c-2.77-2.51-5.12-7.76-.61-18.52a4.11,4.11,0,0,1,.29-.57c0-.06,4.65-7.91,2.3-15.11-1.37-4.21-5-7.59-10.76-10-12.89-5.49-21.89-15-24.67-26.16a27,27,0,0,1,4.84-23.78c6-7.39,6.27-21.69-1.83-30h-64.7c-8.1,8.29-7.79,22.58-1.83,30a27,27,0,0,1,4.83,23.78c-2.79,11.14-11.78,20.67-24.68,26.16-5.78,2.46-9.41,5.86-10.77,10.09-2.3,7.16,2.27,15,2.31,15.07a4.22,4.22,0,0,1,.29.57c4.5,10.76,2.15,16-.61,18.52-3.47,3.15-9.09,3.25-14.64.26l-.16-.09c-27.78-16.49-24.91-35-20-51.07,3.75-12.37,1.28-17-24.32-28-22.7-9.82-22.2-31.7-18.72-42.1,1.83-8.14-3.4-13.36-12.06-21.15-11.78-10.61-26.45-23.81-14-51.88,7.58-17.06,3.89-23.06-3.47-35l-1.44-2.35C30.16,138,25.92,110.17,32,80.68c5.47-26.4,18.78-53.12,38.5-77.28S114.82-40.15,140-51.54c27.14-12.29,53.35-14.69,75.92-7,22.57-7.73,48.78-5.33,75.92,7C317-40.15,341.61-20.64,361.25,3.4s33,50.87,38.5,77.28c6.11,29.49,1.87,57.3-12.25,80.43l-1.44,2.34c-7.36,11.94-11.06,17.93-3.47,35,12.47,28.07-2.19,41.27-14,51.88-8.66,7.79-13.89,13-12.05,21.15,3.48,10.4,4,32.28-18.72,42.1-25.59,11.07-28.07,15.66-24.32,28,4.87,16.06,7.75,34.58-20,51.07l-.16.09A16.82,16.82,0,0,1,285.45,395Zm.41-17.41c-2.47,6-1.76,8.34-1.43,8.64s2.18.47,4.77-.89c22.43-13.35,20.58-26.55,16.14-41.19-5.95-19.61,3.71-27.37,29.1-38.36,21.25-9.19,14.26-30.79,14-31.71,0-.12-.08-.26-.11-.39-3.23-13.6,5.84-21.77,14.61-29.66,11.23-10.11,21.83-19.66,11.88-42.05-9.42-21.19-3.79-30.32,4-43l1.42-2.31c30-49.16,6.47-108.61-25.58-147.85-18.82-23-42.38-41.71-66.34-52.57-25.57-11.58-50-13.75-70.74-6.26a4.27,4.27,0,0,1-1.45.25h-.39a4.27,4.27,0,0,1-1.45-.25c-20.71-7.49-45.17-5.32-70.74,6.26C119.53-32.9,96-14.23,77.15,8.81c-32,39.24-55.59,98.69-25.57,147.85L53,159c7.79,12.64,13.42,21.77,4,43-10,22.4.65,31.95,11.88,42.05,8.77,7.89,17.84,16.06,14.61,29.66,0,.14-.07.27-.12.41-.3.9-7.29,22.5,14,31.69,25.4,11,35.05,18.74,29.1,38.36-4.44,14.64-6.28,27.84,16.14,41.19,2.59,1.37,4.43,1.2,4.77.89s1-2.64-1.43-8.64c-1.09-1.92-6.19-11.76-3-21.8,2.16-6.7,7.39-11.86,15.56-15.34,10.41-4.43,17.6-11.85,19.73-20.37a18.58,18.58,0,0,0-3.2-16.34c-8.78-10.9-8.94-31.53,4-42.83a4.28,4.28,0,0,1,2.81-1.06h68.09a4.27,4.27,0,0,1,2.82,1.06c12.92,11.3,12.75,31.94,4,42.83a18.58,18.58,0,0,0-3.2,16.34c2.13,8.52,9.32,15.94,19.73,20.37,8.17,3.48,13.41,8.64,15.56,15.34C292,365.78,286.95,375.62,285.86,377.54Z" transform="translate(-29.31 62.94)" fill="#231815"/>
    </g>
    <g id="u">
      <path id="O" d="M215.89,12c75.78,0,150.89,56.3,148.27,155.56-.57,21.43-4.41,39.22-12.64,54,0,0-28.74,61.6-135.63,61.6s-135.62-61.6-135.62-61.6C72,206.77,68.19,189,67.62,167.56,65,68.29,140.1,12,215.89,12Z" transform="translate(-29.31 62.94)" fill="#fff"/>
      <path id="l-2" data-name="l" d="M362.8,117.81c-9.53-47.12-28.26-83.44-55.7-107.94a131.83,131.83,0,0,0-65.4-31.76,4.27,4.27,0,0,0-4.94,3.49,4.28,4.28,0,0,0,3.49,4.94C267.17-8.82,310.53,8,337.5,66.23a145.14,145.14,0,0,0-11-12.74C298.13,24.4,257.83,7.72,215.89,7.72S133.65,24.4,105.32,53.49q-4.83,5-9.11,10.3C121.72,16.2,160.09-1.68,179.47-7.93a4.28,4.28,0,0,0,2.76-5.38,4.27,4.27,0,0,0-5.38-2.76A151.25,151.25,0,0,0,116.28,22C88.65,50.31,71.46,88.75,65.17,136.31a182.38,182.38,0,0,0-1.82,31.36c.6,22.78,4.89,41,13.12,55.83.88,1.81,8.67,17,29,32.25,19.27,14.44,54.07,31.65,110.46,31.65s91.19-17.21,110.46-31.65c20.29-15.21,28.08-30.44,29-32.25,8.22-14.79,12.51-33.05,13.11-55.83A174.26,174.26,0,0,0,362.8,117.81Zm-2.92,49.63c-.57,21.42-4.52,38.43-12.1,52l-.14.28c-.28.59-28.78,59.13-131.75,59.13-53.71,0-86.68-16.1-104.87-29.6-19.66-14.59-26.81-29.39-26.87-29.52l-.14-.28c-7.57-13.57-11.53-30.58-12.1-52-1.14-42.92,12.54-80.26,39.55-108C138.17,32,176.24,16.27,215.89,16.27S293.61,32,320.34,59.46A136.64,136.64,0,0,1,354.52,120h0v0A165.59,165.59,0,0,1,359.88,167.44Z" transform="translate(-29.31 62.94)" fill="#231815"/>
    </g>
  </g>
</svg>
