<svg id="hair_0042" xmlns="http://www.w3.org/2000/svg" viewBox="0 0 279.52 295.96">
  <title>hair_0042_front</title>
  <g id="hair_0042_front">
    <path id="c" d="M216.14,30.45c-113.78,0-141.23,80.73-139.71,147.74,1.48,65,36.91,75.31,30.7,97.53-10.74,38.4,23.84,49.91,28.43,45.54s-15.48-17.75-3.51-38.75c10.24-18,2.1-22.84-6.22-49.15-8.72-27.56,15.65-52.31,15.65-52.31,34.3-32.38,74.66-18.43,74.66-18.43h0s40.35-13.95,74.66,18.43c0,0,24.37,24.75,15.65,52.31-8.32,26.3-16.46,31.18-6.22,49.15,12,21-8.09,34.38-3.51,38.75s39.16-7.14,28.42-45.54c-6.21-22.22,29.22-32.49,30.7-97.53,1.52-67-25.92-147.74-139.71-147.74" transform="translate(-76.38 -30.45)" fill="#fff"/>
    <path id="l" d="M84.05,197.33c1.16,47,28.49,59.08,23.08,78.4-10.74,38.4,23.84,49.91,28.43,45.54s-15.48-17.75-3.51-38.75c10.24-18,2.1-22.84-6.22-49.15-8.72-27.56,15.65-52.31,15.65-52.31,34.3-32.38,74.66-18.43,74.66-18.43h0s40.35-13.95,74.66,18.43c0,0,24.37,24.75,15.65,52.31-8.32,26.3-16.46,31.18-6.22,49.15,12,21-8.09,34.38-3.51,38.75s39.16-7.14,28.42-45.54c-5.4-19.32,21.93-31.41,23.08-78.4" transform="translate(-76.38 -30.45)" fill="none" stroke="#231815" stroke-linecap="round" stroke-linejoin="round" stroke-width="8.55"/>
  </g>
</svg>
