<svg id="hair_0024" xmlns="http://www.w3.org/2000/svg" viewBox="0 0 274.06 188.09">
  <title>hair_0024_front</title>
  <g id="hair_0024_front">
    <path id="c" d="M174,131.82s16.43,63.52,94.25,76.77c10.62,1.81,4.83-1.21.84-14.09-4.41-14.22,2.05-32.29,2.05-32.29s53.33,16.81,73.39,54.18c0,0,57.72-183.43-127.1-183.43S86.25,216.3,86.25,216.3,109.66,151.84,174,131.82Z" transform="translate(-79.01 -32.96)" fill="#fff"/>
    <path id="l" d="M88.61,216.59s21.05-64.75,85.39-84.78c0,0,19,64.34,91.42,76.35,9.26,1.53,9.38,1.24,6.65-5.07-7.77-18-.93-40.89-.93-40.89s49.61,17.2,69.66,54.56" transform="translate(-79.01 -32.96)" fill="none" stroke="#231815" stroke-linecap="round" stroke-linejoin="round" stroke-width="8.55"/>
  </g>
</svg>
