<svg id="hair_0060" xmlns="http://www.w3.org/2000/svg" viewBox="0 0 292.97 216.26">
  <title>hair_0060_front</title>
  <g id="hair_0060_front">
    <g id="m">
      <path id="c" d="M358.85,219.1c-25.1,4.61-45.66-10.61-58.64-34.59h0c-6.68-4.76-13.4-28.17-20.75-35.31-15.37-14.94-48-20.22-66.29-13.36-2.22.83-18-7.33-33.14-4.08-16.39,3.51-34.83,22-34.83,22l-5.41,9.07C119.12,200.43,97.05,223.72,72,219.1c0,0-14.05-183.91,143.45-183.91S358.85,219.1,358.85,219.1Z" transform="translate(-68.92 -7.71)" fill="#fff"/>
      <path id="l" d="M361.82,218.34a4.25,4.25,0,0,0-4.95-3.41c-21.06,3.87-43.85-12.55-57-39.46,8.5,5.67,17.15,9.09,27,9.09a48.25,48.25,0,0,0,12-1.59,4.25,4.25,0,1,0-2.11-8.23c-20.82,5.34-35-6.58-54.38-25.37-10.39-10.1-37.62-31.72-69.1-18.25a51,51,0,0,0-19.13-4.84,53.42,53.42,0,0,0-17.78,2.06,4.26,4.26,0,0,0-.5.15c-8.78,2.62-18.69,7.88-28.78,17.73-24.54,24-40.22,20.28-40.31,20.26a4.25,4.25,0,1,0-2.4,8.15c.59.17,11.11,3,27.88-6.35-17.83,33.4-37.52,49.07-58.65,46.62a4.25,4.25,0,1,0-1,8.44,46.28,46.28,0,0,0,5.35.31c25.77,0,48.9-22.06,68.82-65.67,2-1.73,4.1-3.6,6.23-5.68a70.05,70.05,0,0,1,15.07-11.41c-10.79,27.08,2.92,51.17,3.59,52.31a4.25,4.25,0,1,0,7.33-4.29c-.16-.27-15.08-26.46,1-52.8A43.33,43.33,0,0,1,208.14,138c-6.93,26.26.64,51.49,1,52.6a4.25,4.25,0,0,0,8.12-2.5c-.08-.25-7.43-24.9-.54-49.21A43.29,43.29,0,0,1,241.43,136a4.17,4.17,0,0,0,.22.39c13,18,4.75,51.47,4.63,51.91a4.25,4.25,0,1,0,8.23,2.1c.34-1.35,7.38-29.69-1.54-51a79.14,79.14,0,0,1,23.53,16c3.39,3.29,6.67,6.41,9.89,9.31,6.33,19.31,16.72,35.19,30.13,46,10.81,8.69,22.72,13.25,34.22,13.25a42.3,42.3,0,0,0,7.66-.69A4.25,4.25,0,0,0,361.82,218.34Z" transform="translate(-68.92 -7.71)" fill="#231815"/>
    </g>
    <g id="_1" data-name="1">
      <path id="c-2" data-name="c" d="M136.58,117C84,65.25,149.32-9.07,208.75,20.14" transform="translate(-68.92 -7.71)" fill="#fff"/>
      <path id="l-2" data-name="l" d="M136.58,121.2a4.24,4.24,0,0,1-3-1.22c-12.42-12.23-19.48-26.7-20.42-41.87-.83-13.52,3.32-27.47,11.71-39.29C141.79,15,176.66-.37,210.62,16.32a4.25,4.25,0,0,1-3.75,7.63c-29.69-14.6-60.24-1.09-75.06,19.79-12.64,17.81-17.24,45.6,7.74,70.18a4.25,4.25,0,0,1-3,7.28Z" transform="translate(-68.92 -7.71)" fill="#231815"/>
    </g>
    <g id="_2" data-name="2">
      <path id="c-3" data-name="c" d="M177.33,109.66c-24.17-44.45-.18-100.42,65.81-97.59,22.06.94,68.31,20.87,78.92,70.08" transform="translate(-68.92 -7.71)" fill="#fff"/>
      <path id="l-3" data-name="l" d="M177.34,113.91a4.25,4.25,0,0,1-3.74-2.22c-12.92-23.76-12.89-51.44.09-72.24,13.56-21.74,38.31-33,69.63-31.63,11,.47,28.87,5.38,46.05,17.73,13.41,9.64,30.68,27.13,36.84,55.69a4.25,4.25,0,1,1-8.3,1.79c-10.34-48-55.8-65.91-75-66.73-28.14-1.2-50.19,8.61-62.06,27.64-11.36,18.2-11.29,42.6.17,63.68a4.25,4.25,0,0,1-3.73,6.28Z" transform="translate(-68.92 -7.71)" fill="#231815"/>
    </g>
    <g id="_3" data-name="3">
      <path id="c-4" data-name="c" d="M233.92,109.66c4-60.2,94.24-77.35,112.31-16" transform="translate(-68.92 -7.71)" fill="#fff"/>
      <path id="l-4" data-name="l" d="M357.09,99.57a44.45,44.45,0,0,0-6.91-7.49c-8.43-28-32.93-44-62.55-40.68-26.25,2.9-55.59,22.28-57.95,58a4.25,4.25,0,0,0,4,4.52h.28a4.25,4.25,0,0,0,4.24-4c2-30.81,27.56-47.56,50.4-50.09,17.73-2,38.86,3.94,49.64,25a45.77,45.77,0,0,0-22.41-2.76,4.25,4.25,0,0,0,1.41,8.38c.83-.13,20.44-3.1,33,14.09a4.25,4.25,0,0,0,6.85-5Z" transform="translate(-68.92 -7.71)" fill="#231815"/>
    </g>
  </g>
</svg>
