<svg id="hair_0017" xmlns="http://www.w3.org/2000/svg" viewBox="0 0 285.97 199.27">
  <title>hair_0017_front</title>
  <g id="hair_0017_front">
    <path id="c" d="M317.77,154.28c-45,46.94-104.14,45.38-141,28.16-36.57,47.66-96,32.86-96,32.86-7.68-32.06-6.71-71-3.94-82.88C88.78,80.75,129.55,23,215.91,22.69c109.9-.33,148.62,96.93,144.51,163.44-.57,9.24-17.15,31.33-17.15,31.33S335.13,209.56,317.77,154.28Z" transform="translate(-74.75 -22.69)" fill="#fff"/>
    <path id="l" d="M340.93,214.48s-8.49-14.94-23.16-60.2c-53.2,55.16-121.12,39.61-141,28.16-18.94,26.11-56.61,39.65-91,34" transform="translate(-74.75 -22.69)" fill="none" stroke="#231815" stroke-linecap="round" stroke-linejoin="round" stroke-width="8.55"/>
  </g>
</svg>
