<svg id="hair_0011" xmlns="http://www.w3.org/2000/svg" viewBox="0 0 314.95 241.32">
  <title>hair_0011_front</title>
  <g id="hair_0011_front">
    <path id="c" d="M219.12,30.41C64.88,30.28,69.61,164.16,72.75,191.27c4,34.5-7.87,61.34-7.87,61.34s14.24,3,26.41-11.52c21,31.17,42.38,24.14,42.11,24-29-54.28,16.21-105.28,16.21-105.28,6.65,61.65,84.2,77.4,83.82,77.4-4.33-41.48,9.41-79.6,9.41-79.6s19,24.74,39.31,35.5c43.27,22.88,70.56,16.23,70.56,16.23a139.78,139.78,0,0,0,6.65-52.73C355.64,104.79,329.27,30.5,219.12,30.41Z" transform="translate(-60.6 -30.41)" fill="#fff"/>
    <path id="l" d="M77.89,202.23a114.92,114.92,0,0,1-13,50.38s14.24,3,26.41-11.52c21,31.17,42.38,24.14,42.11,24-29-54.28,16.21-105.28,16.21-105.28,7.25,62,84.2,77.4,83.82,77.4-5-40.06,9.41-79.6,9.41-79.6s19,24.74,39.31,35.5c43.27,22.88,70.56,16.23,70.56,16.23" transform="translate(-60.6 -30.41)" fill="none" stroke="#231815" stroke-linecap="round" stroke-linejoin="round" stroke-width="8.55"/>
    <path id="r" d="M313.85,200s2.91,41.72-16.09,67.46c0,0,25.85-1.5,45.66-36.08,0,0,8.17,17.34,27.86,12.27,0,0-11.61-17.5-11.61-38.08" transform="translate(-60.6 -30.41)" fill="#fff" stroke="#231815" stroke-linecap="round" stroke-linejoin="round" stroke-width="8.55"/>
  </g>
</svg>
