<svg id="hair_0003" xmlns="http://www.w3.org/2000/svg" viewBox="0 0 270.03 193.63">
  <title>hair_0003_front</title>
  <g id="hair_0003_front">
    <path id="c" d="M213.4,34.29s-72.7,4.79-103,43.11c-49.6,62.79-23.68,138.81-23.68,138.81,33.13-14.56,43.19-50.29,43.19-50.29s36.33,42.05,92.57,18.31c.45.13,20.72,30,57.57,20.55,1.77,3,27.85,29.79,64.71,11C351,208.6,376.63,34.29,213.4,34.29Z" transform="translate(-79.99 -34.29)" fill="#fff"/>
    <path id="l" d="M88.26,217.73c33.13-14.56,41.68-51.81,41.68-51.81s36.33,42.05,92.57,18.31c.45.13,20.72,30,57.57,20.55,1.77,3,27.85,31.25,64.71,12.47" transform="translate(-79.99 -34.29)" fill="none" stroke="#231815" stroke-linecap="round" stroke-linejoin="round" stroke-width="8.55"/>
  </g>
</svg>
