<svg id="hair_0032" xmlns="http://www.w3.org/2000/svg" viewBox="0 0 335.96 346.08">
  <title>hair_0032_back</title>
  <g id="hair_0032_back">
    <path id="b" d="M349.71,88.44c-17.34.38-13.58,21.58-4.55,32.24-9.14,3.17-21.16,25-2,46.34C363.09,189.21,371,222.1,371,222.1c12.59-14.5,10.11-52,4.84-67.78,5.68,5.17,14.05,16.77,14.05,16.77C393.87,107.34,349.71,88.44,349.71,88.44Z" transform="translate(-58.49 -0.42)" fill="#fff" stroke="#231815" stroke-linecap="round" stroke-linejoin="round" stroke-width="8.55"/>
    <path id="u" d="M182,288.38c-12.79,21.16-7.79,53.85-7.79,53.85-25.69-6.86-39.28-45.64-39.28-45.64C118.42,321.86,92.46,321,92.46,321c9.36-28.74,5.27-44.06,5.27-44.06-13.13,13.58-35,12.11-35,12.11s14.57-14.87,4.47-80.1C48.19,86,122.84,9.08,210.34,4.86c54.11-2.61,82.52,27.39,82.52,27.39s92.5,26.22,64.64,184.29c-4.63,26.29-21.58,69.46-7,104.43,0,0-35.08,1-50.44-22.23,0,0-10.18,36.63-35.87,43.49,0,0-.45-32.7-13.25-53.85Z" transform="translate(-58.49 -0.42)" fill="#fff" stroke="#231815" stroke-linecap="round" stroke-linejoin="round" stroke-width="8.55"/>
  </g>
</svg>
