<svg id="hair_0037" xmlns="http://www.w3.org/2000/svg" viewBox="0 0 275.39 195.62">
  <title>hair_0037_front</title>
  <g id="hair_0037_front">
    <g id="hair">
      <path d="M215.86,30.74C32.67,47.39,86.81,214.56,86.81,214.56c20.05-10.57,43.84-53.19,43.84-53.19s147.86,67.08,216.85,55.16c.26.14,4.5-16.86,4.5-16.86,7.2-43.59,11-155.56-136.14-168.94" transform="translate(-79.34 -30.74)" fill="#fff"/>
      <path d="M86.81,214.56c20.05-10.57,43.84-53.19,43.84-53.19s147.86,67.08,216.85,55.16" transform="translate(-79.34 -30.74)" fill="none" stroke="#231815" stroke-linecap="round" stroke-linejoin="round" stroke-width="8.55"/>
    </g>
    <g id="pin">
      <path id="c" d="M325.19,160.61c-6.33-2.35-23.16,24.81-30,39.13-7.32,15.3,2.59,20.5,7.21,22.21s15.52,4.25,20-12.12C326.52,194.53,331.52,163,325.19,160.61Zm-8.76,37.69c-2.36,8.7-4,8.46-7.87,7-4.19-1.56-5.25-2.34-1.36-10.47,3.64-7.61,11.82-22.86,13.51-22.23S318.65,190.16,316.44,198.3Z" transform="translate(-79.34 -30.74)" fill="#e83828"/>
      <g id="line">
        <path id="out" d="M302.39,222c4.62,1.72,15.52,4.25,20-12.12,4.16-15.32,9.16-46.88,2.83-49.23s-23.16,24.81-30,39.13C287.87,215,297.77,220.25,302.39,222Z" transform="translate(-79.34 -30.74)" fill="none" stroke="#231815" stroke-miterlimit="10" stroke-width="6.27"/>
        <path id="in" d="M307.21,194.88c3.64-7.61,11.82-22.86,13.51-22.23s-2.07,17.51-4.29,25.65c-2.36,8.7-4,8.46-7.87,7C304.38,203.79,303.32,203,307.21,194.88Z" transform="translate(-79.34 -30.74)" fill="none" stroke="#231815" stroke-miterlimit="10" stroke-width="4.18"/>
      </g>
    </g>
  </g>
</svg>
