<svg id="hair_0033" xmlns="http://www.w3.org/2000/svg" viewBox="0 0 301.97 365.32">
  <title>hair_0033_front</title>
  <g id="hair_0033_front">
    <path id="b" d="M134.69,55.1C182.19-.95,317.81,5.31,356.16,118.27c38.24,112.61-13.37,168.37-35.67,195.42-31.5,38.22-16.82,60.1-22.23,60.1-8.62,0-36.89-21.23-26.85-61.65,15.61-52.74,38.16-90.42,4.75-140.82-52.76-79.6-119.08-32.45-119.08-32.45s-46.89-11.41-66.28,79.21c0,0-12.32-7.75-15.13-17.67C66.7,168.78,71.64,96,134.69,55.1Z" transform="translate(-72.23 -12.74)" fill="#fff"/>
    <path id="C" d="M134.69,50.19c47.5-56,182.84-46,221.48,68.08,38.27,113-13.06,168.63-35.67,195.42-32.67,38.73-16.82,60.1-22.23,60.1-8.62,0-36.89-21.23-26.85-61.65,16.41-55.74,38.16-90.42,4.75-140.82-52.76-79.6-119.08-32.45-119.08-32.45s-47.38-11.41-66.77,79.21" transform="translate(-72.23 -12.74)" fill="none" stroke="#231815" stroke-linecap="round" stroke-linejoin="round" stroke-width="8.55"/>
    <path id="S" d="M270,319.44s3.65-20.64,35.12-64.48c32.65-45.48,14-78.94,14-78.94" transform="translate(-72.23 -12.74)" fill="none" stroke="#231815" stroke-linecap="round" stroke-linejoin="round" stroke-width="8.55"/>
  </g>
</svg>
