<svg id="hair_0061" xmlns="http://www.w3.org/2000/svg" viewBox="0 0 323.99 241.78">
  <title>hair_0061_front</title>
  <path id="hair_0061_front" d="M75.88,221.82a62.82,62.82,0,0,0,1.18-23.2c-10.54,4.28-18.61,2-18.61,2a46.16,46.16,0,0,0,10.61-28.56c.27-26.38-6.12-100.41,69.1-141C169.73,14,192.59,13.78,192.59,13.78,185.71,9.83,173.07,4,177-11.41H177s24.94,2.91,39.15,23.31C229.34-8,255.29-11.41,255.29-11.41c4,15.41-8.67,21.24-15.55,25.19,0,0,22.86.2,54.44,17.25,75.22,40.63,68.82,114.67,69.1,141a46.14,46.14,0,0,0,10.6,28.56s-8.07,2.25-18.61-2a62.8,62.8,0,0,0,1.18,23.2s-30.29-7.54-88.44-41.89c-43-25.42-51.87-32.28-51.87-32.28s-3.18,3.66-51.87,32.28S75.88,221.82,75.88,221.82Z" transform="translate(-54.17 15.68)" fill="#fff" stroke="#231815" stroke-linecap="round" stroke-linejoin="round" stroke-width="8.55"/>
</svg>
