<svg id="hair_0042" xmlns="http://www.w3.org/2000/svg" viewBox="0 0 311.08 398.47">
  <title>hair_0042_back</title>
  <g id="hair_0042_back">
    <path id="b" d="M348.29,262.08C360.56,273.62,376.21,302.42,363,324c-13,21.37-17.91,22.85-10.85,42.81,5.53,15.62.71,31-16.82,39.12-15.62,7.23-.45-14.94-14.22-22.63-15.33-8.55-23.58-12.25-20.86-31.38,5.07-35.59-49.87-24.55,10.45-100.67C317.78,242.38,336,250.55,348.29,262.08Z" transform="translate(-61.23 -13.17)" fill="#fff" stroke="#231815" stroke-linecap="round" stroke-linejoin="round" stroke-width="8.55"/>
    <path id="O" d="M79.93,223.92a119.67,119.67,0,0,1-14.42-56.59C65.39,62.46,139.92,26,166.73,20.17c31.3-6.77,49.41,1.18,49.41,1.18h.3s18.11-8,49.4-1.18C292.65,26,367.18,62.46,367.07,167.34a119.68,119.68,0,0,1-14.42,56.59S328.58,286.1,216.29,286.1C103.63,286.1,79.93,223.92,79.93,223.92Z" transform="translate(-61.23 -13.17)" fill="#fff" stroke="#231815" stroke-linecap="round" stroke-linejoin="round" stroke-width="8.55"/>
  </g>
</svg>
