<svg id="hair_0004" xmlns="http://www.w3.org/2000/svg" viewBox="0 0 272.22 187.03">
  <title>hair_0004_front</title>
  <g id="hair_0004_front">
    <path id="c" d="M347.81,215.39c-15.4-7.5-34.88-12.87-54.15-16.71L281.5,170.9l-15.63,23.18a507,507,0,0,0-50.63-4.5c-5.27,0-83.14,4-128.82,26.27,0,0-49-179.58,128.82-185.23C390.75,25,347.81,215.39,347.81,215.39Z" transform="translate(-80.23 -30.49)" fill="#fff"/>
    <path id="l" d="M341,213.25c-14.18-6.9-31.16-11.8-48-15.27v0l-11.32-28-15.2,23.57v0a452.82,452.82,0,0,0-51.22-4c-5.27,0-79.05,1.44-124.73,23.67" transform="translate(-80.23 -30.49)" fill="none" stroke="#231815" stroke-linecap="round" stroke-linejoin="round" stroke-width="8.55"/>
  </g>
</svg>
