<svg id="hair_0054" xmlns="http://www.w3.org/2000/svg" viewBox="0 0 358.08 427.45">
  <title>hair_0054_back</title>
  <g id="hair_0054_back">
    <path d="M231,269.73S267,325.37,333.52,349c12.87,4.57,6.45-.22,3.54-4-12.38-15.87-10-35.33-8.17-55.63,7,7.2,10.94,14,20.68,19.54,10,5.65,5.47.14,4.61-4.13-14.9-73.66,33.47-94.49,20.19-180.32,5.76.73,11.22,5.91,20.68,11.62,6.39,3.85,6.32,2.05,5.09-1.83-13.7-43.43-38.6-111.39-93.91-125.64,0,0,8.64-.84,44.66,2.89,2.9.3,4.73-1.65,2.43-3.23-42.87-29.3-97.51-54.62-157.41-39,2.16-10.63,9.46-25.3,15.29-34.44,1.95-3-.5-4.1-5.71-1.12-43.71,25-65.38,54.67-70.29,75.56,0,0-23.54-12.49-46.37-4-2.22.82-7.79,3.25,0,5.36a27.48,27.48,0,0,1,16.41,11.93C26.56,77.74,59.47,162.29,51.82,218.31c-.64,4.69-1.14,13.9,6.89,3.92s9.62-24.44,12.69-27.82c30.5,80.63,103.67,75.33,103.67,75.33Z" transform="translate(-46.99 72.35)" fill="#fff" stroke="#231815" stroke-linecap="round" stroke-linejoin="round" stroke-width="8.55"/>
  </g>
</svg>
