<svg id="hair_0013" xmlns="http://www.w3.org/2000/svg" viewBox="0 0 295.76 176.97">
  <title>hair_0013_front</title>
  <g id="hair_0013_front">
    <path id="c" d="M348.71,196.84c-18.61-19.9-50.07-30.69-102.42-32.45-54.21-1.83-106-21.82-117.55-38.55-8.4,43.72-36.85,73.22-46.69,77.64-.09,0-16-26.52-9.69-53.11C83.88,101.8,115.85,26.78,215.84,26.78c96.33,0,143.27,68.5,150.27,113.53C370.31,167.32,348.71,196.84,348.71,196.84Z" transform="translate(-70.89 -26.78)" fill="#fff"/>
    <path id="l" d="M345,193.12c-18.8-17-34.25-20.45-98.29-28.17-53.85-6.49-98.63-18.28-120.85-38.55-5.12,40.78-25.48,61.42-38.25,73.06" transform="translate(-70.89 -26.78)" fill="none" stroke="#231815" stroke-linecap="round" stroke-linejoin="round" stroke-width="8.55"/>
  </g>
</svg>
