<svg id="outline_boy" xmlns="http://www.w3.org/2000/svg" viewBox="0 0 62.28 133.32">
  <title>outline_b_legl</title>
  <g id="outline_b_leg">
    <g id="outline_b_legl">
      <path id="b" d="M190,363.22c-12.81-1.51-18.66-3.61-29.33,9.65v.21c.31,39.23,12.88,90.61,12.88,90.61-2.85,15.25-12.72,27.63,11.06,27.44,26-.21,20.93-4.2,19-27.68,0,0,1.39-7.9,5.47-29.85,1-5.36,2.68-8.26,3.37-10.3,1.37-4,3.11-15.63,4-24.92.88-9.51-2.63-18.12-8.27-25.8C204.24,367.11,194,363.69,190,363.22Z" transform="translate(-156.52 -362.1)" fill="#fff"/>
      <path id="outline" d="M209.76,374.57l-.3.94a4.59,4.59,0,0,0,.13,3.27c1.79,4,3,15.85,2.7,19.21-.9,9.66-2.61,20.61-3.75,23.92-.14.39-.36.92-.62,1.53a42.21,42.21,0,0,0-2.92,9.38c-4,21.72-5.46,29.81-5.48,29.89a4.3,4.3,0,0,0-.05,1.09c.29,3.63.65,6.76,1,9.53.63,5.43,1.17,10.11.09,11.35-1.81,2.07-12,2.15-15.9,2.18-8.49.07-10.43-1.63-10.82-2.16-1.16-1.55.27-6.43,1.54-10.73a95.9,95.9,0,0,0,2.43-9.48,4.31,4.31,0,0,0-.05-1.82c-.12-.5-12.13-47.29-12.66-85.37a19.18,19.18,0,0,1,2.05-7.27c1-2.08.71-8.73-5-3.68-2.17,1.92-3.07,2.07-4.12,3.84a11.11,11.11,0,0,0-1.5,5.93c.82,36.33,11,80.51,12.73,87.67-.55,2.65-1.31,5.23-2,7.74-2,6.85-3.92,13.31-.18,18.31,2.93,3.92,8.39,5.64,17.67,5.57,11.86-.09,18.55-.91,22.2-5.07s3-9.63,2-18c-.29-2.55-.63-5.43-.9-8.68.38-2.13,1.92-10.71,5.37-29.27a33.6,33.6,0,0,1,2.38-7.6c.31-.73.6-1.41.83-2.09,1.58-4.6,1.35-16.78,2.19-25.91C219.1,395.19,216.22,379.24,209.76,374.57Z" transform="translate(-156.52 -362.1)" fill="#231815"/>
      <line id="_" data-name="&apos;" x1="23.81" y1="121.33" x2="21.91" y2="129" fill="#fff5d7" stroke="#231815" stroke-linecap="round" stroke-linejoin="round" stroke-width="6.23"/>
    </g>
  </g>
</svg>
