<svg id="Girl_outline" xmlns="http://www.w3.org/2000/svg" viewBox="0 0 57.5 109.88"><defs><style>.cls-1{fill:#fff;}.cls-2{fill:#231815;}.cls-3{fill:#fff5d7;stroke:#231815;stroke-linecap:round;stroke-linejoin:round;stroke-width:6.27px;}</style></defs><title>outline_g_legr</title><g id="outline_g_legr"><path id="in" class="cls-1" d="M267.09,398.45a22.46,22.46,0,0,0-18-24.86,37.06,37.06,0,0,0-9.92-.88c-20.44,2.25-25.87,28.66-20,47,.71,2.23,2.18,5,2.65,9.25,1.52,14,2.49,20.16,2.71,21.49a1.6,1.6,0,0,1,0,.58c-3.06,15.08-12.62,27.21,7.71,27.21,23.83,0,21.65-3.09,21.63-27.19a1.61,1.61,0,0,1,.11-.59A234.7,234.7,0,0,0,267.09,398.45Z" transform="translate(-213.93 -372.63)"/><path id="line" class="cls-2" d="M218.88,396c.11-3.22-.14-4.37,1.14-7.32,0,0,.35-1.7-1-1-6.32,3.16-5,17-5,21.33,0,3.82-.07,8.62,1,12,.21.65.47,1.33.76,2.08a23.7,23.7,0,0,1,1.71,6.32c1.37,12.53,2.29,18.86,2.65,21.15a.39.39,0,0,1,0,.15c-.63,2.93-1.51,5.76-2.37,8.51-2.13,6.83-4.14,13.28-.56,18.15,3.38,4.6,10.15,5.13,14.94,5.13,11.68,0,17.94-.7,21.89-4.69,4.2-4.24,4.15-10.64,4.05-21.25,0-1.54,0-3.2,0-5a.36.36,0,0,1,0-.13A240.72,240.72,0,0,0,271,401.28c1-6.94.32-17.67-3.16-23.21-1.12-1.78-5.77-6.58-6.62-4.66h0c-1.24.83-.91,2.28-.73,3.77a29.69,29.69,0,0,0,.8,4.63c2.94,4.27,2,12.64,1.23,18.3a231.09,231.09,0,0,1-12.45,48.46,7.9,7.9,0,0,0-.53,2.87c0,1.86,0,3.59,0,5.21.07,7.81.12,13.44-1.58,15.15S240.43,474,232.22,474c-6.52,0-7.86-1.37-8.06-1.65-1-1.39.56-6.46,1.83-10.54.89-2.86,1.9-6.1,2.62-9.5a7.86,7.86,0,0,0,.07-2.86c-.33-2.06-1.23-8.21-2.62-20.93a31.85,31.85,0,0,0-2.24-8.47,9.17,9.17,0,0,0-.59-1.62c-2-3.1-3.2-8.42-3.9-12.62l-.51-8.14Z" transform="translate(-213.93 -372.63)"/><line id="r" class="cls-3" x1="17.66" y1="97.58" x2="15.72" y2="105.45"/></g></svg>