<svg id="outline_g_head" xmlns="http://www.w3.org/2000/svg" viewBox="0 0 286.82 272.75"><defs><style>.cls-1{fill:#fff;stroke:#231815;stroke-linecap:round;stroke-linejoin:round;stroke-width:8.55px;}</style></defs><title>outline_g_head_heart</title><g id="outline_g_head_heart"><path id="earl" class="cls-1" d="M99.94,222.27s-24-3.61-26.14,12.36c-2.51,18.7,13.94,26.29,29.88,23.68Z" transform="translate(-69.28 -38.74)"/><path id="earr" class="cls-1" d="M325.43,222.27s24-3.61,26.14,12.36c2.5,18.7-13.94,26.29-29.88,23.68Z" transform="translate(-69.28 -38.74)"/><path id="head" class="cls-1" d="M212.69,307.22s27.44,0,39.4-10.78c0,0,86.21,8.26,83.5-55.6-.8-18.72,2.14-25.07,2.14-25.07,10.28-53.82-1.85-91.94-21.1-121.46C281.63,40.67,212.69,43,212.69,43h0S143.74,40.67,108.76,94.3c-19.26,29.52-31.38,67.64-21.1,121.46,0,0,2.93,6.35,2.14,25.07-2.72,63.86,83.5,55.6,83.5,55.6,12,10.78,39.4,10.78,39.4,10.78" transform="translate(-69.28 -38.74)"/></g></svg>