<svg id="outline_b_head" xmlns="http://www.w3.org/2000/svg" viewBox="0 0 286.82 268.24"><defs><style>.cls-1{fill:#fff;stroke:#231815;stroke-linecap:round;stroke-linejoin:round;stroke-width:8.55px;}</style></defs><title>outline_b_head_square</title><g id="outline_b_head_square"><path id="earl" class="cls-1" d="M103.26,218.85s-24-3.61-26.14,12.36c-2.51,18.7,13.94,26.29,29.88,23.68Z" transform="translate(-72.6 -35.32)"/><path id="earr" class="cls-1" d="M328.75,218.85s24-3.61,26.14,12.36c2.5,18.7-13.94,26.29-29.88,23.68Z" transform="translate(-72.6 -35.32)"/><path id="head" class="cls-1" d="M216,39.61s68.94-2.36,103.93,51.27c19.14,29.35,31.56,67.19,21.61,120.5,0,0-11,46.76-23.76,61.72C296.88,297.57,216,299.28,216,299.28h0s-80.87-1.72-101.77-26.19c-12.78-15-23.76-61.72-23.76-61.72-9.95-53.31,2.47-91.15,21.61-120.5C147.07,37.25,216,39.61,216,39.61" transform="translate(-72.6 -35.32)"/></g></svg>