<svg id="outline_b_head" xmlns="http://www.w3.org/2000/svg" viewBox="0 0 286.82 271.18"><defs><style>.cls-1{fill:#fff;stroke:#231815;stroke-linecap:round;stroke-linejoin:round;stroke-width:8.55px;}</style></defs><title>outline_b_head_diamond</title><g id="outline_b_head_diamond"><path id="earl" class="cls-1" d="M103.27,217.38s-24-3.61-26.14,12.36C74.62,248.44,91.07,256,107,253.42Z" transform="translate(-72.6 -33.85)"/><path id="earr" class="cls-1" d="M328.75,217.38s24-3.61,26.14,12.36c2.5,18.7-13.94,26.28-29.88,23.68Z" transform="translate(-72.6 -33.85)"/><path id="head" class="cls-1" d="M216,300.75c-10,0-88.55-19.78-103.14-39.1-15.27-20.22-22.58-52.72-22.58-52.72-9.61-52.8,2.77-90.35,21.79-119.52C147.07,35.78,216,38.14,216,38.14s68.94-2.37,103.93,51.27c19,29.16,31.41,66.72,21.79,119.52,0,0-7.31,32.5-22.58,52.72C304.56,281,226,300.75,216,300.75Z" transform="translate(-72.6 -33.85)"/></g></svg>