<svg id="outline_boy" xmlns="http://www.w3.org/2000/svg" viewBox="0 0 286.82 268.24"><defs><style>.cls-1{fill:#fff;stroke:#231815;stroke-linecap:round;stroke-linejoin:round;stroke-width:8.55px;}</style></defs><title>outline_b_head_round</title><g id="outline_b_head_round"><path class="cls-1" d="M328.75,218.85s24-3.61,26.14,12.36c2.51,18.7-13.94,26.28-29.88,23.67Z" transform="translate(-72.6 -35.32)"/><path class="cls-1" d="M103.26,218.85s-24-3.61-26.14,12.36c-2.5,18.7,13.94,26.28,29.88,23.67Z" transform="translate(-72.6 -35.32)"/><path id="outline_b_head" class="cls-1" d="M216,299.28S114,300.1,95.24,232c-17.69-64.37-4.68-108.1,16.85-141.09C147.07,37.25,216,39.61,216,39.61s68.94-2.36,103.93,51.27c21.52,33,34.54,76.72,16.84,141.09C318,300.1,216,299.28,216,299.28Z" transform="translate(-72.6 -35.32)"/></g></svg>