<svg id="outline_b_head" xmlns="http://www.w3.org/2000/svg" viewBox="0 0 286.82 272.75"><defs><style>.cls-1{fill:#fff;stroke:#231815;stroke-linecap:round;stroke-linejoin:round;stroke-width:8.55px;}</style></defs><title>outline_b_head_heart</title><g id="outline_b_head_heart"><path id="earl" class="cls-1" d="M103.26,216.59s-24-3.61-26.14,12.36c-2.51,18.7,13.94,26.29,29.88,23.68Z" transform="translate(-72.6 -33.06)"/><path id="earr" class="cls-1" d="M328.75,216.59s24-3.61,26.14,12.36c2.5,18.7-13.94,26.29-29.88,23.68Z" transform="translate(-72.6 -33.06)"/><path id="head" class="cls-1" d="M216,301.54s27.44,0,39.4-10.78c0,0,86.21,8.26,83.5-55.6-.8-18.72,2.14-25.07,2.14-25.07,10.28-53.82-1.85-91.94-21.11-121.46C285,35,216,37.35,216,37.35h0S147.07,35,112.08,88.62C92.82,118.14,80.69,156.26,91,210.09c0,0,2.93,6.35,2.14,25.07-2.72,63.86,83.5,55.6,83.5,55.6,12,10.78,39.4,10.78,39.4,10.78" transform="translate(-72.6 -33.06)"/></g></svg>