<svg id="outline_g_head" xmlns="http://www.w3.org/2000/svg" viewBox="0 0 286.82 271.17"><defs><style>.cls-1{fill:#fff;stroke:#231815;stroke-linecap:round;stroke-linejoin:round;stroke-width:8.55px;}</style></defs><title>outline_g_head_diamond</title><g id="outline_g_head_diamond"><path id="earr" class="cls-1" d="M325.43,223.06s24-3.61,26.14,12.36c2.5,18.7-13.94,26.29-29.88,23.68Z" transform="translate(-69.28 -39.53)"/><path id="earl" class="cls-1" d="M99.94,223.06s-24-3.61-26.14,12.36c-2.51,18.7,13.94,26.29,29.88,23.68Z" transform="translate(-69.28 -39.53)"/><path id="head" class="cls-1" d="M212.69,306.43c-10,0-88.55-19.78-103.14-39.1C94.27,247.11,87,214.61,87,214.61c-9.61-52.79,2.77-90.35,21.79-119.52,35-53.64,103.93-51.27,103.93-51.27s68.94-2.37,103.93,51.27c19,29.17,31.41,66.72,21.79,119.52,0,0-7.31,32.5-22.58,52.72C301.24,286.65,222.65,306.43,212.69,306.43Z" transform="translate(-69.28 -39.53)"/></g></svg>